<?xml version="1.0" encoding="UTF-8"?>
<svg width="230px" height="230px" viewBox="0 0 230 230" version="1.1" xmlns="http://www.w3.org/2000/svg" xmlns:xlink="http://www.w3.org/1999/xlink">
    <!-- Generator: Sketch 47.1 (45422) - http://www.bohemiancoding.com/sketch -->
    <title>kod</title>
    <desc>Created with Sketch.</desc>
    <defs></defs>
    <g id="Page-1" stroke="none" stroke-width="1" fill="none" fill-rule="evenodd">
        <g id="kod">
            <rect id="Rectangle" fill="#D8D8D8" opacity="0.435971467" x="0" y="0" width="230" height="230" rx="50"></rect>
            <text id="Kod" font-family="LeagueSpartan-Bold, League Spartan" font-size="25.7999992" font-weight="bold" fill="#3D3780">
                <tspan x="85.5789761" y="202">Kod</tspan>
            </text>
            <g id="code-fork-symbol" transform="translate(97.000000, 22.000000)" fill-rule="nonzero" fill="#3D3780">
                <path d="M83.9756007,15.9157677 C80.7366689,12.6871093 76.8054812,11.0723257 72.1796075,11.0723257 C67.5558601,11.0723257 63.6243686,12.6862005 60.3863481,15.9157677 C57.1495427,19.144426 55.5311399,23.0650478 55.5311399,27.6791481 C55.5311399,30.6775558 56.2805017,33.4599522 57.7837816,36.0257312 C59.2867577,38.5918132 61.3085461,40.596205 63.8543106,42.0370888 C63.8543106,45.0354966 63.6097884,47.6745923 63.1192253,49.9519522 C62.6265358,52.2293121 61.817942,54.2321891 60.6910137,55.9633098 C59.5610478,57.6935216 58.3928089,59.1628838 57.1777918,60.374426 C55.962471,61.5859681 54.2568908,62.7238907 52.0601399,63.7912232 C49.8636928,64.8579499 47.8242867,65.7507768 45.9458703,66.4727335 C44.0674539,67.1922665 41.5371809,68.0426788 38.3574812,69.0233645 C32.575215,70.8117449 28.1243038,72.453795 25.0020137,73.9540592 L25.0020137,30.9644601 C27.5459556,29.5238793 29.5695666,27.5197904 31.0725427,24.9537084 C32.575215,22.3876264 33.3267031,19.6049271 33.3267031,16.6065194 C33.3267031,11.9939339 31.7086041,8.07240319 28.4705836,4.84374487 C25.2337782,1.61538952 21.3028942,0 16.6770205,0 C12.050843,0 8.11995904,1.61417768 4.88193857,4.84374487 C1.64513311,8.07240319 0.0258191126,11.9939339 0.0258191126,16.6065194 C0.0258191126,19.6049271 0.777307167,22.3876264 2.27997952,24.9537084 C3.78295563,27.5197904 5.8062628,29.5238793 8.35050853,30.9644601 L8.35050853,101.892845 C5.8062628,103.33282 3.78295563,105.33903 2.27997952,107.904203 C0.777307167,110.471194 0.0258191126,113.253893 0.0258191126,116.251392 C0.0258191126,120.863977 1.64391809,124.785205 4.88193857,128.01356 C8.11995904,131.241916 12.0517543,132.857305 16.6770205,132.857305 C21.3019829,132.857305 25.2337782,131.241916 28.4705836,128.01356 C31.7076928,124.785205 33.3267031,120.863674 33.3267031,116.251392 C33.3267031,113.253893 32.575215,110.471194 31.0725427,107.904203 C29.5692628,105.33903 27.5459556,103.33282 25.0020137,101.892845 L25.0020137,99.6439636 C25.0020137,95.665779 26.2015392,92.7834055 28.6005904,90.9962369 C30.9996416,89.2066446 35.8995017,87.1601412 43.3007782,84.854303 C51.106959,82.374262 56.976099,80.0375216 60.9072867,77.8455968 C73.8572423,70.5239317 80.3906928,58.5869544 80.5058157,42.0367859 C83.0515802,40.596205 85.0733686,38.5915103 86.5763447,36.0254282 C88.0784096,33.4593462 88.8311126,30.6772528 88.8311126,27.6788451 C88.8320239,23.0659567 87.2127099,19.1453349 83.9756007,15.9157677 Z M22.5753208,122.135203 C20.9557031,123.750289 18.9901092,124.557075 16.6782355,124.557075 C14.364843,124.557075 12.3992491,123.750289 10.7802389,122.135203 C9.16213993,120.521934 8.3520273,118.56026 8.3520273,116.254421 C8.3520273,113.946765 9.16122867,111.987212 10.7802389,110.371822 C12.3992491,108.757645 14.364843,107.94995 16.6782355,107.94995 C18.9901092,107.94995 20.9560068,108.758554 22.5753208,110.371822 C24.1943311,111.987212 25.0032287,113.946765 25.0032287,116.254421 C25.0029249,118.56026 24.1943311,120.521631 22.5753208,122.135203 Z M22.5753208,22.4894214 C20.9557031,24.104205 18.9901092,24.9112938 16.6782355,24.9112938 C14.364843,24.9112938 12.3992491,24.104205 10.7802389,22.4894214 C9.16213993,20.8746378 8.3520273,18.9150843 8.3520273,16.6077312 C8.3520273,14.3009841 9.16122867,12.3399157 10.7802389,10.7266469 C12.3992491,9.11216629 14.364843,8.30477449 16.6782355,8.30477449 C18.9901092,8.30477449 20.9560068,9.11246925 22.5753208,10.7266469 C24.1943311,12.3399157 25.0032287,14.3009841 25.0032287,16.6077312 C25.0029249,18.9150843 24.1943311,20.8755467 22.5753208,22.4894214 Z M78.0776041,33.5617472 C76.4592014,35.1756219 74.4945188,35.9833166 72.1817338,35.9833166 C69.8677338,35.9833166 67.9018362,35.1756219 66.2846485,33.5617472 C64.6662457,31.9478724 63.8564369,29.9871071 63.8564369,27.6800569 C63.8564369,25.3733098 64.6662457,23.4134533 66.2846485,21.7983667 C67.9030512,20.1832802 69.8677338,19.3767973 72.1817338,19.3767973 C74.4945188,19.3767973 76.4592014,20.1835831 78.0776041,21.7983667 C79.6960068,23.4119385 80.5058157,25.3730068 80.5058157,27.6800569 C80.5058157,29.9868041 79.6972218,31.9478724 78.0776041,33.5617472 Z" id="Shape"></path>
            </g>
        </g>
    </g>
</svg>