<?xml version="1.0" encoding="UTF-8"?>
<svg width="190px" height="190px" viewBox="0 0 190 190" version="1.1" xmlns="http://www.w3.org/2000/svg" xmlns:xlink="http://www.w3.org/1999/xlink">
    <!-- Generator: Sketch 47.1 (45422) - http://www.bohemiancoding.com/sketch -->
    <title>kod</title>
    <desc>Created with Sketch.</desc>
    <defs></defs>
    <g id="Page-1" stroke="none" stroke-width="1" fill="none" fill-rule="evenodd">
        <g id="Group-2" transform="translate(-284.000000, 0.000000)">
            <g id="kod" transform="translate(284.000000, 0.000000)">
                <rect id="Rectangle" fill="#D8D8D8" opacity="0.435971467" x="0" y="0" width="190" height="190" rx="50"></rect>
                <path d="M87.9805537,166.869565 L82.4604756,166.869565 L75.9813105,159.41 L75.9813105,166.869565 L71.9744585,166.869565 L71.9744585,149.286305 L75.9813105,149.286305 L75.9813105,156.4688 L82.0129017,149.286305 L86.8722754,149.286305 L79.7963452,157.619705 L87.9805537,166.869565 Z M87.2132841,161.413426 C87.2132841,158.003339 90.1118579,155.616279 93.7990144,155.616279 C97.4222316,155.616279 100.320805,158.003339 100.320805,161.413426 C100.320805,164.780887 97.5714229,167.189261 93.7990144,167.189261 C89.8561014,167.189261 87.2132841,164.780887 87.2132841,161.413426 Z M91.2201362,161.413426 C91.2201362,162.905339 92.2431622,163.970991 93.7777013,163.970991 C95.2483013,163.970991 96.3139534,162.905339 96.3139534,161.413426 C96.3139534,159.9002 95.1843621,158.834548 93.7777013,158.834548 C92.3497274,158.834548 91.2201362,159.9002 91.2201362,161.413426 Z M101.301205,161.413426 C101.301205,158.21647 103.539075,155.616279 106.736031,155.616279 C108.206631,155.616279 109.421475,156.106479 110.316623,156.980313 L110.316623,148.540348 L114.089031,148.540348 L114.089031,166.869565 L110.359249,166.869565 L110.359249,165.633409 L110.316623,165.633409 C109.506727,166.528557 108.227944,167.189261 106.736031,167.189261 C103.539075,167.189261 101.301205,164.610383 101.301205,161.413426 Z M105.308057,161.413426 C105.308057,162.905339 106.331084,163.970991 107.865623,163.970991 C109.336223,163.970991 110.401875,162.905339 110.401875,161.413426 C110.401875,159.9002 109.272283,158.834548 107.865623,158.834548 C106.437649,158.834548 105.308057,159.9002 105.308057,161.413426 Z" id="Kod" fill="#3D3780"></path>
                <g id="code-fork-symbol" transform="translate(80.130435, 18.173913)" fill-rule="nonzero" fill="#3D3780">
                    <path d="M69.3711484,13.1478081 C66.6955091,10.4806555 63.4480062,9.14670387 59.6266323,9.14670387 C55.8070148,9.14670387 52.559261,10.4799047 49.8843745,13.1478081 C47.2104918,15.8149606 45.8735504,19.0537352 45.8735504,22.8653832 C45.8735504,25.3423287 46.4925884,27.64083 47.7344283,29.7603866 C48.9760172,31.8801935 50.6461902,33.5359954 52.7492131,34.7262908 C52.7492131,37.2032363 52.5472165,39.3833588 52.1419687,41.2646561 C51.7349644,43.1459535 51.0669955,44.800504 50.1360548,46.2305603 C49.2026047,47.6598657 48.2375378,48.8736866 47.233828,49.8745258 C46.2298673,50.875365 44.8209098,51.8153879 43.0062026,52.6970975 C41.1917463,53.5783064 39.5070194,54.3158591 37.9552842,54.9122581 C36.4035489,55.5066549 34.3133233,56.2091695 31.6866149,57.0193011 C26.9099602,58.4966588 23.2331205,59.853135 20.6538374,61.0924837 L20.6538374,25.5793366 C22.7553547,24.3892916 24.4270332,22.7337399 25.6686222,20.613933 C26.9099602,18.4941262 27.5307547,16.1953746 27.5307547,13.718429 C27.5307547,9.90803239 26.1940643,6.66850698 23.5191778,4.00135446 C20.845295,1.33445221 17.598043,0 13.7766691,0 C9.95504422,0 6.70779225,1.33345112 4.03290577,4.00135446 C1.359023,6.66850698 0.0213288322,9.90803239 0.0213288322,13.718429 C0.0213288322,16.1953746 0.642123312,18.4941262 1.88346134,20.613933 C3.1250503,22.7337399 4.79647796,24.3892916 6.89824618,25.5793366 L6.89824618,84.1723503 C4.79647796,85.3618948 3.1250503,87.0191984 1.88346134,89.1382544 C0.642123312,91.2588121 0.0213288322,93.5575637 0.0213288322,96.0337584 C0.0213288322,99.8441551 1.35801929,103.08343 4.03290577,105.750332 C6.70779225,108.417235 9.955797,109.751687 13.7766691,109.751687 C17.5972903,109.751687 20.845295,108.417235 23.5191778,105.750332 C26.1933115,103.08343 27.5307547,99.8439048 27.5307547,96.0337584 C27.5307547,93.5575637 26.9099602,91.2588121 25.6686222,89.1382544 C24.4267823,87.0191984 22.7553547,85.3618948 20.6538374,84.1723503 L20.6538374,82.3145786 C20.6538374,79.0282523 21.6447498,76.647161 23.6265747,75.1708044 C25.6083996,73.6924456 29.6561101,72.0018558 35.770208,70.0970329 C42.2187923,68.0483034 47.0672122,66.1179527 50.3147151,64.3072321 C61.0125045,58.2589001 66.4097028,48.3979189 66.5048043,34.7260405 C68.6078271,33.5359954 70.2780001,31.8799433 71.5195891,29.7601364 C72.7604253,27.6403295 73.3822235,25.3420784 73.3822235,22.8651329 C73.3829763,19.054486 72.0452821,15.8157114 69.3711484,13.1478081 Z M18.6491781,100.894298 C17.311233,102.2285 15.6874815,102.894975 13.7776728,102.894975 C11.8666094,102.894975 10.242858,102.2285 8.90541475,100.894298 C7.56872429,99.5615976 6.89950082,97.9410841 6.89950082,96.0362612 C6.89950082,94.1299366 7.56797151,92.511175 8.90541475,91.1767228 C10.242858,89.8432717 11.8666094,89.1760456 13.7776728,89.1760456 C15.6874815,89.1760456 17.3114839,89.8440225 18.6491781,91.1767228 C19.9866213,92.511175 20.6548411,94.1299366 20.6548411,96.0362612 C20.6545901,97.9410841 19.9866213,99.5613473 18.6491781,100.894298 Z M18.6491781,18.5782177 C17.311233,19.9121694 15.6874815,20.5788949 13.7776728,20.5788949 C11.8666094,20.5788949 10.242858,19.9121694 8.90541475,18.5782177 C7.56872429,17.244266 6.89950082,15.6255044 6.89950082,13.7194301 C6.89950082,11.8138564 7.56797151,10.1938434 8.90541475,8.86114311 C10.242858,7.52744172 11.8666094,6.86046588 13.7776728,6.86046588 C15.6874815,6.86046588 17.3114839,7.52769199 18.6491781,8.86114311 C19.9866213,10.1938434 20.6548411,11.8138564 20.6548411,13.7194301 C20.6545901,15.6255044 19.9866213,17.2450168 18.6491781,18.5782177 Z M64.4988903,27.7249216 C63.161949,29.0581224 61.5389503,29.7253485 59.6283888,29.7253485 C57.7168236,29.7253485 56.0928212,29.0581224 54.7568835,27.7249216 C53.4199421,26.3917207 52.7509696,24.771958 52.7509696,22.866134 C52.7509696,20.9605603 53.4199421,19.3415484 54.7568835,18.0073464 C56.0938249,16.6731445 57.7168236,16.0069195 59.6283888,16.0069195 C61.5389503,16.0069195 63.161949,16.6733948 64.4988903,18.0073464 C65.8358317,19.340297 66.5048043,20.96031 66.5048043,22.866134 C66.5048043,24.7717077 65.8368354,26.3917207 64.4988903,27.7249216 Z" id="Shape"></path>
                </g>
            </g>
        </g>
    </g>
</svg>