<?xml version="1.0" encoding="UTF-8"?>
<svg width="190px" height="190px" viewBox="0 0 190 190" version="1.1" xmlns="http://www.w3.org/2000/svg" xmlns:xlink="http://www.w3.org/1999/xlink">
    <!-- Generator: Sketch 47.1 (45422) - http://www.bohemiancoding.com/sketch -->
    <title>live</title>
    <desc>Created with Sketch.</desc>
    <defs></defs>
    <g id="Page-1" stroke="none" stroke-width="1" fill="none" fill-rule="evenodd">
        <g id="Group-2">
            <g id="live">
                <rect id="Rectangle" fill="#D8D8D8" opacity="0.435971467" x="0" y="0" width="190" height="190" rx="50"></rect>
                <g id="coding" transform="translate(31.391304, 26.434783)" fill-rule="nonzero">
                    <path d="M120.637121,0.196526087 L6.58026987,0.196526087 C2.94612619,0.196526087 0,3.135 0,6.75970435 L0,89.8924696 C0,93.5171739 2.94612619,96.4556478 6.58026987,96.4556478 L120.637121,96.4556478 C124.271265,96.4556478 127.217391,93.5171739 127.217391,89.8924696 L127.217391,6.75970435 C127.217391,3.135 124.271265,0.196526087 120.637121,0.196526087 Z M109.670088,4.57189565 L111.863594,4.57189565 C113.074892,4.57189565 114.0571,5.55155217 114.0571,6.75970435 C114.0571,7.96785652 113.074892,8.94751304 111.863594,8.94751304 L109.670088,8.94751304 C108.458789,8.94751304 107.476582,7.96785652 107.476582,6.75970435 C107.47683,5.55155217 108.458789,4.57189565 109.670088,4.57189565 Z M48.2548983,4.57189565 L100.89656,4.57189565 C102.107859,4.57189565 103.090066,5.55155217 103.090066,6.75970435 C103.090066,7.96785652 102.107859,8.94751304 100.89656,8.94751304 L48.2548983,8.94751304 C47.0435999,8.94751304 46.0613922,7.96785652 46.0613922,6.75970435 C46.0613922,5.55155217 47.0435999,4.57189565 48.2548983,4.57189565 Z M37.2878646,4.57189565 L39.4813708,4.57189565 C40.6926692,4.57189565 41.6748769,5.55155217 41.6748769,6.75970435 C41.6748769,7.96785652 40.6926692,8.94751304 39.4813708,8.94751304 L37.2878646,8.94751304 C36.0765662,8.94751304 35.0943585,7.96785652 35.0943585,6.75970435 C35.0943585,5.55155217 36.0765662,4.57189565 37.2878646,4.57189565 Z M28.5143371,4.57189565 L30.7078432,4.57189565 C31.9191416,4.57189565 32.9013494,5.55155217 32.9013494,6.75970435 C32.9013494,7.96785652 31.9191416,8.94751304 30.7078432,8.94751304 L28.5143371,8.94751304 C27.3030387,8.94751304 26.320831,7.96785652 26.320831,6.75970435 C26.320831,5.55155217 27.3030387,4.57189565 28.5143371,4.57189565 Z M19.7405611,4.57189565 C20.9518595,4.57189565 21.9340673,5.55155217 21.9340673,6.75970435 C21.9340673,7.96785652 20.9518595,8.94751304 19.7405611,8.94751304 C18.5292627,8.94751304 17.547055,7.96785652 17.547055,6.75970435 C17.5473035,5.55155217 18.5292627,4.57189565 19.7405611,4.57189565 Z M13.1605397,4.57189565 C14.3718381,4.57189565 15.3540459,5.55155217 15.3540459,6.75970435 C15.3540459,7.96785652 14.3718381,8.94751304 13.1605397,8.94751304 C11.9492413,8.94751304 10.9670336,7.96785652 10.9670336,6.75970435 C10.9670336,5.55155217 11.9489929,4.57189565 13.1605397,4.57189565 Z M6.58026987,4.57189565 C7.79156827,4.57189565 8.77377599,5.55155217 8.77377599,6.75970435 C8.77377599,7.96785652 7.79156827,8.94751304 6.58026987,8.94751304 C5.36897147,8.94751304 4.38676376,7.96785652 4.38676376,6.75970435 C4.38676376,5.55155217 5.36897147,4.57189565 6.58026987,4.57189565 Z M122.830628,26.4489913 L122.830628,89.8924696 C122.830628,91.1006217 121.84842,92.0802783 120.637121,92.0802783 L63.6086957,92.0802783 L6.58026987,92.0802783 C5.36897147,92.0802783 4.38676376,91.1006217 4.38676376,89.8924696 L4.38676376,26.4489913 L4.38676376,15.5104435 C4.38676376,14.3022913 5.36897147,13.3226348 6.58026987,13.3226348 L63.6086957,13.3226348 L120.637121,13.3226348 C121.84842,13.3226348 122.830628,14.3022913 122.830628,15.5104435 L122.830628,26.4489913 L122.830628,26.4489913 Z M120.637121,8.94726522 L118.443615,8.94726522 C117.232317,8.94726522 116.250109,7.9676087 116.250109,6.75945652 C116.250109,5.55130435 117.232317,4.57164783 118.443615,4.57164783 L120.637121,4.57164783 C121.84842,4.57164783 122.830628,5.55130435 122.830628,6.75945652 C122.830628,7.96785652 121.84842,8.94726522 120.637121,8.94726522 Z" id="Shape" fill="#D2DCF0"></path>
                    <path d="M63.6086957,92.0802783 L120.637121,92.0802783 C121.84842,92.0802783 122.830628,91.1006217 122.830628,89.8924696 L122.830628,26.4489913 L63.6086957,26.4489913 L63.6086957,92.0802783 Z M96.5097965,37.3875391 L96.5097965,35.1997304 C96.5097965,33.9915783 97.4920042,33.0119217 98.7033026,33.0119217 L114.0571,33.0119217 C115.268398,33.0119217 116.250606,33.9915783 116.250606,35.1997304 L116.250606,37.3875391 L116.250606,54.8892652 C116.250606,56.0974174 115.268398,57.0770739 114.0571,57.0770739 L98.7033026,57.0770739 C97.4920042,57.0770739 96.5097965,56.0974174 96.5097965,54.8892652 L96.5097965,37.3875391 Z M70.1889655,37.3875391 L70.1889655,35.1997304 C70.1889655,33.9915783 71.1711732,33.0119217 72.3824716,33.0119217 L87.736269,33.0119217 C88.9475674,33.0119217 89.9297751,33.9915783 89.9297751,35.1997304 L89.9297751,37.3875391 L89.9297751,54.8892652 C89.9297751,56.0974174 88.9475674,57.0770739 87.736269,57.0770739 L72.3822232,57.0770739 C71.1709248,57.0770739 70.1887171,56.0974174 70.1887171,54.8892652 L70.1887171,37.3875391 L70.1889655,37.3875391 Z M72.3822232,63.6400043 L74.5757293,63.6400043 L114.0571,63.6400043 C115.268398,63.6400043 116.250606,64.6196609 116.250606,65.827813 L116.250606,83.3295391 C116.250606,84.5376913 115.268398,85.5173478 114.0571,85.5173478 L74.5757293,85.5173478 L72.3822232,85.5173478 C71.1709248,85.5173478 70.1887171,84.5376913 70.1887171,83.3295391 L70.1887171,65.827813 C70.1889655,64.6196609 71.1709248,63.6400043 72.3822232,63.6400043 Z" id="Shape" fill="#FFFFFF"></path>
                    <ellipse id="Oval" fill="#FF6469" cx="6.58026987" cy="6.75970435" rx="2.19350611" ry="2.1878087"></ellipse>
                    <ellipse id="Oval" fill="#FFE169" cx="13.1605397" cy="6.75970435" rx="2.19350611" ry="2.1878087"></ellipse>
                    <ellipse id="Oval" fill="#87E1AA" cx="19.7405611" cy="6.75970435" rx="2.19350611" ry="2.1878087"></ellipse>
                    <g id="Group" transform="translate(26.089504, 4.460870)" fill="#E4EAF6">
                        <path d="M2.42483305,4.48639565 L4.61833916,4.48639565 C5.82963757,4.48639565 6.81184528,3.50673913 6.81184528,2.29858696 C6.81184528,1.09043478 5.82963757,0.110778261 4.61833916,0.110778261 L2.42483305,0.110778261 C1.21353465,0.110778261 0.231326936,1.09043478 0.231326936,2.29858696 C0.231326936,3.50698696 1.21353465,4.48639565 2.42483305,4.48639565 Z" id="Shape"></path>
                        <path d="M11.1983606,4.48639565 L13.3918667,4.48639565 C14.6031651,4.48639565 15.5853728,3.50673913 15.5853728,2.29858696 C15.5853728,1.09043478 14.6031651,0.110778261 13.3918667,0.110778261 L11.1983606,0.110778261 C9.98706216,0.110778261 9.00485445,1.09043478 9.00485445,2.29858696 C9.00485445,3.50698696 9.98706216,4.48639565 11.1983606,4.48639565 Z" id="Shape"></path>
                        <path d="M83.5805837,4.48639565 L85.7740898,4.48639565 C86.9853882,4.48639565 87.967596,3.50673913 87.967596,2.29858696 C87.967596,1.09043478 86.9853882,0.110778261 85.7740898,0.110778261 L83.5805837,0.110778261 C82.3692853,0.110778261 81.3870776,1.09043478 81.3870776,2.29858696 C81.3873261,3.50698696 82.3692853,4.48639565 83.5805837,4.48639565 Z" id="Shape"></path>
                        <path d="M94.5476174,0.111026087 L92.3541112,0.111026087 C91.1428128,0.111026087 90.1606051,1.09068261 90.1606051,2.29883478 C90.1606051,3.50698696 91.1428128,4.48664348 92.3541112,4.48664348 L94.5476174,4.48664348 C95.7589158,4.48664348 96.7411235,3.50698696 96.7411235,2.29883478 C96.7411235,1.09068261 95.7589158,0.111026087 94.5476174,0.111026087 Z" id="Shape"></path>
                        <path d="M22.1653942,4.48639565 L74.8070562,4.48639565 C76.0183546,4.48639565 77.0005623,3.50673913 77.0005623,2.29858696 C77.0005623,1.09043478 76.0183546,0.110778261 74.8070562,0.110778261 L22.1653942,0.110778261 C20.9540958,0.110778261 19.9718881,1.09043478 19.9718881,2.29858696 C19.9718881,3.50698696 20.9540958,4.48639565 22.1653942,4.48639565 Z" id="Shape"></path>
                    </g>
                    <path d="M120.637121,13.3228826 L63.6086957,13.3228826 L63.6086957,26.4492391 L122.830628,26.4492391 L122.830628,15.5106913 C122.830628,14.3022913 121.84842,13.3228826 120.637121,13.3228826 Z M78.962493,22.0736217 L70.1889655,22.0736217 C68.9776671,22.0736217 67.9954594,21.0939652 67.9954594,19.885813 C67.9954594,18.6776609 68.9776671,17.6980043 70.1889655,17.6980043 L78.962493,17.6980043 C80.1737914,17.6980043 81.1559992,18.6776609 81.1559992,19.885813 C81.1559992,21.0939652 80.1737914,22.0736217 78.962493,22.0736217 Z M96.5097965,22.0736217 L87.736269,22.0736217 C86.5249706,22.0736217 85.5427629,21.0939652 85.5427629,19.885813 C85.5427629,18.6776609 86.5249706,17.6980043 87.736269,17.6980043 L96.5097965,17.6980043 C97.7210949,17.6980043 98.7033026,18.6776609 98.7033026,19.885813 C98.7033026,21.0939652 97.7210949,22.0736217 96.5097965,22.0736217 Z M114.056852,22.0736217 L105.283324,22.0736217 C104.072026,22.0736217 103.089818,21.0939652 103.089818,19.885813 C103.089818,18.6776609 104.072026,17.6980043 105.283324,17.6980043 L114.056852,17.6980043 C115.26815,17.6980043 116.250358,18.6776609 116.250358,19.885813 C116.250358,21.0939652 115.268398,22.0736217 114.056852,22.0736217 Z" id="Shape" fill="#FF6469"></path>
                    <g id="Group" transform="translate(67.832711, 17.595652)" fill="#D2555F">
                        <path d="M11.1297824,0.1026 L2.35625493,0.1026 C1.14495652,0.1026 0.162748811,1.08225652 0.162748811,2.2904087 C0.162748811,3.49856087 1.14495652,4.47821739 2.35625493,4.47821739 L11.1297824,4.47821739 C12.3410808,4.47821739 13.3232886,3.49856087 13.3232886,2.2904087 C13.3232886,1.08225652 12.3410808,0.1026 11.1297824,0.1026 Z" id="Shape"></path>
                        <path d="M28.6770859,0.1026 L19.9035584,0.1026 C18.69226,0.1026 17.7100523,1.08225652 17.7100523,2.2904087 C17.7100523,3.49856087 18.69226,4.47821739 19.9035584,4.47821739 L28.6770859,4.47821739 C29.8883843,4.47821739 30.8705921,3.49856087 30.8705921,2.2904087 C30.8705921,1.08225652 29.8883843,0.1026 28.6770859,0.1026 Z" id="Shape"></path>
                        <path d="M46.224141,0.1026 L37.4506135,0.1026 C36.239315,0.1026 35.2571073,1.08225652 35.2571073,2.2904087 C35.2571073,3.49856087 36.239315,4.47821739 37.4506135,4.47821739 L46.224141,4.47821739 C47.4354394,4.47821739 48.4176471,3.49856087 48.4176471,2.2904087 C48.4176471,1.08225652 47.4356878,0.1026 46.224141,0.1026 Z" id="Shape"></path>
                    </g>
                    <g id="Group" transform="translate(70.068954, 37.173913)" fill="#DEE3ED">
                        <path d="M2.31326936,19.902913 L17.6670667,19.902913 C18.8783651,19.902913 19.8605729,18.9232565 19.8605729,17.7151043 L19.8605729,0.213378261 C19.8605729,1.42153043 18.8783651,2.40118696 17.6670667,2.40118696 L2.31326936,2.40118696 C1.10197096,2.40118696 0.119763247,1.42153043 0.119763247,0.213378261 L0.119763247,17.7151043 C0.120011719,18.9235043 1.10197096,19.902913 2.31326936,19.902913 Z" id="Shape"></path>
                        <path d="M28.6341004,19.902913 L43.9878978,19.902913 C45.1991962,19.902913 46.1814039,18.9232565 46.1814039,17.7151043 L46.1814039,0.213378261 C46.1814039,1.42153043 45.1991962,2.40118696 43.9878978,2.40118696 L28.6341004,2.40118696 C27.422802,2.40118696 26.4405943,1.42153043 26.4405943,0.213378261 L26.4405943,17.7151043 C26.4408427,18.9235043 27.422802,19.902913 28.6341004,19.902913 Z" id="Shape"></path>
                    </g>
                    <path d="M72.3822232,39.5753478 L87.7360206,39.5753478 C88.947319,39.5753478 89.9295267,38.5956913 89.9295267,37.3875391 L89.9295267,35.1997304 C89.9295267,33.9915783 88.947319,33.0119217 87.7360206,33.0119217 L72.3822232,33.0119217 C71.1709248,33.0119217 70.1887171,33.9915783 70.1887171,35.1997304 L70.1887171,37.3875391 C70.1889655,38.5956913 71.1709248,39.5753478 72.3822232,39.5753478 Z" id="Shape" fill="#FF969B"></path>
                    <path d="M98.7030542,39.5753478 L114.056852,39.5753478 C115.26815,39.5753478 116.250358,38.5956913 116.250358,37.3875391 L116.250358,35.1997304 C116.250358,33.9915783 115.26815,33.0119217 114.056852,33.0119217 L98.7030542,33.0119217 C97.4917558,33.0119217 96.5095481,33.9915783 96.5095481,35.1997304 L96.5095481,37.3875391 C96.5097965,38.5956913 97.4917558,39.5753478 98.7030542,39.5753478 Z" id="Shape" fill="#A0DCF0"></path>
                    <path d="M76.7692354,65.827813 L76.7692354,83.3295391 C76.7692354,84.5376913 75.7870277,85.5173478 74.5757293,85.5173478 L114.0571,85.5173478 C115.268398,85.5173478 116.250606,84.5376913 116.250606,83.3295391 L116.250606,65.827813 C116.250606,64.6196609 115.268398,63.6400043 114.0571,63.6400043 L74.5757293,63.6400043 C75.7870277,63.6400043 76.7692354,64.6196609 76.7692354,65.827813 Z" id="Shape" fill="#DEE3ED"></path>
                    <path d="M72.3822232,85.5171 L74.5757293,85.5171 C75.7870277,85.5171 76.7692354,84.5374435 76.7692354,83.3292913 L76.7692354,65.8275652 C76.7692354,64.619413 75.7870277,63.6397565 74.5757293,63.6397565 L72.3822232,63.6397565 C71.1709248,63.6397565 70.1887171,64.619413 70.1887171,65.8275652 L70.1887171,83.3292913 C70.1889655,84.5374435 71.1709248,85.5171 72.3822232,85.5171 Z" id="Shape" fill="#91E6BE"></path>
                    <path d="M63.6086957,13.3228826 L6.58026987,13.3228826 C5.36897147,13.3228826 4.38676376,14.3025391 4.38676376,15.5106913 L4.38676376,26.4492391 L4.38676376,89.8927174 C4.38676376,91.1008696 5.36897147,92.0805261 6.58026987,92.0805261 L63.6086957,92.0805261 L63.6086957,26.4489913 L63.6086957,13.3228826 Z M21.9340673,19.885813 L57.0284258,19.885813 C58.2397242,19.885813 59.2219319,20.8654696 59.2219319,22.0736217 C59.2219319,23.2817739 58.2397242,24.2614304 57.0284258,24.2614304 L21.9340673,24.2614304 C20.7227689,24.2614304 19.7405611,23.2817739 19.7405611,22.0736217 C19.7405611,20.8654696 20.7227689,19.885813 21.9340673,19.885813 Z M10.9670336,19.885813 L13.1605397,19.885813 C14.3718381,19.885813 15.3540459,20.8654696 15.3540459,22.0736217 C15.3540459,23.2817739 14.3718381,24.2614304 13.1605397,24.2614304 L10.9670336,24.2614304 C9.75573522,24.2614304 8.77352751,23.2817739 8.77352751,22.0736217 C8.77352751,20.8654696 9.75573522,19.885813 10.9670336,19.885813 Z M32.9011009,33.0121696 L26.320831,33.0121696 C25.1095326,33.0121696 24.1273249,32.032513 24.1273249,30.8243609 C24.1273249,29.6162087 25.1095326,28.6365522 26.320831,28.6365522 L32.9011009,28.6365522 C34.1123993,28.6365522 35.094607,29.6162087 35.094607,30.8243609 C35.0943585,32.032513 34.1123993,33.0121696 32.9011009,33.0121696 Z M35.0943585,39.5753478 C35.0943585,40.7835 34.1121508,41.7631565 32.9008524,41.7631565 L26.3205825,41.7631565 C25.1092841,41.7631565 24.1270764,40.7835 24.1270764,39.5753478 C24.1270764,38.3671957 25.1092841,37.3875391 26.3205825,37.3875391 L32.9008524,37.3875391 C34.1123993,37.3875391 35.0943585,38.3671957 35.0943585,39.5753478 Z M10.9670336,54.8892652 L13.1605397,54.8892652 C14.3718381,54.8892652 15.3540459,55.8689217 15.3540459,57.0770739 C15.3540459,58.2852261 14.3718381,59.2648826 13.1605397,59.2648826 L10.9670336,59.2648826 C9.75573522,59.2648826 8.77352751,58.2852261 8.77352751,57.0770739 C8.77352751,55.8689217 9.75573522,54.8892652 10.9670336,54.8892652 Z M8.77352751,48.326087 C8.77352751,47.1179348 9.75573522,46.1382783 10.9670336,46.1382783 L13.1605397,46.1382783 C14.3718381,46.1382783 15.3540459,47.1179348 15.3540459,48.326087 C15.3540459,49.5342391 14.3718381,50.5138957 13.1605397,50.5138957 L10.9670336,50.5138957 C9.75573522,50.5138957 8.77352751,49.5342391 8.77352751,48.326087 Z M15.3537974,63.6400043 L17.5473035,63.6400043 C18.7586019,63.6400043 19.7408096,64.6196609 19.7408096,65.827813 C19.7408096,67.0359652 18.7586019,68.0156217 17.5473035,68.0156217 L15.3537974,68.0156217 C14.142499,68.0156217 13.1602913,67.0359652 13.1602913,65.827813 C13.1602913,64.6196609 14.142499,63.6400043 15.3537974,63.6400043 Z M17.5473035,41.7629087 L15.3537974,41.7629087 C14.142499,41.7629087 13.1602913,40.7832522 13.1602913,39.5751 C13.1602913,38.3669478 14.142499,37.3872913 15.3537974,37.3872913 L17.5473035,37.3872913 C18.7586019,37.3872913 19.7408096,38.3669478 19.7408096,39.5751 C19.7408096,40.7832522 18.7586019,41.7629087 17.5473035,41.7629087 Z M17.5473035,33.0121696 L15.3537974,33.0121696 C14.142499,33.0121696 13.1602913,32.032513 13.1602913,30.8243609 C13.1602913,29.6162087 14.142499,28.6365522 15.3537974,28.6365522 L17.5473035,28.6365522 C18.7586019,28.6365522 19.7408096,29.6162087 19.7408096,30.8243609 C19.7405611,32.032513 18.7586019,33.0121696 17.5473035,33.0121696 Z M13.1605397,85.5171 L10.9670336,85.5171 C9.75573522,85.5171 8.77352751,84.5374435 8.77352751,83.3292913 C8.77352751,82.1211391 9.75573522,81.1414826 10.9670336,81.1414826 L13.1605397,81.1414826 C14.3718381,81.1414826 15.3540459,82.1211391 15.3540459,83.3292913 C15.3537974,84.5374435 14.3718381,85.5171 13.1605397,85.5171 Z M17.5473035,76.7663609 L15.3537974,76.7663609 C14.142499,76.7663609 13.1602913,75.7867043 13.1602913,74.5785522 C13.1602913,73.3704 14.142499,72.3907435 15.3537974,72.3907435 L17.5473035,72.3907435 C18.7586019,72.3907435 19.7408096,73.3704 19.7408096,74.5785522 C19.7408096,75.7867043 18.7586019,76.7663609 17.5473035,76.7663609 Z M57.0284258,85.5171 L21.9340673,85.5171 C20.7227689,85.5171 19.7405611,84.5374435 19.7405611,83.3292913 C19.7405611,82.1211391 20.7227689,81.1414826 21.9340673,81.1414826 L57.0284258,81.1414826 C58.2397242,81.1414826 59.2219319,82.1211391 59.2219319,83.3292913 C59.2219319,84.5374435 58.2397242,85.5171 57.0284258,85.5171 Z M26.320831,72.3907435 L32.9011009,72.3907435 C34.1123993,72.3907435 35.094607,73.3704 35.094607,74.5785522 C35.094607,75.7867043 34.1123993,76.7663609 32.9011009,76.7663609 L26.320831,76.7663609 C25.1095326,76.7663609 24.1273249,75.7867043 24.1273249,74.5785522 C24.1273249,73.3704 25.1095326,72.3907435 26.320831,72.3907435 Z M24.1273249,65.827813 C24.1273249,64.6196609 25.1095326,63.6400043 26.320831,63.6400043 L32.9011009,63.6400043 C34.1123993,63.6400043 35.094607,64.6196609 35.094607,65.827813 C35.094607,67.0359652 34.1123993,68.0156217 32.9011009,68.0156217 L26.320831,68.0156217 C25.1095326,68.0153739 24.1273249,67.0359652 24.1273249,65.827813 Z M57.0284258,76.7663609 L41.6746284,76.7663609 C40.46333,76.7663609 39.4811223,75.7867043 39.4811223,74.5785522 C39.4811223,73.3704 40.46333,72.3907435 41.6746284,72.3907435 L57.0284258,72.3907435 C58.2397242,72.3907435 59.2219319,73.3704 59.2219319,74.5785522 C59.2219319,75.7867043 58.2397242,76.7663609 57.0284258,76.7663609 Z M57.0284258,68.0153739 L41.6746284,68.0153739 C40.46333,68.0153739 39.4811223,67.0357174 39.4811223,65.8275652 C39.4811223,64.619413 40.46333,63.6397565 41.6746284,63.6397565 L57.0284258,63.6397565 C58.2397242,63.6397565 59.2219319,64.619413 59.2219319,65.8275652 C59.2219319,67.0357174 58.2397242,68.0153739 57.0284258,68.0153739 Z M57.0284258,59.2646348 L21.9340673,59.2646348 C20.7227689,59.2646348 19.7405611,58.2849783 19.7405611,57.0768261 C19.7405611,55.8686739 20.7227689,54.8890174 21.9340673,54.8890174 L57.0284258,54.8890174 C58.2397242,54.8890174 59.2219319,55.8686739 59.2219319,57.0768261 C59.2219319,58.2849783 58.2397242,59.2646348 57.0284258,59.2646348 Z M57.0284258,50.5138957 L21.9340673,50.5138957 C20.7227689,50.5138957 19.7405611,49.5342391 19.7405611,48.326087 C19.7405611,47.1179348 20.7227689,46.1382783 21.9340673,46.1382783 L57.0284258,46.1382783 C58.2397242,46.1382783 59.2219319,47.1179348 59.2219319,48.326087 C59.2219319,49.5342391 58.2397242,50.5138957 57.0284258,50.5138957 Z M57.0284258,41.7629087 L41.6746284,41.7629087 C40.46333,41.7629087 39.4811223,40.7832522 39.4811223,39.5751 C39.4811223,38.3669478 40.46333,37.3872913 41.6746284,37.3872913 L57.0284258,37.3872913 C58.2397242,37.3872913 59.2219319,38.3669478 59.2219319,39.5751 C59.2219319,40.7832522 58.2397242,41.7629087 57.0284258,41.7629087 Z M57.0284258,33.0121696 L41.6746284,33.0121696 C40.46333,33.0121696 39.4811223,32.032513 39.4811223,30.8243609 C39.4811223,29.6162087 40.46333,28.6365522 41.6746284,28.6365522 L57.0284258,28.6365522 C58.2397242,28.6365522 59.2219319,29.6162087 59.2219319,30.8243609 C59.2219319,32.032513 58.2397242,33.0121696 57.0284258,33.0121696 Z" id="Shape" fill="#464655"></path>
                    <path d="M21.9340673,24.2614304 L57.0284258,24.2614304 C58.2397242,24.2614304 59.2219319,23.2817739 59.2219319,22.0736217 C59.2219319,20.8654696 58.2397242,19.885813 57.0284258,19.885813 L21.9340673,19.885813 C20.7227689,19.885813 19.7405611,20.8654696 19.7405611,22.0736217 C19.7405611,23.2817739 20.7227689,24.2614304 21.9340673,24.2614304 Z" id="Shape" fill="#FFE169"></path>
                    <g id="Group" transform="translate(24.101732, 28.500000)" fill="#91E6BE">
                        <path d="M8.79936855,0.1368 L2.21909868,0.1368 C1.00780027,0.1368 0.0255925611,1.11645652 0.0255925611,2.3246087 C0.0255925611,3.53276087 1.00780027,4.51241739 2.21909868,4.51241739 L8.79936855,4.51241739 C10.0106669,4.51241739 10.9928747,3.53276087 10.9928747,2.3246087 C10.9926262,1.1162087 10.0106669,0.1368 8.79936855,0.1368 Z" id="Shape"></path>
                        <path d="M8.79936855,8.88753913 L2.21909868,8.88753913 C1.00780027,8.88753913 0.0255925611,9.86719565 0.0255925611,11.0753478 C0.0255925611,12.2835 1.00780027,13.2631565 2.21909868,13.2631565 L8.79936855,13.2631565 C10.0106669,13.2631565 10.9928747,12.2835 10.9928747,11.0753478 C10.9928747,9.86719565 10.0106669,8.88753913 8.79936855,8.88753913 Z" id="Shape"></path>
                    </g>
                    <path d="M57.0284258,46.1382783 L21.9340673,46.1382783 C20.7227689,46.1382783 19.7405611,47.1179348 19.7405611,48.326087 C19.7405611,49.5342391 20.7227689,50.5138957 21.9340673,50.5138957 L57.0284258,50.5138957 C58.2397242,50.5138957 59.2219319,49.5342391 59.2219319,48.326087 C59.2219319,47.1179348 58.2397242,46.1382783 57.0284258,46.1382783 Z" id="Shape" fill="#FFE169"></path>
                    <g id="Group" transform="translate(19.629246, 28.500000)" fill="#FFFFFF">
                        <path d="M37.3991799,26.3892652 L2.30482133,26.3892652 C1.09352293,26.3892652 0.111315217,27.3689217 0.111315217,28.5770739 C0.111315217,29.7852261 1.09352293,30.7648826 2.30482133,30.7648826 L37.3991799,30.7648826 C38.6104783,30.7648826 39.592686,29.7852261 39.592686,28.5770739 C39.592686,27.3689217 38.6104783,26.3892652 37.3991799,26.3892652 Z" id="Shape"></path>
                        <path d="M37.3991799,0.1368 L22.0453825,0.1368 C20.8340841,0.1368 19.8518764,1.11645652 19.8518764,2.3246087 C19.8518764,3.53276087 20.8340841,4.51241739 22.0453825,4.51241739 L37.3991799,4.51241739 C38.6104783,4.51241739 39.592686,3.53276087 39.592686,2.3246087 C39.592686,1.1162087 38.6104783,0.1368 37.3991799,0.1368 Z" id="Shape"></path>
                        <path d="M37.3991799,8.88753913 L22.0453825,8.88753913 C20.8340841,8.88753913 19.8518764,9.86719565 19.8518764,11.0753478 C19.8518764,12.2835 20.8340841,13.2631565 22.0453825,13.2631565 L37.3991799,13.2631565 C38.6104783,13.2631565 39.592686,12.2835 39.592686,11.0753478 C39.592686,9.86719565 38.6104783,8.88753913 37.3991799,8.88753913 Z" id="Shape"></path>
                        <path d="M37.3991799,35.1400043 L22.0453825,35.1400043 C20.8340841,35.1400043 19.8518764,36.1196609 19.8518764,37.327813 C19.8518764,38.5359652 20.8340841,39.5156217 22.0453825,39.5156217 L37.3991799,39.5156217 C38.6104783,39.5156217 39.592686,38.5359652 39.592686,37.327813 C39.592686,36.1196609 38.6104783,35.1400043 37.3991799,35.1400043 Z" id="Shape"></path>
                        <path d="M37.3991799,43.8907435 L22.0453825,43.8907435 C20.8340841,43.8907435 19.8518764,44.8704 19.8518764,46.0785522 C19.8518764,47.2867043 20.8340841,48.2663609 22.0453825,48.2663609 L37.3991799,48.2663609 C38.6104783,48.2663609 39.592686,47.2867043 39.592686,46.0785522 C39.592686,44.8704 38.6104783,43.8907435 37.3991799,43.8907435 Z" id="Shape"></path>
                    </g>
                    <g id="Group" transform="translate(24.101732, 63.443478)" fill="#91E6BE">
                        <path d="M2.21909868,4.57189565 L8.79936855,4.57189565 C10.0106669,4.57189565 10.9928747,3.59223913 10.9928747,2.38408696 C10.9928747,1.17593478 10.0106669,0.196278261 8.79936855,0.196278261 L2.21909868,0.196278261 C1.00780027,0.196278261 0.0255925611,1.17593478 0.0255925611,2.38408696 C0.0255925611,3.59223913 1.00780027,4.57189565 2.21909868,4.57189565 Z" id="Shape"></path>
                        <path d="M2.21909868,13.3228826 L8.79936855,13.3228826 C10.0106669,13.3228826 10.9928747,12.3432261 10.9928747,11.1350739 C10.9928747,9.92692174 10.0106669,8.94726522 8.79936855,8.94726522 L2.21909868,8.94726522 C1.00780027,8.94726522 0.0255925611,9.92692174 0.0255925611,11.1350739 C0.0255925611,12.3432261 1.00780027,13.3228826 2.21909868,13.3228826 Z" id="Shape"></path>
                    </g>
                    <path d="M57.0284258,81.1417304 L21.9340673,81.1417304 C20.7227689,81.1417304 19.7405611,82.121387 19.7405611,83.3295391 C19.7405611,84.5376913 20.7227689,85.5173478 21.9340673,85.5173478 L57.0284258,85.5173478 C58.2397242,85.5173478 59.2219319,84.5376913 59.2219319,83.3295391 C59.2219319,82.1211391 58.2397242,81.1417304 57.0284258,81.1417304 Z" id="Shape" fill="#FFE169"></path>
                    <g id="Group" transform="translate(8.696501, 19.826087)" fill="#FF6469">
                        <path d="M2.27053227,4.43534348 L4.46403838,4.43534348 C5.67533679,4.43534348 6.6575445,3.45568696 6.6575445,2.24753478 C6.6575445,1.03938261 5.67533679,0.059726087 4.46403838,0.059726087 L2.27053227,0.059726087 C1.05923387,0.059726087 0.0770261549,1.03938261 0.0770261549,2.24753478 C0.0770261549,3.45568696 1.05923387,4.43534348 2.27053227,4.43534348 Z" id="Shape"></path>
                        <path d="M8.85080214,8.81071304 L6.65729603,8.81071304 C5.44599762,8.81071304 4.46378991,9.79036957 4.46378991,10.9985217 C4.46378991,12.2066739 5.44599762,13.1863304 6.65729603,13.1863304 L8.85080214,13.1863304 C10.0621005,13.1863304 11.0443083,12.2066739 11.0443083,10.9985217 C11.0440598,9.79012174 10.0621005,8.81071304 8.85080214,8.81071304 Z" id="Shape"></path>
                        <path d="M8.85080214,17.5614522 L6.65729603,17.5614522 C5.44599762,17.5614522 4.46378991,18.5411087 4.46378991,19.7492609 C4.46378991,20.957413 5.44599762,21.9370696 6.65729603,21.9370696 L8.85080214,21.9370696 C10.0621005,21.9370696 11.0443083,20.957413 11.0443083,19.7492609 C11.0443083,18.5411087 10.0621005,17.5614522 8.85080214,17.5614522 Z" id="Shape"></path>
                        <path d="M2.27053227,30.6878087 L4.46403838,30.6878087 C5.67533679,30.6878087 6.6575445,29.7081522 6.6575445,28.5 C6.6575445,27.2918478 5.67533679,26.3121913 4.46403838,26.3121913 L2.27053227,26.3121913 C1.05923387,26.3121913 0.0770261549,27.2918478 0.0770261549,28.5 C0.0770261549,29.7081522 1.05923387,30.6878087 2.27053227,30.6878087 Z" id="Shape"></path>
                        <path d="M2.27053227,39.4385478 L4.46403838,39.4385478 C5.67533679,39.4385478 6.6575445,38.4588913 6.6575445,37.2507391 C6.6575445,36.042587 5.67533679,35.0629304 4.46403838,35.0629304 L2.27053227,35.0629304 C1.05923387,35.0629304 0.0770261549,36.042587 0.0770261549,37.2507391 C0.0770261549,38.4588913 1.05923387,39.4385478 2.27053227,39.4385478 Z" id="Shape"></path>
                        <path d="M6.65729603,48.189287 L8.85080214,48.189287 C10.0621005,48.189287 11.0443083,47.2096304 11.0443083,46.0014783 C11.0443083,44.7933261 10.0621005,43.8136696 8.85080214,43.8136696 L6.65729603,43.8136696 C5.44599762,43.8136696 4.46378991,44.7933261 4.46378991,46.0014783 C4.46378991,47.2096304 5.44599762,48.189287 6.65729603,48.189287 Z" id="Shape"></path>
                        <path d="M8.85080214,52.5646565 L6.65729603,52.5646565 C5.44599762,52.5646565 4.46378991,53.544313 4.46378991,54.7524652 C4.46378991,55.9606174 5.44599762,56.9402739 6.65729603,56.9402739 L8.85080214,56.9402739 C10.0621005,56.9402739 11.0443083,55.9606174 11.0443083,54.7524652 C11.0443083,53.544313 10.0621005,52.5646565 8.85080214,52.5646565 Z" id="Shape"></path>
                        <path d="M4.46403838,61.3156435 L2.27053227,61.3156435 C1.05923387,61.3156435 0.0770261549,62.2953 0.0770261549,63.5034522 C0.0770261549,64.7116043 1.05923387,65.6912609 2.27053227,65.6912609 L4.46403838,65.6912609 C5.67533679,65.6912609 6.6575445,64.7116043 6.6575445,63.5034522 C6.65729603,62.2950522 5.67533679,61.3156435 4.46403838,61.3156435 Z" id="Shape"></path>
                    </g>
                </g>
                <path d="M77.6867671,149.286305 L73.679915,149.286305 L73.679915,166.869565 L83.7396712,166.869565 L83.7396712,163.352913 L77.6867671,163.352913 L77.6867671,149.286305 Z M87.6612711,149.17974 C88.8974276,149.17974 89.8991406,150.181453 89.8991406,151.417609 C89.8991406,152.653766 88.8974276,153.655479 87.6612711,153.655479 C86.4251146,153.655479 85.4234016,152.653766 85.4234016,151.417609 C85.4234016,150.181453 86.4251146,149.17974 87.6612711,149.17974 Z M85.7217842,155.935974 L89.4941928,155.935974 L89.4941928,166.869565 L85.7217842,166.869565 L85.7217842,155.935974 Z M94.8011405,155.935974 L90.3254015,155.935974 L96.1864882,166.869565 L98.7440534,166.869565 L104.60514,155.935974 L100.129401,155.935974 L97.4652708,161.882313 L94.8011405,155.935974 Z M116.455192,161.924939 L108.52674,161.924939 C108.52674,163.60867 109.933401,164.184122 110.892488,164.184122 C112.107331,164.184122 112.640157,163.949678 113.556618,162.969278 L116.284688,164.333313 C115.048531,166.400678 113.045105,167.189261 110.615418,167.189261 C107.311897,167.189261 104.60514,164.58907 104.60514,161.413426 C104.60514,158.21647 107.311897,155.616279 110.615418,155.616279 C113.940253,155.616279 116.476505,157.577079 116.476505,161.413426 C116.476505,161.562618 116.476505,161.797061 116.455192,161.924939 Z M108.633305,159.836261 L112.789349,159.836261 C112.618844,158.685357 111.830262,158.067279 110.721983,158.067279 C109.421888,158.067279 108.697244,158.834548 108.633305,159.836261 Z" id="Live" fill="#3D3780"></path>
            </g>
        </g>
    </g>
</svg>