<?xml version="1.0" encoding="UTF-8"?>
<svg width="230px" height="230px" viewBox="0 0 230 230" version="1.1" xmlns="http://www.w3.org/2000/svg" xmlns:xlink="http://www.w3.org/1999/xlink">
    <!-- Generator: Sketch 47.1 (45422) - http://www.bohemiancoding.com/sketch -->
    <title>live</title>
    <desc>Created with Sketch.</desc>
    <defs></defs>
    <g id="Page-1" stroke="none" stroke-width="1" fill="none" fill-rule="evenodd">
        <g id="live">
            <rect id="Rectangle" fill="#D8D8D8" opacity="0.435971467" x="0" y="0" width="230" height="230" rx="50"></rect>
            <g id="coding" transform="translate(38.000000, 32.000000)" fill-rule="nonzero">
                <path d="M146.03441,0.2379 L7.96558984,0.2379 C3.56636328,0.2379 0,3.795 0,8.1828 L0,108.8172 C0,113.205 3.56636328,116.7621 7.96558984,116.7621 L146.03441,116.7621 C150.433637,116.7621 154,113.205 154,108.8172 L154,8.1828 C154,3.795 150.433637,0.2379 146.03441,0.2379 Z M132.758527,5.5344 L135.413824,5.5344 C136.880133,5.5344 138.069121,6.7203 138.069121,8.1828 C138.069121,9.6453 136.880133,10.8312 135.413824,10.8312 L132.758527,10.8312 C131.292219,10.8312 130.10323,9.6453 130.10323,8.1828 C130.103531,6.7203 131.292219,5.5344 132.758527,5.5344 Z M58.4138242,5.5344 L122.137941,5.5344 C123.60425,5.5344 124.793238,6.7203 124.793238,8.1828 C124.793238,9.6453 123.60425,10.8312 122.137941,10.8312 L58.4138242,10.8312 C56.9475156,10.8312 55.7585273,9.6453 55.7585273,8.1828 C55.7585273,6.7203 56.9475156,5.5344 58.4138242,5.5344 Z M45.1379414,5.5344 L47.7932383,5.5344 C49.2595469,5.5344 50.4485352,6.7203 50.4485352,8.1828 C50.4485352,9.6453 49.2595469,10.8312 47.7932383,10.8312 L45.1379414,10.8312 C43.6716328,10.8312 42.4826445,9.6453 42.4826445,8.1828 C42.4826445,6.7203 43.6716328,5.5344 45.1379414,5.5344 Z M34.5173555,5.5344 L37.1726523,5.5344 C38.6389609,5.5344 39.8279492,6.7203 39.8279492,8.1828 C39.8279492,9.6453 38.6389609,10.8312 37.1726523,10.8312 L34.5173555,10.8312 C33.0510469,10.8312 31.8620586,9.6453 31.8620586,8.1828 C31.8620586,6.7203 33.0510469,5.5344 34.5173555,5.5344 Z M23.8964688,5.5344 C25.3627773,5.5344 26.5517656,6.7203 26.5517656,8.1828 C26.5517656,9.6453 25.3627773,10.8312 23.8964688,10.8312 C22.4301602,10.8312 21.2411719,9.6453 21.2411719,8.1828 C21.2414727,6.7203 22.4301602,5.5344 23.8964688,5.5344 Z M15.9311797,5.5344 C17.3974883,5.5344 18.5864766,6.7203 18.5864766,8.1828 C18.5864766,9.6453 17.3974883,10.8312 15.9311797,10.8312 C14.4648711,10.8312 13.2758828,9.6453 13.2758828,8.1828 C13.2758828,6.7203 14.4645703,5.5344 15.9311797,5.5344 Z M7.96558984,5.5344 C9.43189844,5.5344 10.6208867,6.7203 10.6208867,8.1828 C10.6208867,9.6453 9.43189844,10.8312 7.96558984,10.8312 C6.49928125,10.8312 5.31029297,9.6453 5.31029297,8.1828 C5.31029297,6.7203 6.49928125,5.5344 7.96558984,5.5344 Z M148.689707,32.0172 L148.689707,108.8172 C148.689707,110.2797 147.500719,111.4656 146.03441,111.4656 L77,111.4656 L7.96558984,111.4656 C6.49928125,111.4656 5.31029297,110.2797 5.31029297,108.8172 L5.31029297,32.0172 L5.31029297,18.7758 C5.31029297,17.3133 6.49928125,16.1274 7.96558984,16.1274 L77,16.1274 L146.03441,16.1274 C147.500719,16.1274 148.689707,17.3133 148.689707,18.7758 L148.689707,32.0172 L148.689707,32.0172 Z M146.03441,10.8309 L143.379113,10.8309 C141.912805,10.8309 140.723816,9.645 140.723816,8.1825 C140.723816,6.72 141.912805,5.5341 143.379113,5.5341 L146.03441,5.5341 C147.500719,5.5341 148.689707,6.72 148.689707,8.1825 C148.689707,9.6453 147.500719,10.8309 146.03441,10.8309 Z" id="Shape" fill="#D2DCF0"></path>
                <path d="M77,111.4656 L146.03441,111.4656 C147.500719,111.4656 148.689707,110.2797 148.689707,108.8172 L148.689707,32.0172 L77,32.0172 L77,111.4656 Z M116.827648,45.2586 L116.827648,42.6102 C116.827648,41.1477 118.016637,39.9618 119.482945,39.9618 L138.069121,39.9618 C139.53543,39.9618 140.724418,41.1477 140.724418,42.6102 L140.724418,45.2586 L140.724418,66.4449 C140.724418,67.9074 139.53543,69.0933 138.069121,69.0933 L119.482945,69.0933 C118.016637,69.0933 116.827648,67.9074 116.827648,66.4449 L116.827648,45.2586 Z M84.9655898,45.2586 L84.9655898,42.6102 C84.9655898,41.1477 86.1545781,39.9618 87.6208867,39.9618 L106.207063,39.9618 C107.673371,39.9618 108.862359,41.1477 108.862359,42.6102 L108.862359,45.2586 L108.862359,66.4449 C108.862359,67.9074 107.673371,69.0933 106.207063,69.0933 L87.6205859,69.0933 C86.1542773,69.0933 84.9652891,67.9074 84.9652891,66.4449 L84.9652891,45.2586 L84.9655898,45.2586 Z M87.6205859,77.0379 L90.2758828,77.0379 L138.069121,77.0379 C139.53543,77.0379 140.724418,78.2238 140.724418,79.6863 L140.724418,100.8726 C140.724418,102.3351 139.53543,103.521 138.069121,103.521 L90.2758828,103.521 L87.6205859,103.521 C86.1542773,103.521 84.9652891,102.3351 84.9652891,100.8726 L84.9652891,79.6863 C84.9655898,78.2238 86.1542773,77.0379 87.6205859,77.0379 Z" id="Shape" fill="#FFFFFF"></path>
                <ellipse id="Oval" fill="#FF6469" cx="7.96558984" cy="8.1828" rx="2.65529687" ry="2.6484"></ellipse>
                <ellipse id="Oval" fill="#FFE169" cx="15.9311797" cy="8.1828" rx="2.65529687" ry="2.6484"></ellipse>
                <ellipse id="Oval" fill="#87E1AA" cx="23.8964687" cy="8.1828" rx="2.65529687" ry="2.6484"></ellipse>
                <g id="Group" transform="translate(31.582031, 5.400000)" fill="#E4EAF6">
                    <path d="M2.93532422,5.4309 L5.59062109,5.4309 C7.05692969,5.4309 8.24591797,4.245 8.24591797,2.7825 C8.24591797,1.32 7.05692969,0.1341 5.59062109,0.1341 L2.93532422,0.1341 C1.46901562,0.1341 0.280027344,1.32 0.280027344,2.7825 C0.280027344,4.2453 1.46901563,5.4309 2.93532422,5.4309 Z" id="Shape"></path>
                    <path d="M13.5559102,5.4309 L16.211207,5.4309 C17.6775156,5.4309 18.8665039,4.245 18.8665039,2.7825 C18.8665039,1.32 17.6775156,0.1341 16.211207,0.1341 L13.5559102,0.1341 C12.0896016,0.1341 10.9006133,1.32 10.9006133,2.7825 C10.9006133,4.2453 12.0896016,5.4309 13.5559102,5.4309 Z" id="Shape"></path>
                    <path d="M101.176496,5.4309 L103.831793,5.4309 C105.298102,5.4309 106.48709,4.245 106.48709,2.7825 C106.48709,1.32 105.298102,0.1341 103.831793,0.1341 L101.176496,0.1341 C99.7101875,0.1341 98.5211992,1.32 98.5211992,2.7825 C98.5215,4.2453 99.7101875,5.4309 101.176496,5.4309 Z" id="Shape"></path>
                    <path d="M114.452379,0.1344 L111.797082,0.1344 C110.330773,0.1344 109.141785,1.3203 109.141785,2.7828 C109.141785,4.2453 110.330773,5.4312 111.797082,5.4312 L114.452379,5.4312 C115.918688,5.4312 117.107676,4.2453 117.107676,2.7828 C117.107676,1.3203 115.918688,0.1344 114.452379,0.1344 Z" id="Shape"></path>
                    <path d="M26.831793,5.4309 L90.5559102,5.4309 C92.0222187,5.4309 93.211207,4.245 93.211207,2.7825 C93.211207,1.32 92.0222187,0.1341 90.5559102,0.1341 L26.831793,0.1341 C25.3654844,0.1341 24.1764961,1.32 24.1764961,2.7825 C24.1764961,4.2453 25.3654844,5.4309 26.831793,5.4309 Z" id="Shape"></path>
                </g>
                <path d="M146.03441,16.1277 L77,16.1277 L77,32.0175 L148.689707,32.0175 L148.689707,18.7761 C148.689707,17.3133 147.500719,16.1277 146.03441,16.1277 Z M95.5861758,26.7207 L84.9655898,26.7207 C83.4992812,26.7207 82.310293,25.5348 82.310293,24.0723 C82.310293,22.6098 83.4992812,21.4239 84.9655898,21.4239 L95.5861758,21.4239 C97.0524844,21.4239 98.2414727,22.6098 98.2414727,24.0723 C98.2414727,25.5348 97.0524844,26.7207 95.5861758,26.7207 Z M116.827648,26.7207 L106.207062,26.7207 C104.740754,26.7207 103.551766,25.5348 103.551766,24.0723 C103.551766,22.6098 104.740754,21.4239 106.207062,21.4239 L116.827648,21.4239 C118.293957,21.4239 119.482945,22.6098 119.482945,24.0723 C119.482945,25.5348 118.293957,26.7207 116.827648,26.7207 Z M138.06882,26.7207 L127.448234,26.7207 C125.981926,26.7207 124.792937,25.5348 124.792937,24.0723 C124.792937,22.6098 125.981926,21.4239 127.448234,21.4239 L138.06882,21.4239 C139.535129,21.4239 140.724117,22.6098 140.724117,24.0723 C140.724117,25.5348 139.53543,26.7207 138.06882,26.7207 Z" id="Shape" fill="#FF6469"></path>
                <g id="Group" transform="translate(82.113281, 21.300000)" fill="#D2555F">
                    <path d="M13.4728945,0.1242 L2.85230859,0.1242 C1.386,0.1242 0.197011719,1.3101 0.197011719,2.7726 C0.197011719,4.2351 1.386,5.421 2.85230859,5.421 L13.4728945,5.421 C14.9392031,5.421 16.1281914,4.2351 16.1281914,2.7726 C16.1281914,1.3101 14.9392031,0.1242 13.4728945,0.1242 Z" id="Shape"></path>
                    <path d="M34.7143672,0.1242 L24.0937812,0.1242 C22.6274727,0.1242 21.4384844,1.3101 21.4384844,2.7726 C21.4384844,4.2351 22.6274727,5.421 24.0937812,5.421 L34.7143672,5.421 C36.1806758,5.421 37.3696641,4.2351 37.3696641,2.7726 C37.3696641,1.3101 36.1806758,0.1242 34.7143672,0.1242 Z" id="Shape"></path>
                    <path d="M55.9555391,0.1242 L45.3349531,0.1242 C43.8686445,0.1242 42.6796563,1.3101 42.6796563,2.7726 C42.6796563,4.2351 43.8686445,5.421 45.3349531,5.421 L55.9555391,5.421 C57.4218477,5.421 58.6108359,4.2351 58.6108359,2.7726 C58.6108359,1.3101 57.4221484,0.1242 55.9555391,0.1242 Z" id="Shape"></path>
                </g>
                <g id="Group" transform="translate(84.820312, 45.000000)" fill="#DEE3ED">
                    <path d="M2.80027344,24.093 L21.3864492,24.093 C22.8527578,24.093 24.0417461,22.9071 24.0417461,21.4446 L24.0417461,0.2583 C24.0417461,1.7208 22.8527578,2.9067 21.3864492,2.9067 L2.80027344,2.9067 C1.33396484,2.9067 0.144976563,1.7208 0.144976563,0.2583 L0.144976563,21.4446 C0.145277344,22.9074 1.33396484,24.093 2.80027344,24.093 Z" id="Shape"></path>
                    <path d="M34.662332,24.093 L53.2485078,24.093 C54.7148164,24.093 55.9038047,22.9071 55.9038047,21.4446 L55.9038047,0.2583 C55.9038047,1.7208 54.7148164,2.9067 53.2485078,2.9067 L34.662332,2.9067 C33.1960234,2.9067 32.0070352,1.7208 32.0070352,0.2583 L32.0070352,21.4446 C32.0073359,22.9074 33.1960234,24.093 34.662332,24.093 Z" id="Shape"></path>
                </g>
                <path d="M87.6205859,47.907 L106.206762,47.907 C107.67307,47.907 108.862059,46.7211 108.862059,45.2586 L108.862059,42.6102 C108.862059,41.1477 107.67307,39.9618 106.206762,39.9618 L87.6205859,39.9618 C86.1542773,39.9618 84.9652891,41.1477 84.9652891,42.6102 L84.9652891,45.2586 C84.9655898,46.7211 86.1542773,47.907 87.6205859,47.907 Z" id="Shape" fill="#FF969B"></path>
                <path d="M119.482645,47.907 L138.06882,47.907 C139.535129,47.907 140.724117,46.7211 140.724117,45.2586 L140.724117,42.6102 C140.724117,41.1477 139.535129,39.9618 138.06882,39.9618 L119.482645,39.9618 C118.016336,39.9618 116.827348,41.1477 116.827348,42.6102 L116.827348,45.2586 C116.827648,46.7211 118.016336,47.907 119.482645,47.907 Z" id="Shape" fill="#A0DCF0"></path>
                <path d="M92.9311797,79.6863 L92.9311797,100.8726 C92.9311797,102.3351 91.7421914,103.521 90.2758828,103.521 L138.069121,103.521 C139.53543,103.521 140.724418,102.3351 140.724418,100.8726 L140.724418,79.6863 C140.724418,78.2238 139.53543,77.0379 138.069121,77.0379 L90.2758828,77.0379 C91.7421914,77.0379 92.9311797,78.2238 92.9311797,79.6863 Z" id="Shape" fill="#DEE3ED"></path>
                <path d="M87.6205859,103.5207 L90.2758828,103.5207 C91.7421914,103.5207 92.9311797,102.3348 92.9311797,100.8723 L92.9311797,79.686 C92.9311797,78.2235 91.7421914,77.0376 90.2758828,77.0376 L87.6205859,77.0376 C86.1542773,77.0376 84.9652891,78.2235 84.9652891,79.686 L84.9652891,100.8723 C84.9655898,102.3348 86.1542773,103.5207 87.6205859,103.5207 Z" id="Shape" fill="#91E6BE"></path>
                <path d="M77,16.1277 L7.96558984,16.1277 C6.49928125,16.1277 5.31029297,17.3136 5.31029297,18.7761 L5.31029297,32.0175 L5.31029297,108.8175 C5.31029297,110.28 6.49928125,111.4659 7.96558984,111.4659 L77,111.4659 L77,32.0172 L77,16.1277 Z M26.5517656,24.0723 L69.0344102,24.0723 C70.5007188,24.0723 71.689707,25.2582 71.689707,26.7207 C71.689707,28.1832 70.5007188,29.3691 69.0344102,29.3691 L26.5517656,29.3691 C25.085457,29.3691 23.8964687,28.1832 23.8964687,26.7207 C23.8964687,25.2582 25.085457,24.0723 26.5517656,24.0723 Z M13.2758828,24.0723 L15.9311797,24.0723 C17.3974883,24.0723 18.5864766,25.2582 18.5864766,26.7207 C18.5864766,28.1832 17.3974883,29.3691 15.9311797,29.3691 L13.2758828,29.3691 C11.8095742,29.3691 10.6205859,28.1832 10.6205859,26.7207 C10.6205859,25.2582 11.8095742,24.0723 13.2758828,24.0723 Z M39.8276484,39.9621 L31.8620586,39.9621 C30.39575,39.9621 29.2067617,38.7762 29.2067617,37.3137 C29.2067617,35.8512 30.39575,34.6653 31.8620586,34.6653 L39.8276484,34.6653 C41.293957,34.6653 42.4829453,35.8512 42.4829453,37.3137 C42.4826445,38.7762 41.293957,39.9621 39.8276484,39.9621 Z M42.4826445,47.907 C42.4826445,49.3695 41.2936563,50.5554 39.8273477,50.5554 L31.8617578,50.5554 C30.3954492,50.5554 29.2064609,49.3695 29.2064609,47.907 C29.2064609,46.4445 30.3954492,45.2586 31.8617578,45.2586 L39.8273477,45.2586 C41.293957,45.2586 42.4826445,46.4445 42.4826445,47.907 Z M13.2758828,66.4449 L15.9311797,66.4449 C17.3974883,66.4449 18.5864766,67.6308 18.5864766,69.0933 C18.5864766,70.5558 17.3974883,71.7417 15.9311797,71.7417 L13.2758828,71.7417 C11.8095742,71.7417 10.6205859,70.5558 10.6205859,69.0933 C10.6205859,67.6308 11.8095742,66.4449 13.2758828,66.4449 Z M10.6205859,58.5 C10.6205859,57.0375 11.8095742,55.8516 13.2758828,55.8516 L15.9311797,55.8516 C17.3974883,55.8516 18.5864766,57.0375 18.5864766,58.5 C18.5864766,59.9625 17.3974883,61.1484 15.9311797,61.1484 L13.2758828,61.1484 C11.8095742,61.1484 10.6205859,59.9625 10.6205859,58.5 Z M18.5861758,77.0379 L21.2414727,77.0379 C22.7077812,77.0379 23.8967695,78.2238 23.8967695,79.6863 C23.8967695,81.1488 22.7077812,82.3347 21.2414727,82.3347 L18.5861758,82.3347 C17.1198672,82.3347 15.9308789,81.1488 15.9308789,79.6863 C15.9308789,78.2238 17.1198672,77.0379 18.5861758,77.0379 Z M21.2414727,50.5551 L18.5861758,50.5551 C17.1198672,50.5551 15.9308789,49.3692 15.9308789,47.9067 C15.9308789,46.4442 17.1198672,45.2583 18.5861758,45.2583 L21.2414727,45.2583 C22.7077812,45.2583 23.8967695,46.4442 23.8967695,47.9067 C23.8967695,49.3692 22.7077812,50.5551 21.2414727,50.5551 Z M21.2414727,39.9621 L18.5861758,39.9621 C17.1198672,39.9621 15.9308789,38.7762 15.9308789,37.3137 C15.9308789,35.8512 17.1198672,34.6653 18.5861758,34.6653 L21.2414727,34.6653 C22.7077812,34.6653 23.8967695,35.8512 23.8967695,37.3137 C23.8964687,38.7762 22.7077812,39.9621 21.2414727,39.9621 Z M15.9311797,103.5207 L13.2758828,103.5207 C11.8095742,103.5207 10.6205859,102.3348 10.6205859,100.8723 C10.6205859,99.4098 11.8095742,98.2239 13.2758828,98.2239 L15.9311797,98.2239 C17.3974883,98.2239 18.5864766,99.4098 18.5864766,100.8723 C18.5861758,102.3348 17.3974883,103.5207 15.9311797,103.5207 Z M21.2414727,92.9277 L18.5861758,92.9277 C17.1198672,92.9277 15.9308789,91.7418 15.9308789,90.2793 C15.9308789,88.8168 17.1198672,87.6309 18.5861758,87.6309 L21.2414727,87.6309 C22.7077812,87.6309 23.8967695,88.8168 23.8967695,90.2793 C23.8967695,91.7418 22.7077812,92.9277 21.2414727,92.9277 Z M69.0344102,103.5207 L26.5517656,103.5207 C25.085457,103.5207 23.8964687,102.3348 23.8964687,100.8723 C23.8964687,99.4098 25.085457,98.2239 26.5517656,98.2239 L69.0344102,98.2239 C70.5007188,98.2239 71.689707,99.4098 71.689707,100.8723 C71.689707,102.3348 70.5007188,103.5207 69.0344102,103.5207 Z M31.8620586,87.6309 L39.8276484,87.6309 C41.293957,87.6309 42.4829453,88.8168 42.4829453,90.2793 C42.4829453,91.7418 41.293957,92.9277 39.8276484,92.9277 L31.8620586,92.9277 C30.39575,92.9277 29.2067617,91.7418 29.2067617,90.2793 C29.2067617,88.8168 30.39575,87.6309 31.8620586,87.6309 Z M29.2067617,79.6863 C29.2067617,78.2238 30.39575,77.0379 31.8620586,77.0379 L39.8276484,77.0379 C41.293957,77.0379 42.4829453,78.2238 42.4829453,79.6863 C42.4829453,81.1488 41.293957,82.3347 39.8276484,82.3347 L31.8620586,82.3347 C30.39575,82.3344 29.2067617,81.1488 29.2067617,79.6863 Z M69.0344102,92.9277 L50.4482344,92.9277 C48.9819258,92.9277 47.7929375,91.7418 47.7929375,90.2793 C47.7929375,88.8168 48.9819258,87.6309 50.4482344,87.6309 L69.0344102,87.6309 C70.5007187,87.6309 71.689707,88.8168 71.689707,90.2793 C71.689707,91.7418 70.5007187,92.9277 69.0344102,92.9277 Z M69.0344102,82.3344 L50.4482344,82.3344 C48.9819258,82.3344 47.7929375,81.1485 47.7929375,79.686 C47.7929375,78.2235 48.9819258,77.0376 50.4482344,77.0376 L69.0344102,77.0376 C70.5007187,77.0376 71.689707,78.2235 71.689707,79.686 C71.689707,81.1485 70.5007187,82.3344 69.0344102,82.3344 Z M69.0344102,71.7414 L26.5517656,71.7414 C25.085457,71.7414 23.8964687,70.5555 23.8964687,69.093 C23.8964687,67.6305 25.085457,66.4446 26.5517656,66.4446 L69.0344102,66.4446 C70.5007188,66.4446 71.689707,67.6305 71.689707,69.093 C71.689707,70.5555 70.5007188,71.7414 69.0344102,71.7414 Z M69.0344102,61.1484 L26.5517656,61.1484 C25.085457,61.1484 23.8964687,59.9625 23.8964687,58.5 C23.8964687,57.0375 25.085457,55.8516 26.5517656,55.8516 L69.0344102,55.8516 C70.5007188,55.8516 71.689707,57.0375 71.689707,58.5 C71.689707,59.9625 70.5007188,61.1484 69.0344102,61.1484 Z M69.0344102,50.5551 L50.4482344,50.5551 C48.9819258,50.5551 47.7929375,49.3692 47.7929375,47.9067 C47.7929375,46.4442 48.9819258,45.2583 50.4482344,45.2583 L69.0344102,45.2583 C70.5007187,45.2583 71.689707,46.4442 71.689707,47.9067 C71.689707,49.3692 70.5007187,50.5551 69.0344102,50.5551 Z M69.0344102,39.9621 L50.4482344,39.9621 C48.9819258,39.9621 47.7929375,38.7762 47.7929375,37.3137 C47.7929375,35.8512 48.9819258,34.6653 50.4482344,34.6653 L69.0344102,34.6653 C70.5007187,34.6653 71.689707,35.8512 71.689707,37.3137 C71.689707,38.7762 70.5007187,39.9621 69.0344102,39.9621 Z" id="Shape" fill="#464655"></path>
                <path d="M26.5517656,29.3691 L69.0344102,29.3691 C70.5007187,29.3691 71.689707,28.1832 71.689707,26.7207 C71.689707,25.2582 70.5007187,24.0723 69.0344102,24.0723 L26.5517656,24.0723 C25.085457,24.0723 23.8964687,25.2582 23.8964687,26.7207 C23.8964687,28.1832 25.085457,29.3691 26.5517656,29.3691 Z" id="Shape" fill="#FFE169"></path>
                <g id="Group" transform="translate(29.175781, 34.500000)" fill="#91E6BE">
                    <path d="M10.6518672,0.1656 L2.68627734,0.1656 C1.21996875,0.1656 0.0309804687,1.3515 0.0309804687,2.814 C0.0309804687,4.2765 1.21996875,5.4624 2.68627734,5.4624 L10.6518672,5.4624 C12.1181758,5.4624 13.3071641,4.2765 13.3071641,2.814 C13.3068633,1.3512 12.1181758,0.1656 10.6518672,0.1656 Z" id="Shape"></path>
                    <path d="M10.6518672,10.7586 L2.68627734,10.7586 C1.21996875,10.7586 0.0309804687,11.9445 0.0309804687,13.407 C0.0309804687,14.8695 1.21996875,16.0554 2.68627734,16.0554 L10.6518672,16.0554 C12.1181758,16.0554 13.3071641,14.8695 13.3071641,13.407 C13.3071641,11.9445 12.1181758,10.7586 10.6518672,10.7586 Z" id="Shape"></path>
                </g>
                <path d="M69.0344102,55.8516 L26.5517656,55.8516 C25.085457,55.8516 23.8964688,57.0375 23.8964688,58.5 C23.8964688,59.9625 25.085457,61.1484 26.5517656,61.1484 L69.0344102,61.1484 C70.5007188,61.1484 71.689707,59.9625 71.689707,58.5 C71.689707,57.0375 70.5007188,55.8516 69.0344102,55.8516 Z" id="Shape" fill="#FFE169"></path>
                <g id="Group" transform="translate(23.761719, 34.500000)" fill="#FFFFFF">
                    <path d="M45.2726914,31.9449 L2.79004687,31.9449 C1.32373828,31.9449 0.13475,33.1308 0.13475,34.5933 C0.13475,36.0558 1.32373828,37.2417 2.79004687,37.2417 L45.2726914,37.2417 C46.739,37.2417 47.9279883,36.0558 47.9279883,34.5933 C47.9279883,33.1308 46.739,31.9449 45.2726914,31.9449 Z" id="Shape"></path>
                    <path d="M45.2726914,0.1656 L26.6865156,0.1656 C25.220207,0.1656 24.0312188,1.3515 24.0312188,2.814 C24.0312188,4.2765 25.220207,5.4624 26.6865156,5.4624 L45.2726914,5.4624 C46.739,5.4624 47.9279883,4.2765 47.9279883,2.814 C47.9279883,1.3512 46.739,0.1656 45.2726914,0.1656 Z" id="Shape"></path>
                    <path d="M45.2726914,10.7586 L26.6865156,10.7586 C25.220207,10.7586 24.0312188,11.9445 24.0312188,13.407 C24.0312188,14.8695 25.220207,16.0554 26.6865156,16.0554 L45.2726914,16.0554 C46.739,16.0554 47.9279883,14.8695 47.9279883,13.407 C47.9279883,11.9445 46.739,10.7586 45.2726914,10.7586 Z" id="Shape"></path>
                    <path d="M45.2726914,42.5379 L26.6865156,42.5379 C25.220207,42.5379 24.0312188,43.7238 24.0312188,45.1863 C24.0312188,46.6488 25.220207,47.8347 26.6865156,47.8347 L45.2726914,47.8347 C46.739,47.8347 47.9279883,46.6488 47.9279883,45.1863 C47.9279883,43.7238 46.739,42.5379 45.2726914,42.5379 Z" id="Shape"></path>
                    <path d="M45.2726914,53.1309 L26.6865156,53.1309 C25.220207,53.1309 24.0312188,54.3168 24.0312188,55.7793 C24.0312188,57.2418 25.220207,58.4277 26.6865156,58.4277 L45.2726914,58.4277 C46.739,58.4277 47.9279883,57.2418 47.9279883,55.7793 C47.9279883,54.3168 46.739,53.1309 45.2726914,53.1309 Z" id="Shape"></path>
                </g>
                <g id="Group" transform="translate(29.175781, 76.800000)" fill="#91E6BE">
                    <path d="M2.68627734,5.5344 L10.6518672,5.5344 C12.1181758,5.5344 13.3071641,4.3485 13.3071641,2.886 C13.3071641,1.4235 12.1181758,0.2376 10.6518672,0.2376 L2.68627734,0.2376 C1.21996875,0.2376 0.0309804687,1.4235 0.0309804687,2.886 C0.0309804687,4.3485 1.21996875,5.5344 2.68627734,5.5344 Z" id="Shape"></path>
                    <path d="M2.68627734,16.1277 L10.6518672,16.1277 C12.1181758,16.1277 13.3071641,14.9418 13.3071641,13.4793 C13.3071641,12.0168 12.1181758,10.8309 10.6518672,10.8309 L2.68627734,10.8309 C1.21996875,10.8309 0.0309804687,12.0168 0.0309804687,13.4793 C0.0309804687,14.9418 1.21996875,16.1277 2.68627734,16.1277 Z" id="Shape"></path>
                </g>
                <path d="M69.0344102,98.2242 L26.5517656,98.2242 C25.085457,98.2242 23.8964688,99.4101 23.8964688,100.8726 C23.8964688,102.3351 25.085457,103.521 26.5517656,103.521 L69.0344102,103.521 C70.5007188,103.521 71.689707,102.3351 71.689707,100.8726 C71.689707,99.4098 70.5007188,98.2242 69.0344102,98.2242 Z" id="Shape" fill="#FFE169"></path>
                <g id="Group" transform="translate(10.527344, 24.000000)" fill="#FF6469">
                    <path d="M2.74853906,5.3691 L5.40383594,5.3691 C6.87014453,5.3691 8.05913281,4.1832 8.05913281,2.7207 C8.05913281,1.2582 6.87014453,0.0723 5.40383594,0.0723 L2.74853906,0.0723 C1.28223047,0.0723 0.0932421875,1.2582 0.0932421875,2.7207 C0.0932421875,4.1832 1.28223047,5.3691 2.74853906,5.3691 Z" id="Shape"></path>
                    <path d="M10.7141289,10.6656 L8.05883203,10.6656 C6.59252344,10.6656 5.40353516,11.8515 5.40353516,13.314 C5.40353516,14.7765 6.59252344,15.9624 8.05883203,15.9624 L10.7141289,15.9624 C12.1804375,15.9624 13.3694258,14.7765 13.3694258,13.314 C13.369125,11.8512 12.1804375,10.6656 10.7141289,10.6656 Z" id="Shape"></path>
                    <path d="M10.7141289,21.2586 L8.05883203,21.2586 C6.59252344,21.2586 5.40353516,22.4445 5.40353516,23.907 C5.40353516,25.3695 6.59252344,26.5554 8.05883203,26.5554 L10.7141289,26.5554 C12.1804375,26.5554 13.3694258,25.3695 13.3694258,23.907 C13.3694258,22.4445 12.1804375,21.2586 10.7141289,21.2586 Z" id="Shape"></path>
                    <path d="M2.74853906,37.1484 L5.40383594,37.1484 C6.87014453,37.1484 8.05913281,35.9625 8.05913281,34.5 C8.05913281,33.0375 6.87014453,31.8516 5.40383594,31.8516 L2.74853906,31.8516 C1.28223047,31.8516 0.0932421875,33.0375 0.0932421875,34.5 C0.0932421875,35.9625 1.28223047,37.1484 2.74853906,37.1484 Z" id="Shape"></path>
                    <path d="M2.74853906,47.7414 L5.40383594,47.7414 C6.87014453,47.7414 8.05913281,46.5555 8.05913281,45.093 C8.05913281,43.6305 6.87014453,42.4446 5.40383594,42.4446 L2.74853906,42.4446 C1.28223047,42.4446 0.0932421875,43.6305 0.0932421875,45.093 C0.0932421875,46.5555 1.28223047,47.7414 2.74853906,47.7414 Z" id="Shape"></path>
                    <path d="M8.05883203,58.3344 L10.7141289,58.3344 C12.1804375,58.3344 13.3694258,57.1485 13.3694258,55.686 C13.3694258,54.2235 12.1804375,53.0376 10.7141289,53.0376 L8.05883203,53.0376 C6.59252344,53.0376 5.40353516,54.2235 5.40353516,55.686 C5.40353516,57.1485 6.59252344,58.3344 8.05883203,58.3344 Z" id="Shape"></path>
                    <path d="M10.7141289,63.6309 L8.05883203,63.6309 C6.59252344,63.6309 5.40353516,64.8168 5.40353516,66.2793 C5.40353516,67.7418 6.59252344,68.9277 8.05883203,68.9277 L10.7141289,68.9277 C12.1804375,68.9277 13.3694258,67.7418 13.3694258,66.2793 C13.3694258,64.8168 12.1804375,63.6309 10.7141289,63.6309 Z" id="Shape"></path>
                    <path d="M5.40383594,74.2242 L2.74853906,74.2242 C1.28223047,74.2242 0.0932421875,75.4101 0.0932421875,76.8726 C0.0932421875,78.3351 1.28223047,79.521 2.74853906,79.521 L5.40383594,79.521 C6.87014453,79.521 8.05913281,78.3351 8.05913281,76.8726 C8.05883203,75.4098 6.87014453,74.2242 5.40383594,74.2242 Z" id="Shape"></path>
                </g>
            </g>
            <text id="Live" font-family="LeagueSpartan-Bold, League Spartan" font-size="25.7999992" font-weight="bold" fill="#3D3780">
                <tspan x="87.6434761" y="202">Live</tspan>
            </text>
        </g>
    </g>
</svg>