<?xml version="1.0" encoding="UTF-8"?>
<svg width="216px" height="42px" viewBox="0 0 216 42" version="1.1" xmlns="http://www.w3.org/2000/svg" xmlns:xlink="http://www.w3.org/1999/xlink">
    <!-- Generator: Sketch 47.1 (45422) - http://www.bohemiancoding.com/sketch -->
    <title>logoSite</title>
    <desc>Created with Sketch.</desc>
    <defs></defs>
    <g id="Page-1" stroke="none" stroke-width="1" fill="none" fill-rule="evenodd">
        <g id="logoSite" transform="translate(1.000000, -7.000000)">
            <g id="Lider-Copy-16" transform="translate(0.000000, 9.191489)" fill-rule="nonzero">
                <path d="M0.0123435694,21.0623184 L0.0198816709,0 L2.58588424,0 C2.58588424,0 2.58600611,1.34078261 2.58606705,2.01117392 L2.58779871,21.0623184 C2.58779871,21.9559744 2.8314204,22.4968634 3.31867111,22.6850015 C3.68990974,22.8261051 4.1655521,22.8966558 4.74561247,22.8966558 L15.3954675,22.8966558 L15.3954675,25.5070591 L4.74561247,25.5070591 C3.42307484,25.5070591 2.35577978,25.27189 1.54369527,24.8015447 C0.522789032,24.2136131 0.0123435694,22.9672168 0.0123435694,21.0623184 Z M26.0065033,19.5631003 C25.8324852,18.5400993 25.7454774,17.3877706 25.7454774,16.1060797 C25.7454774,14.8243888 25.8208841,13.6720601 25.9716998,12.6490591 C26.1225155,11.6260581 26.3951398,10.6207102 26.7895809,9.63298508 C27.6480702,7.53994856 29.33022,6.493446 31.8360808,6.493446 C32.6945701,6.493446 33.7850672,6.62278901 35.1076049,6.88147892 C36.4301425,7.14016882 37.6134479,7.48116404 38.6575565,7.9044748 L38.6424315,0 L41.1984455,0 L41.1982082,25.5070591 L39.3536255,25.5070591 L38.6575565,23.4257916 C38.0774962,23.8491024 37.0624058,24.3370783 35.6122549,24.889734 C34.162104,25.4423897 32.8685888,25.7187134 31.7316704,25.7187134 C30.5947521,25.7187134 29.6086643,25.4365105 28.7733774,24.8720961 C27.9380905,24.3076818 27.3116347,23.5375029 26.8939912,22.5615365 C26.4763477,21.58557 26.1805214,20.5861013 26.0065033,19.5631003 Z M28.3209326,16.2295447 C28.3209326,20.8154112 29.4926369,23.1083101 31.8360808,23.1083101 C33.7618812,23.1083101 36.0356837,22.5674212 38.6575565,21.485627 L38.6575565,10.021018 C36.3373151,9.40956913 34.0635126,9.10384928 31.8360808,9.10384928 C30.6295552,9.10384928 29.7420762,9.60946287 29.173617,10.6207052 C28.6051579,11.6319476 28.3209326,13.5015421 28.3209326,16.2295447 Z M45.2943063,16.0531661 C45.2943063,13.9836469 45.4335187,12.3198254 45.7119477,11.0616517 C45.9903767,9.8034781 46.4950216,8.85104318 47.2258977,8.20431842 C47.9567737,7.55759365 48.7688461,7.13428924 49.662139,6.9343925 C50.555432,6.73449575 51.7155353,6.63454888 53.1424838,6.63454888 C54.5694323,6.63454888 55.6425279,6.69334116 56.3618027,6.81092748 C57.0810776,6.9285138 57.7887406,7.19895828 58.484813,7.62226904 C59.1808855,8.04557979 59.6797299,8.71581177 59.9813613,9.63298508 C60.2829927,10.5501584 60.4338061,11.7612793 60.4338061,13.2663842 C60.4338061,16.1354905 58.8444646,17.5700221 55.6657338,17.5700221 L47.8697615,17.5700221 C47.8697615,19.7571277 48.1133832,21.2210554 48.6006339,21.9618492 C49.0878846,22.702643 50.0159672,23.0730344 51.3849097,23.0730344 C55.6077491,23.0730344 58.5080074,22.9554498 60.0857716,22.7202772 L60.0857716,24.6957175 C57.7887326,25.3542009 54.8884743,25.6834377 51.3849097,25.6834377 C49.0414658,25.6834377 47.4405232,25.0014472 46.5820339,23.6374459 C45.7235446,22.2734446 45.2943063,19.7453766 45.2943063,16.0531661 Z M47.8697615,14.9948945 L55.6657338,14.9948945 C57.1274859,14.9948945 57.858351,14.4187302 57.858351,13.2663842 C57.858351,11.4555549 57.5973277,10.3326224 57.0752734,9.89755298 C56.5532191,9.46248359 55.3293101,9.24495216 53.4035097,9.24495216 C51.013661,9.24495216 49.5867339,9.49187973 49.1226856,9.98574228 C48.473018,10.6912602 48.1017849,11.4673183 48.0089752,12.3139398 C47.9161656,13.1605613 47.8697615,14.0542039 47.8697615,14.9948945 Z M64.1818697,25.5070591 L64.1818697,6.77565176 L65.991649,6.77565176 L66.7573248,9.139125 C68.5207084,8.05733084 69.6344075,7.44001192 70.0984558,7.2871497 C70.5625041,7.13428748 70.9801413,6.99906524 71.35138,6.88147892 C72.0474524,6.66982354 72.940732,6.56399744 74.0312454,6.56399744 C75.1217589,6.56399744 75.852624,6.65806508 76.2238626,6.8462032 L76.2238626,9.42133076 C75.6670047,9.28022717 74.8781344,9.20967644 73.8572282,9.20967644 C72.836322,9.20967644 71.9256408,9.30374408 71.1251575,9.4918822 C70.3246742,9.68002031 69.6866174,9.87991406 69.2109679,10.0915694 C68.7353184,10.3032248 67.9174456,10.6912539 66.7573248,11.2556682 L66.7573248,25.5070591 L64.1818697,25.5070591 Z" id="L-der" stroke="#3D3780" fill="#3D3780"></path>
                <path d="M22.1821398,0.83449916 L22.1821398,2.73938804 C22.1821398,3.32731964 21.903715,3.62128104 21.3468571,3.62128104 L19.6066847,3.62128104 C19.0730291,3.62128104 18.8062054,3.32731964 18.8062054,2.73938804 L18.8062054,0.83449916 C18.8062054,0.293602082 19.0730291,0.0231576 19.6066847,0.0231576 L21.3468571,0.0231576 C21.903715,0.0231576 22.1821398,0.293602082 22.1821398,0.83449916 Z M21.7872861,6.8838164 L21.9994687,25.5830376 L18.9382189,25.5830376 L19.1311316,6.8838164 L21.7872861,6.8838164 Z" id="i" stroke="#E21430" fill="#E21430" transform="translate(20.494173, 12.803098) scale(-1, 1) rotate(-180.000000) translate(-20.494173, -12.803098) "></path>
                <g id="AdditionalText" transform="translate(0.000000, 29.762718)" stroke="#FFFFFF" fill="#FFFFFF">
                    <g id="Koło" transform="translate(0.067277, 0.024827)">
                        <path d="M0.00503542252,2.72311104 L0.00503542252,0.180654224 L0.258618697,0.180654224 L0.258618697,1.31989717 L0.53961638,1.31989717 L1.32778061,0.180654224 L1.6361927,0.180654224 L0.772638849,1.44840933 L1.6361927,2.72311104 L1.32778061,2.72311104 L0.53961638,1.57692149 L0.262045498,1.57692149 L0.262045498,2.72311104 L0.00503542252,2.72311104 Z M3.66946363,2.53555275 C3.55295182,2.39893554 3.49469678,2.15349134 3.49469678,1.7992128 C3.49469678,1.44493426 3.55295182,1.20006894 3.66946363,1.0646095 C3.78597545,0.929150055 3.99615048,0.86142135 4.29999502,0.86142135 C4.60383956,0.86142135 4.81287233,0.930307811 4.92709961,1.0680828 C5.04132688,1.20585779 5.09843966,1.45303862 5.09843966,1.8096327 C5.09843966,2.16622679 5.04132688,2.41051323 4.92709961,2.54249935 C4.81287233,2.67448548 4.60383956,2.74047755 4.29999502,2.74047755 C3.99615048,2.74047755 3.78597545,2.67216997 3.66946363,2.53555275 Z M3.77055426,1.4987722 C3.75570472,1.58560518 3.74828006,1.69964411 3.74828006,1.84089242 C3.74828006,1.98214073 3.75913149,2.09791629 3.78083467,2.18822258 C3.80253785,2.27852888 3.84023228,2.34452095 3.8939191,2.38620078 C3.94760592,2.42788061 4.00243419,2.45450899 4.05840555,2.46608672 C4.11437691,2.47766445 4.1943348,2.48345323 4.29828162,2.48345323 C4.40222844,2.48345323 4.48332858,2.47766445 4.54158449,2.46608672 C4.5998404,2.45450899 4.65466867,2.42730173 4.70607094,2.38446413 C4.75747321,2.34162653 4.79345426,2.27563446 4.81401517,2.18648593 C4.83457608,2.09733741 4.84485638,1.97403644 4.84485638,1.81657931 C4.84485638,1.65912218 4.83628947,1.53292681 4.81915537,1.43798943 C4.80202128,1.34305204 4.76832474,1.27185007 4.71806474,1.22438137 C4.66780475,1.17691268 4.6135476,1.14738991 4.5552917,1.13581218 C4.49703579,1.12423445 4.41764903,1.11844567 4.31712903,1.11844567 C4.21660903,1.11844567 4.14122016,1.12191894 4.09096016,1.12886558 C4.04070016,1.13581222 3.99044091,1.15202079 3.94018091,1.1774918 C3.88992092,1.20296281 3.85279761,1.24116874 3.82880988,1.29211076 C3.80482215,1.34305277 3.78540381,1.41193923 3.77055426,1.4987722 Z M7.08651968,2.06665703 L7.08651968,0.00351583944 L7.34010296,0.00351583944 L7.34010296,2.06665703 C7.34010296,2.20790533 7.35609453,2.30573569 7.38807817,2.36015102 C7.42006181,2.41456635 7.4691788,2.4498779 7.53543061,2.46608672 C7.72276334,2.51471318 7.82442409,2.53902605 7.8404159,2.53902605 L7.8404159,2.72311104 L7.53885742,2.72311104 C7.23729742,2.72311104 7.08651968,2.50429522 7.08651968,2.06665703 Z M9.81800135,2.53555275 C9.70148953,2.39893554 9.6432345,2.15349134 9.6432345,1.7992128 C9.6432345,1.44493426 9.70148953,1.20006894 9.81800135,1.0646095 C9.93451317,0.929150055 10.1446882,0.86142135 10.4485327,0.86142135 C10.7523773,0.86142135 10.9614101,0.930307811 11.0756373,1.0680828 C11.1898646,1.20585779 11.2469774,1.45303862 11.2469774,1.8096327 C11.2469774,2.16622679 11.1898646,2.41051323 11.0756373,2.54249935 C10.9614101,2.67448548 10.7523773,2.74047755 10.4485327,2.74047755 C10.1446882,2.74047755 9.93451317,2.67216997 9.81800135,2.53555275 Z M9.91909198,1.4987722 C9.90424244,1.58560518 9.89681777,1.69964411 9.89681777,1.84089242 C9.89681777,1.98214073 9.9076692,2.09791629 9.92937238,2.18822258 C9.95107557,2.27852888 9.98877,2.34452095 10.0424568,2.38620078 C10.0961436,2.42788061 10.1509719,2.45450899 10.2069433,2.46608672 C10.2629146,2.47766445 10.3428725,2.48345323 10.4468193,2.48345323 C10.5507662,2.48345323 10.6318663,2.47766445 10.6901222,2.46608672 C10.7483781,2.45450899 10.8032064,2.42730173 10.8546087,2.38446413 C10.9060109,2.34162653 10.941992,2.27563446 10.9625529,2.18648593 C10.9831138,2.09733741 10.9933941,1.97403644 10.9933941,1.81657931 C10.9933941,1.65912218 10.9848272,1.53292681 10.9676931,1.43798943 C10.950559,1.34305204 10.9168625,1.27185007 10.8666025,1.22438137 C10.8163425,1.17691268 10.7620853,1.14738991 10.7038294,1.13581218 C10.6455735,1.12423445 10.5661867,1.11844567 10.4656667,1.11844567 C10.3651467,1.11844567 10.2897579,1.12191894 10.2394979,1.12886558 C10.1892379,1.13581222 10.1389786,1.15202079 10.0887186,1.1774918 C10.0384586,1.20296281 10.0013353,1.24116874 9.9773476,1.29211076 C9.95335987,1.34305277 9.93394153,1.41193923 9.91909198,1.4987722 Z" id="Kolo"></path>
                    </g>
                    <path d="M15.6535484,2.74793837 L15.6535484,0.205481551 L15.9139853,0.205481551 L17.2504377,2.26862274 L17.2504377,0.205481551 L17.504021,0.205481551 L17.504021,2.74793837 L17.2504377,2.74793837 L15.9105585,0.68479718 L15.9105585,2.74793837 L15.6535484,2.74793837 Z M19.4625449,0.973081218 C19.7092758,0.903614838 20.0085467,0.868882168 20.3603667,0.868882168 C20.5088622,0.868882168 20.6316547,0.912876883 20.7287478,1.00086763 C20.825841,1.08885838 20.8743869,1.22315803 20.8743869,1.40377062 L20.8743869,2.74793837 L20.6859128,2.74793837 L20.6208036,2.52564706 L20.5694016,2.54996017 C20.2724107,2.69583957 20.0359638,2.76877818 19.8600538,2.76877818 C19.7298347,2.76877818 19.6213204,2.72825673 19.5345077,2.64721262 C19.447695,2.56616851 19.4042892,2.45386621 19.4042892,2.31030236 L19.4042892,2.09843096 C19.4042892,1.95718265 19.4448393,1.84488035 19.5259407,1.7615207 C19.607042,1.67816104 19.718412,1.63648184 19.8600538,1.63648184 L20.6208036,1.63648184 C20.6230881,1.56006882 20.6242304,1.50275991 20.6242304,1.4645534 C20.6242304,1.42634689 20.6230881,1.40608617 20.6208036,1.40377062 C20.6208036,1.21389585 20.5225696,1.11895989 20.3260987,1.11895989 C20.1296278,1.11895989 19.8417794,1.13285296 19.4625449,1.16063951 L19.4625449,0.973081218 Z M19.6578725,2.29293585 C19.6578725,2.43881525 19.7252656,2.51175385 19.8600538,2.51175385 C19.9422974,2.51175385 20.0468138,2.49670303 20.1736061,2.46660093 C20.3003983,2.43649883 20.4071992,2.40755494 20.494012,2.37976839 L20.6208036,2.33461547 L20.6208036,1.83793333 L19.8600538,1.89350616 C19.7915174,1.9004528 19.740687,1.92476567 19.7075611,1.96644549 C19.6744352,2.00812532 19.6578725,2.05906657 19.6578725,2.11927077 L19.6578725,2.29293585 Z M22.7746551,2.1887368 L22.7746551,0.903615185 L23.0282384,0.903615185 L23.0282384,2.1887368 C23.0282384,2.29756746 23.0567948,2.38034699 23.1139084,2.43707787 C23.1710221,2.49380875 23.2441264,2.52217376 23.3332237,2.52217376 C23.422321,2.52217376 23.5057056,2.51291171 23.5833802,2.49438735 C23.6610547,2.47586298 23.7233076,2.45676001 23.7701408,2.43707787 C23.816974,2.41739573 23.8963608,2.37976867 24.0083035,2.32419556 L24.0083035,0.903615185 L24.2618868,0.903615185 L24.2618868,2.74793837 L24.0836931,2.74793837 L24.0083035,2.53259366 C24.0014499,2.53490921 23.9763202,2.54938116 23.9329139,2.57600994 C23.8895075,2.60263871 23.8626645,2.61826842 23.8523841,2.62289951 C23.8421036,2.6275306 23.8175451,2.64084479 23.7787078,2.66284248 C23.7398706,2.68484016 23.7124564,2.69815435 23.6964646,2.70278545 C23.6804728,2.70741654 23.6542009,2.71667858 23.6176482,2.73057186 C23.5810955,2.74446514 23.5513968,2.75372718 23.5285514,2.75835827 C23.4554459,2.77225155 23.3914796,2.77919808 23.3366505,2.77919808 C23.163025,2.77919808 23.0259544,2.7213103 22.9254344,2.605533 C22.8249144,2.4897557 22.7746551,2.35082502 22.7746551,2.1887368 Z M26.2306911,2.74793837 L26.2306911,0.0318164678 L26.4842743,0.0318164678 L26.4842743,1.5600692 L26.6213464,1.5600692 L27.316987,0.903615185 L27.6699475,0.903615185 L26.8612224,1.68858136 L27.6699475,2.74793837 L27.3546818,2.74793837 L26.6213464,1.81709352 L26.4842743,1.81709352 L26.4842743,2.74793837 L26.2306911,2.74793837 Z M29.5393745,2.56038008 C29.4228627,2.42376286 29.3646077,2.17831867 29.3646077,1.82404013 C29.3646077,1.46976158 29.4228627,1.22489627 29.5393745,1.08943682 C29.6558863,0.953977382 29.8660614,0.886248677 30.1699059,0.886248677 C30.4737505,0.886248677 30.6827832,0.955135137 30.7970105,1.09291013 C30.9112378,1.23068511 30.9683505,1.47786594 30.9683505,1.83446003 C30.9683505,2.19105412 30.9112378,2.43534056 30.7970105,2.56732668 C30.6827832,2.6993128 30.4737505,2.76530488 30.1699059,2.76530488 C29.8660614,2.76530488 29.6558863,2.69699729 29.5393745,2.56038008 Z M29.6404652,1.52359953 C29.6256156,1.61043251 29.6181909,1.72447144 29.6181909,1.86571975 C29.6181909,2.00696805 29.6290424,2.12274362 29.6507456,2.21304991 C29.6724487,2.30335621 29.7101432,2.36934828 29.76383,2.41102811 C29.8175168,2.45270793 29.8723451,2.47933631 29.9283164,2.49091404 C29.9842878,2.50249177 30.0642457,2.50828055 30.1681925,2.50828055 C30.2721393,2.50828055 30.3532395,2.50249177 30.4114954,2.49091404 C30.4697513,2.47933631 30.5245796,2.45212906 30.5759818,2.40929146 C30.6273841,2.36645385 30.6633652,2.30046178 30.6839261,2.21131326 C30.704487,2.12216474 30.7147673,1.99886376 30.7147673,1.84140663 C30.7147673,1.6839495 30.7062004,1.55775414 30.6890663,1.46281675 C30.6719322,1.36787937 30.6382356,1.29667739 30.5879756,1.2492087 C30.5377156,1.20174001 30.4834585,1.17221724 30.4252026,1.16063951 C30.3669467,1.14906178 30.2875599,1.143273 30.1870399,1.143273 C30.0865199,1.143273 30.011131,1.14674627 29.960871,1.1536929 C29.910611,1.16063954 29.8603518,1.17684812 29.8100918,1.20231913 C29.7598318,1.22779013 29.7227085,1.26599607 29.6987208,1.31693808 C29.674733,1.3678801 29.6553147,1.43676656 29.6404652,1.52359953 Z M32.6630107,0.903615185 L32.9405816,0.903615185 L33.4785894,2.36934849 L33.9514879,0.903615185 L34.225632,0.903615185 L34.0405847,1.49407647 L34.4380937,2.36934849 L34.9932354,0.903615185 L35.2708063,0.903615185 L34.5751657,2.74793837 L34.3215824,2.74793837 L33.9172199,1.84487994 L33.6190882,2.74793837 L33.3449441,2.74793837 L32.6630107,0.903615185 Z M36.9997345,1.81709352 C36.9997345,1.61332547 37.0134416,1.44950305 37.0408561,1.32562134 C37.0682707,1.20173962 37.1179588,1.10796142 37.189922,1.0442839 C37.2618852,0.980606387 37.341843,0.938927184 37.429798,0.919245042 C37.517753,0.899562901 37.6319786,0.889721978 37.7724781,0.889721978 C37.9129777,0.889721978 38.0186363,0.895510757 38.0894572,0.907088487 C38.1602781,0.918666217 38.2299557,0.945294597 38.2984921,0.986974425 C38.3670285,1.02865425 38.4161455,1.09464632 38.4458445,1.18495262 C38.4755436,1.27525891 38.490393,1.39450775 38.490393,1.54270269 C38.490393,1.82519931 38.3339039,1.96644549 38.0209212,1.96644549 L37.2533178,1.96644549 C37.2533178,2.18179127 37.2773052,2.32593185 37.3252806,2.39887155 C37.3732561,2.47181125 37.4646365,2.50828055 37.5994247,2.50828055 C38.015212,2.50828055 38.3007759,2.496703 38.4561249,2.47354754 L38.4561249,2.66805243 C38.229955,2.73288772 37.9443911,2.76530488 37.5994247,2.76530488 C37.3686856,2.76530488 37.2110543,2.69815505 37.1265262,2.56385338 C37.041998,2.42955171 36.9997345,2.18063425 36.9997345,1.81709352 Z M37.2533178,1.71289447 L38.0209212,1.71289447 C38.1648476,1.71289447 38.2368097,1.65616445 38.2368097,1.54270269 C38.2368097,1.36440565 38.2111089,1.25383998 38.1597067,1.21100238 C38.1083044,1.16816478 37.9877964,1.1467463 37.7981792,1.1467463 C37.562871,1.1467463 37.4223735,1.17105917 37.3766826,1.21968564 C37.3127154,1.28915202 37.2761632,1.36556389 37.267025,1.44892355 C37.2578868,1.5322832 37.2533178,1.62027263 37.2533178,1.71289447 Z" id="Naukowe"></path>
                    <path d="M42.9073252,2.74793837 L42.9073252,0.205481551 L43.1609085,0.205481551 L43.1609085,2.74793837 L42.9073252,2.74793837 Z M45.1297128,2.74793837 L45.1297128,0.903615185 L45.3079064,0.903615185 L45.3832961,1.11895989 C45.3901497,1.11664434 45.4152793,1.1021724 45.4586857,1.07554362 C45.5020921,1.04891484 45.5289351,1.03328514 45.5392155,1.02865404 C45.549496,1.02402295 45.5740545,1.01070876 45.6128917,0.988711076 C45.651729,0.966713388 45.6791431,0.953399199 45.695135,0.948768107 C45.7111268,0.944137015 45.7373987,0.934874969 45.7739514,0.920981693 C45.8105041,0.907088417 45.8402028,0.897826372 45.8630482,0.89319528 C45.9361537,0.879302004 46.00012,0.87235547 46.0549491,0.87235547 C46.2285745,0.87235547 46.3656452,0.930243252 46.4661652,1.04602055 C46.5666852,1.16179785 46.6169444,1.30072853 46.6169444,1.46281675 L46.6169444,2.74793837 L46.3633612,2.74793837 L46.3633612,1.46281675 C46.3633612,1.35398609 46.3348048,1.27120656 46.2776911,1.21447568 C46.2205775,1.15774481 46.1474731,1.12937979 46.0583759,1.12937979 C45.9692786,1.12937979 45.8858939,1.13864184 45.8082194,1.15716621 C45.7305448,1.17569057 45.6682919,1.19479354 45.6214587,1.21447568 C45.5746256,1.23415782 45.4952388,1.27178488 45.3832961,1.32735799 L45.3832961,2.74793837 L45.1297128,2.74793837 Z M48.3801406,1.16063951 L48.3801406,0.962661313 L48.7125403,0.903615185 L48.7125403,0.55975832 C48.7125403,0.372199093 48.7445235,0.235583927 48.8084908,0.149908724 C48.8359053,0.115175534 48.8775976,0.0844950095 48.933569,0.0578662303 C48.9895404,0.0312374511 49.0723539,0.0179232612 49.1820121,0.0179232612 C49.2916703,0.0179232612 49.4355945,0.0457093966 49.613789,0.101282501 L49.613789,0.271474283 L49.1922925,0.268000981 C49.0872034,0.268000981 49.0220948,0.295787116 48.9969648,0.351360221 C48.9764039,0.399986687 48.9661236,0.469452026 48.9661236,0.55975832 L48.9661236,0.903615185 L49.4732902,0.903615185 L49.4732902,1.16063951 L48.9661236,1.16063951 L48.9661236,2.74793837 L48.7125403,2.74793837 L48.7125403,1.16063951 L48.3801406,1.16063951 Z M51.4832161,2.56038008 C51.3667042,2.42376286 51.3084492,2.17831867 51.3084492,1.82404013 C51.3084492,1.46976158 51.3667042,1.22489627 51.4832161,1.08943682 C51.5997279,0.953977382 51.8099029,0.886248677 52.1137474,0.886248677 C52.417592,0.886248677 52.6266248,0.955135137 52.740852,1.09291013 C52.8550793,1.23068511 52.9121921,1.47786594 52.9121921,1.83446003 C52.9121921,2.19105412 52.8550793,2.43534056 52.740852,2.56732668 C52.6266248,2.6993128 52.417592,2.76530488 52.1137474,2.76530488 C51.8099029,2.76530488 51.5997279,2.69699729 51.4832161,2.56038008 Z M51.5843067,1.52359953 C51.5694571,1.61043251 51.5620325,1.72447144 51.5620325,1.86571975 C51.5620325,2.00696805 51.5728839,2.12274362 51.5945871,2.21304991 C51.6162903,2.30335621 51.6539847,2.36934828 51.7076715,2.41102811 C51.7613583,2.45270793 51.8161866,2.47933631 51.872158,2.49091404 C51.9281293,2.50249177 52.0080872,2.50828055 52.112034,2.50828055 C52.2159809,2.50828055 52.297081,2.50249177 52.3553369,2.49091404 C52.4135928,2.47933631 52.4684211,2.45212906 52.5198234,2.40929146 C52.5712256,2.36645385 52.6072067,2.30046178 52.6277676,2.21131326 C52.6483285,2.12216474 52.6586088,1.99886376 52.6586088,1.84140663 C52.6586088,1.6839495 52.6500419,1.55775414 52.6329078,1.46281675 C52.6157737,1.36787937 52.5820772,1.29667739 52.5318172,1.2492087 C52.4815572,1.20174001 52.4273,1.17221724 52.3690441,1.16063951 C52.3107882,1.14906178 52.2314015,1.143273 52.1308815,1.143273 C52.0303615,1.143273 51.9549726,1.14674627 51.9047126,1.1536929 C51.8544526,1.16063954 51.8041933,1.17684812 51.7539333,1.20231913 C51.7036733,1.22779013 51.66655,1.26599607 51.6425623,1.31693808 C51.6185746,1.3678801 51.5991562,1.43676656 51.5843067,1.52359953 Z M54.8467284,2.74793837 L54.8467284,0.903615185 L55.024922,0.903615185 L55.1003116,1.1363264 C55.2739371,1.02981128 55.3835936,0.969029108 55.4292845,0.953978059 C55.4749754,0.93892701 55.5160966,0.92561282 55.5526494,0.91403509 C55.6211857,0.893195176 55.7091394,0.882775375 55.816513,0.882775375 C55.9238867,0.882775375 55.9958488,0.89203742 56.0324015,0.910561788 L56.0324015,1.16411281 C55.9775724,1.15021953 55.899899,1.143273 55.799379,1.143273 C55.698859,1.143273 55.609192,1.15253504 55.5303752,1.17105941 C55.4515583,1.18958378 55.3887343,1.20926563 55.3419011,1.23010554 C55.2950679,1.25094546 55.2145389,1.28915139 55.1003116,1.3447245 L55.1003116,2.74793837 L54.8467284,2.74793837 Z M57.8641337,2.74793837 L57.8641337,0.903615185 L58.0423274,0.903615185 L58.117717,1.12590649 C58.1314243,1.11664431 58.1594095,1.09985685 58.2016736,1.07554362 C58.2439377,1.05123038 58.2736364,1.03386405 58.2907705,1.02344409 C58.3079046,1.01302414 58.3353187,0.99855219 58.3730137,0.980027822 C58.4107087,0.961503453 58.4421207,0.948768141 58.4672507,0.941821503 L58.5529207,0.910561788 C58.6077498,0.89203742 58.6854232,0.882775375 58.7859432,0.882775375 C58.8864632,0.882775375 58.9824127,0.907088243 59.0737945,0.95571471 C59.1651763,1.00434118 59.2302849,1.07033325 59.2691222,1.1536929 C59.4838694,0.973080315 59.7283121,0.882775375 60.0024576,0.882775375 C60.1623757,0.882775375 60.2960197,0.938347646 60.4033933,1.04949385 C60.5107669,1.16064006 60.5644529,1.30304401 60.5644529,1.47670996 L60.5644529,2.74793837 L60.3108697,2.74793837 L60.3108697,1.47670996 C60.3108697,1.37482593 60.2817421,1.29320416 60.2234862,1.23184219 C60.1652303,1.17048022 60.0915548,1.1397997 60.0024576,1.1397997 C59.8653848,1.1397997 59.7471614,1.15369277 59.6477837,1.18147932 C59.5484059,1.20926587 59.4427473,1.26020712 59.3308046,1.33430459 L59.3308046,2.74793837 L59.0772213,2.74793837 L59.0772213,1.47670996 C59.0772213,1.37482593 59.0480938,1.29320416 58.9898379,1.23184219 C58.931582,1.17048022 58.8584776,1.1397997 58.7705226,1.1397997 C58.6825676,1.1397997 58.6014675,1.14906174 58.5272197,1.16758611 C58.452972,1.18611048 58.3952881,1.20405569 58.3541663,1.22142229 C58.3130445,1.23878888 58.2342288,1.27641594 58.117717,1.33430459 L58.117717,2.74793837 L57.8641337,2.74793837 Z M62.4887088,0.973081218 C62.7354397,0.903614838 63.0347107,0.868882168 63.3865307,0.868882168 C63.5350261,0.868882168 63.6578186,0.912876883 63.7549118,1.00086763 C63.852005,1.08885838 63.9005508,1.22315803 63.9005508,1.40377062 L63.9005508,2.74793837 L63.7120768,2.74793837 L63.6469675,2.52564706 L63.5955655,2.54996017 C63.2985746,2.69583957 63.0621277,2.76877818 62.8862177,2.76877818 C62.7559986,2.76877818 62.6474843,2.72825673 62.5606716,2.64721262 C62.4738589,2.56616851 62.4304532,2.45386621 62.4304532,2.31030236 L62.4304532,2.09843096 C62.4304532,1.95718265 62.4710033,1.84488035 62.5521046,1.7615207 C62.633206,1.67816104 62.7445759,1.63648184 62.8862177,1.63648184 L63.6469675,1.63648184 C63.6492521,1.56006882 63.6503943,1.50275991 63.6503943,1.4645534 C63.6503943,1.42634689 63.6492521,1.40608617 63.6469675,1.40377062 C63.6469675,1.21389585 63.5487336,1.11895989 63.3522627,1.11895989 C63.1557917,1.11895989 62.8679433,1.13285296 62.4887088,1.16063951 L62.4887088,0.973081218 Z M62.6840365,2.29293585 C62.6840365,2.43881525 62.7514295,2.51175385 62.8862177,2.51175385 C62.9684614,2.51175385 63.0729777,2.49670303 63.19977,2.46660093 C63.3265623,2.43649883 63.4333632,2.40755494 63.5201759,2.37976839 L63.6469675,2.33461547 L63.6469675,1.83793333 L62.8862177,1.89350616 C62.8176814,1.9004528 62.766851,1.92476567 62.7337251,1.96644549 C62.7005992,2.00812532 62.6840365,2.05906657 62.6840365,2.11927077 L62.6840365,2.29293585 Z M65.698015,1.15716621 L65.698015,0.962661313 L66.0372683,0.900141883 L66.0989508,0.386093237 L66.2908516,0.386093237 L66.2908516,0.900141883 L66.8220058,0.900141883 L66.8220058,1.15716621 L66.2908516,1.15716621 L66.2908516,2.08801105 C66.2908516,2.22925936 66.3068432,2.32708971 66.3388268,2.38150504 C66.3708105,2.43592037 66.4199275,2.47123192 66.4861793,2.48744074 C66.673512,2.53606721 66.7751727,2.56038008 66.7911646,2.56038008 L66.7911646,2.74446507 L66.4896061,2.74446507 C66.1880461,2.74446507 66.0372683,2.52564925 66.0372683,2.08801105 L66.0372683,1.15716621 L65.698015,1.15716621 Z M68.5543608,0.903615185 L68.8319317,0.903615185 L69.273989,2.34503537 C69.2899808,2.39134629 69.3054013,2.42144794 69.3202508,2.43534122 C69.3351004,2.44923449 69.3482363,2.46023317 69.359659,2.46833758 C69.3710817,2.47644199 69.3825043,2.4816519 69.393927,2.48396744 C69.4053498,2.48628299 69.4162012,2.48801962 69.4264816,2.48917739 C69.4367621,2.49033517 69.4464713,2.49091404 69.4556094,2.49091404 C69.4761704,2.48628295 69.4910197,2.48280969 69.5001579,2.48049414 L70.0210316,0.903615185 L70.3054561,0.903615185 L69.5035847,3.33145305 L69.2465746,3.68572982 L69.0889417,3.68572982 L69.411061,2.74793837 C69.2145901,2.74793837 69.0775195,2.62058525 68.9998449,2.36587518 L68.5543608,0.903615185 Z M72.1440419,2.74793837 L72.1440419,0.0318164678 L72.3976252,0.0318164678 L72.3976252,1.5600692 L72.5346973,1.5600692 L73.2303379,0.903615185 L73.5832984,0.903615185 L72.7745733,1.68858136 L73.5832984,2.74793837 L73.2680327,2.74793837 L72.5346973,1.81709352 L72.3976252,1.81709352 L72.3976252,2.74793837 L72.1440419,2.74793837 Z M75.3807626,0.604911242 L75.3807626,0.417352952 C75.3807626,0.359464302 75.4081767,0.330520411 75.4630058,0.330520411 L75.6343459,0.330520411 C75.6868904,0.330520411 75.7131623,0.359464302 75.7131623,0.417352952 L75.7131623,0.604911242 C75.7131623,0.6581688 75.6868904,0.68479718 75.6343459,0.68479718 L75.4630058,0.68479718 C75.4081767,0.68479718 75.3807626,0.6581688 75.3807626,0.604911242 Z M75.4150306,2.74793837 L75.4150306,0.903615185 L75.6686139,0.903615185 L75.6686139,2.74793837 L75.4150306,2.74793837 Z" id="Informatyki"></path>
                </g>
            </g>
            <g id="LogoOrgOutlines-Copy-3" transform="translate(155.292805, 28.608770) rotate(4.000000) translate(-155.292805, -28.608770) translate(95.292805, 5.108770)">
                <g id="LogoBottom" transform="translate(59.753296, 23.048415) rotate(2.000000) translate(-59.753296, -23.048415) translate(0.753296, 2.048415)">
                    <g id="Days" transform="translate(69.686137, 1.000000)">
                        <g id="Bg" transform="translate(0.029428, 0.006847)">
                            <g id="Group-9" transform="translate(0.000000, 0.570278)">
                                <g id="BgAdd" transform="translate(39.315080, 29.338482) rotate(180.000000) translate(-39.315080, -29.338482) translate(32.815080, 24.338482)">
                                    <g id="path-1-link" transform="translate(3.000000, 1.000000)" fill-rule="nonzero" fill="#3D3780">
                                        <polygon id="path-1" points="8.7745005 0.7593208 8.3017168 7.5791611 0.0405802 6.530227"></polygon>
                                    </g>
                                    <polygon id="Shape" stroke="#FFFFFF" stroke-width="1.48294103" points="12.6179975 0.313274 11.9871188 9.4136117 0.9635276 8.0139228"></polygon>
                                </g>
                                <g id="BgMain">
                                    <g id="path-2-link" transform="translate(1.000000, 1.000000)" fill-rule="nonzero" fill="#3D3780">
                                        <polygon id="path-2" points="0.150125018 7.80163731 44.6690963 0.0193753052 44.5396415 24.5448003 0.0206702098 32.0982567"></polygon>
                                    </g>
                                    <polygon id="Shape" stroke="#FFFFFF" stroke-width="1.59218967" points="0.357586712 8.13201242 46.4702073 0.07116815 46.3321951 26.2178014 0.219537551 34.0416557"></polygon>
                                </g>
                            </g>
                        </g>
                        <g id="Text" transform="translate(10.143800, 11.704854)" fill-rule="nonzero">
                            <g id="Days">
                                <g id="path-3-link" fill="#000000">
                                    <path d="M0.152744199,3.7669764 L3.23996318,3.32185111 C4.23461119,3.17843952 4.96814535,3.32590593 5.44058766,3.76425479 C5.91302997,4.20260364 6.21945556,4.91418545 6.35987361,5.89902156 C6.42788861,6.37605155 6.45711295,6.88222346 6.44754752,7.41755247 C6.42965353,8.77071148 6.15391843,9.83516505 5.62033392,10.6109451 C5.08674941,11.3867252 4.2537854,11.8562425 3.12141689,12.019511 L0.0227212614,12.4662911 L0.152744199,3.7669764 Z M3.07661032,10.9659292 C3.84172418,10.8556126 4.39436379,10.4873671 4.73454573,9.86118159 C5.07472768,9.2349961 5.25274987,8.40252647 5.26861767,7.36374774 C5.27708608,6.8207247 5.25938024,6.39533891 5.2154996,6.08757763 C5.11896218,5.4105028 4.91267429,4.93574956 4.59662972,4.66330365 C4.28058515,4.39085775 3.78592019,4.30317542 3.11261999,4.40025403 L1.27635592,4.66501257 L1.19443964,11.2373067 L3.07661032,10.9659292 Z M10.3169842,2.30146316 L11.7859954,2.08965633 L14.4447986,10.386869 L13.2512269,10.558962 L12.5549129,8.3861573 L9.29554415,8.85610371 L8.51137026,11.24237 L7.32927526,11.4128083 L10.3169842,2.30146316 Z M12.2805733,7.36567031 L11.0257909,3.24752901 L9.59503709,7.75287967 L12.2805733,7.36567031 Z M17.1560166,7.25162532 L14.5937024,1.68483198 L15.856134,1.50281049 L17.7423,5.85970774 L19.9303449,0.915377479 L21.2386831,0.72673702 L18.3151583,7.08449649 L18.2739275,9.83477269 L17.1147858,10.0019015 L17.1560166,7.25162532 Z M23.4236939,9.0981517 C22.9279875,9.12643715 22.5183555,9.12857161 22.1947856,9.10455513 L22.2041552,8.18450098 C22.909185,8.14566512 23.7628366,8.05399119 24.7651357,7.90947643 C25.3389711,7.82673897 25.763561,7.68307332 26.0389181,7.47847517 C26.3142751,7.27387702 26.4507427,6.94404329 26.4483249,6.4889641 L26.4611953,6.00420031 C26.4545573,5.84811333 26.4473988,5.74314231 26.4397197,5.68928408 C26.4002271,5.41229892 26.2834441,5.22301983 26.0893671,5.12144112 C25.8952902,5.01986241 25.5993265,4.9977557 25.2014673,5.05512034 L24.2833353,5.18749961 C23.6941976,5.2724434 23.2214027,5.20123799 22.8649364,4.97388124 C22.5084701,4.74652449 22.2940386,4.37894857 22.2216355,3.87114245 C22.2007922,3.72495584 22.1903288,3.56942278 22.1902449,3.40453861 L22.2029894,2.67244979 C22.214609,1.87770189 22.4293737,1.28923833 22.8472899,0.907041466 C23.2652061,0.5248446 23.8834909,0.274730533 24.7021627,0.156691761 C25.0464639,0.107049287 25.4689227,0.0716570783 25.9695518,0.0505140741 C26.4701808,0.0293710699 26.9014016,0.028049912 27.2632272,0.0465505608 L27.2538576,0.966604709 C26.4111074,1.02529756 25.5727578,1.11476519 24.7387837,1.23501029 C24.2491108,1.30561292 23.8879161,1.44210107 23.6551888,1.64447882 C23.4224615,1.84685658 23.303483,2.1761317 23.2982497,2.63231406 L23.2968559,3.11542311 C23.2903578,3.23414309 23.2942392,3.34351265 23.3085004,3.44353507 C23.346896,3.71282619 23.452744,3.89386683 23.6260476,3.9866624 C23.7993511,4.07945798 24.0543241,4.10158578 24.3909742,4.05304647 L25.3320596,3.91735772 C25.9747552,3.82469177 26.4828025,3.89670345 26.8562166,4.13339491 C27.2296307,4.37008637 27.4530845,4.74617654 27.5265846,5.26167669 C27.5452338,5.39247524 27.5556973,5.5480083 27.5579752,5.72828054 L27.5551038,6.5296153 C27.5434562,7.26940181 27.3240293,7.82516622 26.8968164,8.1969252 C26.4696035,8.56868419 25.8045899,8.81964672 24.9017555,8.94982031 C24.4120827,9.02042294 23.9194004,9.06986624 23.4236939,9.0981517 Z" id="path-3"></path>
                                </g>
                                <g id="path-3-link" fill="#FFFFFF">
                                    <path d="M0.152744199,3.7669764 L3.23996318,3.32185111 C4.23461119,3.17843952 4.96814535,3.32590593 5.44058766,3.76425479 C5.91302997,4.20260364 6.21945556,4.91418545 6.35987361,5.89902156 C6.42788861,6.37605155 6.45711295,6.88222346 6.44754752,7.41755247 C6.42965353,8.77071148 6.15391843,9.83516505 5.62033392,10.6109451 C5.08674941,11.3867252 4.2537854,11.8562425 3.12141689,12.019511 L0.0227212614,12.4662911 L0.152744199,3.7669764 Z M3.07661032,10.9659292 C3.84172418,10.8556126 4.39436379,10.4873671 4.73454573,9.86118159 C5.07472768,9.2349961 5.25274987,8.40252647 5.26861767,7.36374774 C5.27708608,6.8207247 5.25938024,6.39533891 5.2154996,6.08757763 C5.11896218,5.4105028 4.91267429,4.93574956 4.59662972,4.66330365 C4.28058515,4.39085775 3.78592019,4.30317542 3.11261999,4.40025403 L1.27635592,4.66501257 L1.19443964,11.2373067 L3.07661032,10.9659292 Z M10.3169842,2.30146316 L11.7859954,2.08965633 L14.4447986,10.386869 L13.2512269,10.558962 L12.5549129,8.3861573 L9.29554415,8.85610371 L8.51137026,11.24237 L7.32927526,11.4128083 L10.3169842,2.30146316 Z M12.2805733,7.36567031 L11.0257909,3.24752901 L9.59503709,7.75287967 L12.2805733,7.36567031 Z M17.1560166,7.25162532 L14.5937024,1.68483198 L15.856134,1.50281049 L17.7423,5.85970774 L19.9303449,0.915377479 L21.2386831,0.72673702 L18.3151583,7.08449649 L18.2739275,9.83477269 L17.1147858,10.0019015 L17.1560166,7.25162532 Z M23.4236939,9.0981517 C22.9279875,9.12643715 22.5183555,9.12857161 22.1947856,9.10455513 L22.2041552,8.18450098 C22.909185,8.14566512 23.7628366,8.05399119 24.7651357,7.90947643 C25.3389711,7.82673897 25.763561,7.68307332 26.0389181,7.47847517 C26.3142751,7.27387702 26.4507427,6.94404329 26.4483249,6.4889641 L26.4611953,6.00420031 C26.4545573,5.84811333 26.4473988,5.74314231 26.4397197,5.68928408 C26.4002271,5.41229892 26.2834441,5.22301983 26.0893671,5.12144112 C25.8952902,5.01986241 25.5993265,4.9977557 25.2014673,5.05512034 L24.2833353,5.18749961 C23.6941976,5.2724434 23.2214027,5.20123799 22.8649364,4.97388124 C22.5084701,4.74652449 22.2940386,4.37894857 22.2216355,3.87114245 C22.2007922,3.72495584 22.1903288,3.56942278 22.1902449,3.40453861 L22.2029894,2.67244979 C22.214609,1.87770189 22.4293737,1.28923833 22.8472899,0.907041466 C23.2652061,0.5248446 23.8834909,0.274730533 24.7021627,0.156691761 C25.0464639,0.107049287 25.4689227,0.0716570783 25.9695518,0.0505140741 C26.4701808,0.0293710699 26.9014016,0.028049912 27.2632272,0.0465505608 L27.2538576,0.966604709 C26.4111074,1.02529756 25.5727578,1.11476519 24.7387837,1.23501029 C24.2491108,1.30561292 23.8879161,1.44210107 23.6551888,1.64447882 C23.4224615,1.84685658 23.303483,2.1761317 23.2982497,2.63231406 L23.2968559,3.11542311 C23.2903578,3.23414309 23.2942392,3.34351265 23.3085004,3.44353507 C23.346896,3.71282619 23.452744,3.89386683 23.6260476,3.9866624 C23.7993511,4.07945798 24.0543241,4.10158578 24.3909742,4.05304647 L25.3320596,3.91735772 C25.9747552,3.82469177 26.4828025,3.89670345 26.8562166,4.13339491 C27.2296307,4.37008637 27.4530845,4.74617654 27.5265846,5.26167669 C27.5452338,5.39247524 27.5556973,5.5480083 27.5579752,5.72828054 L27.5551038,6.5296153 C27.5434562,7.26940181 27.3240293,7.82516622 26.8968164,8.1969252 C26.4696035,8.56868419 25.8045899,8.81964672 24.9017555,8.94982031 C24.4120827,9.02042294 23.9194004,9.06986624 23.4236939,9.0981517 Z" id="path-3"></path>
                                </g>
                            </g>
                        </g>
                    </g>
                    <g id="Workshop" transform="translate(0.000000, 0.866415)">
                        <g id="Bg">
                            <g id="BgAdd" transform="translate(2.000000, 5.000000)">
                                <g id="path-5-link" transform="translate(3.000000, 1.000000)" fill-rule="nonzero" fill="#3D3780">
                                    <polygon id="path-5" points="10.1636514 0.72961573 10.1636514 6.1477756 0.31960604 6.8391455"></polygon>
                                </g>
                                <polygon id="Shape" stroke="#FFFFFF" stroke-width="1.59218967" points="13.9597462 0.29857916 13.9597462 7.8899198 0.16733259 8.8585928"></polygon>
                            </g>
                            <g id="BgMain">
                                <g id="path-6-link" transform="translate(1.000000, 1.000000)" fill-rule="nonzero" fill="#3D3780">
                                    <polygon id="path-6" points="-1.24344979e-14 12.6507646 71.8262912 0.665947124 71.8262912 26.4484117 -1.24344979e-14 39.0375057"></polygon>
                                </g>
                                <polygon id="Shape" stroke="#FFFFFF" stroke-width="1.59218967" points="0.203905166 12.9764986 73.622386 0.726010967 73.622386 28.1171094 0.203905166 40.9852687"></polygon>
                            </g>
                        </g>
                        <g id="Text" transform="translate(5.017337, 12.159445)" fill-rule="nonzero">
                            <g id="Workshop">
                                <g id="path-7-link" fill="#000000">
                                    <path d="M0.0305957577,9.16051276 L1.23505115,8.98265613 L3.03520367,15.6929898 L4.8140043,8.45416784 L5.92669166,8.28986219 L7.4744821,15.037461 L9.51711582,7.75968004 L10.7101002,7.58351728 L8.20050654,16.6389386 L6.98458015,16.8184891 L5.35986154,10.105818 L3.49739502,17.3334264 L2.28146863,17.5129769 L0.0305957577,9.16051276 Z M13.7684019,15.6753435 C13.3467016,15.5962049 12.999369,15.3843196 12.7263939,15.0396812 C12.4534187,14.6950429 12.2669623,14.1805155 12.167019,13.4960836 C12.0827971,12.9193151 12.0513325,12.2758453 12.0726242,11.5656551 C12.0802833,10.4411063 12.2009106,9.55521118 12.4345095,8.90794328 C12.6681084,8.26067539 13.0255956,7.7797375 13.5069816,7.46511521 C13.9883676,7.15049292 14.6381854,6.93276994 15.4564544,6.81193975 C16.0529496,6.72385793 16.5647938,6.72487168 16.9920023,6.81498101 C17.4192108,6.90509035 17.7745247,7.13150897 18.0579546,7.49424367 C18.3413845,7.85697837 18.5341912,8.38824397 18.6363804,9.0880564 C18.7093727,9.58792242 18.7402759,10.2275471 18.7290908,11.0069495 C18.7149072,12.1403179 18.5879831,13.0232148 18.3483145,13.6556668 C18.108646,14.2881189 17.7502633,14.7495491 17.2731558,15.0399714 C16.7960483,15.3303937 16.1483697,15.5360169 15.3301007,15.6568471 C14.7106634,15.7483167 14.1901023,15.7544821 13.7684019,15.6753435 Z M16.6571415,14.1116157 C16.9634127,13.8817724 17.1866573,13.5247488 17.3268818,13.0405344 C17.4671063,12.55632 17.5437196,11.8772511 17.556724,11.0033071 C17.5714913,10.3019364 17.545748,9.72439739 17.4794934,9.27067285 C17.4143618,8.82463855 17.2971967,8.49038601 17.1279944,8.26790519 C16.9587922,8.04542438 16.7396438,7.9088821 16.4705428,7.85827428 C16.2014417,7.80766646 15.8565936,7.81341695 15.435988,7.87552593 C14.8930245,7.95570297 14.4684134,8.11071084 14.1621422,8.34055418 C13.8558709,8.57039753 13.6282946,8.93788064 13.4794064,9.44301454 C13.3305182,9.94814844 13.252942,10.6607474 13.2466754,11.5808328 C13.2265067,12.2987133 13.2461804,12.8614367 13.3056972,13.2690197 C13.3685829,13.6996735 13.4796785,14.0191104 13.6389875,14.22734 C13.7982964,14.4355696 14.0141293,14.5627815 14.2864926,14.6089796 C14.5588558,14.6551776 14.9206296,14.6449638 15.3718246,14.5783378 C15.9224356,14.4970315 16.3508702,14.3414591 16.6571415,14.1116157 Z M20.5327389,6.13305141 L23.6528519,5.67231803 C24.2952313,5.57746069 24.8319683,5.65532211 25.2630791,5.90590464 C25.6941898,6.15648716 25.9625202,6.64321271 26.0680783,7.36609588 C26.0972752,7.56604229 26.1085832,7.803979 26.1020025,8.07991315 C26.0908174,8.85931562 25.9397248,9.42957938 25.6487202,9.79072154 C25.3577155,10.1518637 25.0053913,10.4140366 24.5917368,10.577248 L26.2363839,13.9756599 L25.0663415,14.1484349 L23.5501999,10.9078079 L21.618018,11.1577725 L21.5791564,14.6633722 L20.432056,14.8327595 L20.5327389,6.13305141 Z M23.5743552,9.94973336 C24.0179028,9.88423662 24.3536749,9.72270734 24.5816813,9.46514068 C24.8096876,9.20757401 24.9263394,8.77594714 24.9316401,8.17024711 C24.9287542,7.98998368 24.9172048,7.83064213 24.8969915,7.6922177 C24.7880645,6.94626379 24.3474153,6.63031891 23.5750305,6.74437357 L21.6593729,7.02725031 L21.6357555,10.2359978 L23.5743552,9.94973336 Z M27.9963566,5.03093179 L29.1434569,4.86154452 L29.100822,8.66230251 L30.4773425,8.45903779 L32.619171,4.3483011 L33.8121554,4.17213834 L31.4053649,8.87585088 L33.8835376,12.8464383 L32.7249662,13.0175195 L30.5257021,9.51246073 L29.0803556,9.72588869 L29.042774,13.5612526 L27.8956737,13.7306399 L27.9963566,5.03093179 Z M36.4384079,12.4750639 C35.9427997,12.5050398 35.5331772,12.5085713 35.2095283,12.4856585 L35.2157948,11.5655777 C35.9206895,11.5243375 36.7740271,11.4297527 37.7758331,11.2818204 C38.3493861,11.1971264 38.773489,11.0520135 39.0481545,10.8464774 C39.3228199,10.6409413 39.4581743,10.3106441 39.4542217,9.85557574 L39.4654571,9.37077083 C39.4582927,9.21470739 39.4507803,9.10976139 39.4429195,9.05592966 C39.402493,8.77908079 39.2850723,8.59020107 39.0906539,8.48928485 C38.8962355,8.38836863 38.600199,8.36727144 38.2025355,8.42599265 L37.2848553,8.56150247 C36.6960075,8.64845504 36.2229751,8.57886251 35.8657441,8.35272281 C35.508513,8.1265831 35.2928431,7.75974062 35.2187278,7.25218435 C35.1973916,7.10606967 35.1864037,6.95057319 35.1857636,6.78569025 L35.1960391,6.05356218 C35.2049782,5.25877922 35.417757,4.66958658 35.8343819,4.2859666 C36.2510067,3.90234662 36.8684443,3.65012532 37.6867134,3.52929513 C38.0308452,3.4784787 38.4531822,3.44164589 38.9537371,3.4187956 C39.4542919,3.39594531 39.8855058,3.39315348 40.2473916,3.41042001 L40.2411251,4.33050082 C39.3985776,4.39206754 38.5605346,4.48439387 37.7269708,4.60748257 C37.2375389,4.67975483 36.8768066,4.81747405 36.6447632,5.02064437 C36.4127198,5.22381468 36.2948525,5.55349368 36.2911577,6.00969126 L36.2913933,6.49280229 C36.2852955,6.61154375 36.2895458,6.72089944 36.3041443,6.82087265 C36.3434479,7.09003128 36.4499058,7.27070987 36.6235214,7.36291386 C36.7971369,7.45511785 37.0521831,7.47637593 37.3886675,7.42668875 L38.3292898,7.28779119 C38.9716693,7.19293385 39.4799565,7.2632124 39.8541667,7.49862897 C40.2283769,7.73404554 40.4530978,8.10937145 40.528336,8.62461796 C40.5474263,8.75535215 40.5584143,8.91084863 40.5613002,9.09111206 L40.5611314,9.89245201 C40.5519789,10.632274 40.3344276,11.1887836 39.9084709,11.5619974 C39.4825143,11.9352113 38.8183509,12.1884404 37.9159607,12.3216924 C37.4265288,12.3939647 36.9340161,12.445088 36.4384079,12.4750639 Z M42.2009186,2.93340655 L43.348019,2.76401928 L43.309073,6.67028895 L47.1977432,6.09606611 L47.2481603,2.18810256 L48.4067317,2.01702142 L48.3060488,10.7167295 L47.1474774,10.8878106 L47.1887478,7.15795841 L43.2886066,7.73387512 L43.2473361,11.4637274 L42.1002358,11.6331146 L42.2009186,2.93340655 Z M51.7403375,10.0681947 C51.3186371,9.98905606 50.9713045,9.77717077 50.6983294,9.43253244 C50.4253543,9.0878941 50.2388978,8.57336668 50.1389545,7.88893475 C50.0547326,7.31216626 50.023268,6.66869654 50.0445597,5.9585063 C50.0522189,4.83395746 50.1728461,3.94806238 50.406445,3.30079448 C50.640044,2.65352658 50.9975311,2.1725887 51.4789171,1.85796641 C51.9603032,1.54334411 52.6101209,1.32562114 53.42839,1.20479095 C54.0248851,1.11670913 54.5367293,1.11772287 54.9639378,1.20783221 C55.3911463,1.29794155 55.7464602,1.52436017 56.0298901,1.88709487 C56.31332,2.24982957 56.5061267,2.78109516 56.6083159,3.48090759 C56.6813082,3.98077361 56.7122114,4.62039826 56.7010263,5.39980073 C56.6868427,6.53316907 56.5599186,7.41606601 56.3202501,8.04851804 C56.0805815,8.68097008 55.7221989,9.14240032 55.2450913,9.43282262 C54.7679838,9.72324492 54.1203052,9.92886808 53.3020362,10.0496983 C52.6825989,10.1411679 52.1620379,10.1473333 51.7403375,10.0681947 Z M54.629077,8.50446691 C54.9353483,8.27462356 55.1585928,7.91760004 55.2988173,7.43338564 C55.4390419,6.94917124 55.5156552,6.27010225 55.5286595,5.39615832 C55.5434268,4.69478757 55.5176835,4.11724859 55.451429,3.66352405 C55.3862974,3.21748975 55.2691322,2.88323721 55.09993,2.66075639 C54.9307277,2.43827557 54.7115794,2.3017333 54.4424783,2.25112548 C54.1733773,2.20051766 53.8285291,2.20626815 53.4079236,2.26837712 C52.86496,2.34855417 52.440349,2.50356203 52.1340777,2.73340538 C51.8278065,2.96324873 51.6002302,3.33073184 51.451342,3.83586574 C51.3024538,4.34099964 51.2248775,5.05359861 51.218611,5.97368402 C51.1984422,6.69156451 51.2181159,7.25428785 51.2776327,7.66187092 C51.3405184,8.09252472 51.4516141,8.41196162 51.610923,8.6201912 C51.770232,8.82842078 51.9860648,8.95563269 52.2584281,9.00183077 C52.5307914,9.04802884 52.8925651,9.03781503 53.3437602,8.97118904 C53.8943711,8.88988274 54.3228058,8.73431025 54.629077,8.50446691 Z M58.5046744,0.525902602 L61.7624395,0.0448427568 C62.3895241,-0.04775608 62.9055119,0.0351332779 63.3104183,0.293513317 C63.7153247,0.551893357 63.9722376,1.0540528 64.0811646,1.80000671 C64.1114845,2.00764336 64.1218828,2.2928501 64.1123599,2.65563547 C64.1063067,3.63068186 63.8915879,4.35371212 63.4681972,4.82474795 C63.0448065,5.29578378 62.5119294,5.57872612 61.86955,5.67358346 C61.1736389,5.77634559 60.4125233,5.83374453 59.5861802,5.84578201 L59.5510919,9.05622342 L58.4039915,9.22561069 L58.5046744,0.525902602 Z M61.5786148,4.64419654 C61.9992204,4.58208756 62.3313429,4.39556536 62.5749922,4.08462433 C62.8186414,3.7736833 62.9431146,3.31536965 62.9484152,2.70966962 C62.9516271,2.41066473 62.9442494,2.19964347 62.9262821,2.07659953 C62.8678882,1.67670671 62.7362033,1.40351787 62.5312235,1.25702479 C62.3262436,1.11053172 62.0440446,1.06382335 61.6846181,1.1168983 L59.6313084,1.42010151 L59.5941312,4.93723651 L61.5786148,4.64419654 Z" id="path-7"></path>
                                </g>
                                <g id="path-7-link" fill="#FFFFFF">
                                    <path d="M0.0305957577,9.16051276 L1.23505115,8.98265613 L3.03520367,15.6929898 L4.8140043,8.45416784 L5.92669166,8.28986219 L7.4744821,15.037461 L9.51711582,7.75968004 L10.7101002,7.58351728 L8.20050654,16.6389386 L6.98458015,16.8184891 L5.35986154,10.105818 L3.49739502,17.3334264 L2.28146863,17.5129769 L0.0305957577,9.16051276 Z M13.7684019,15.6753435 C13.3467016,15.5962049 12.999369,15.3843196 12.7263939,15.0396812 C12.4534187,14.6950429 12.2669623,14.1805155 12.167019,13.4960836 C12.0827971,12.9193151 12.0513325,12.2758453 12.0726242,11.5656551 C12.0802833,10.4411063 12.2009106,9.55521118 12.4345095,8.90794328 C12.6681084,8.26067539 13.0255956,7.7797375 13.5069816,7.46511521 C13.9883676,7.15049292 14.6381854,6.93276994 15.4564544,6.81193975 C16.0529496,6.72385793 16.5647938,6.72487168 16.9920023,6.81498101 C17.4192108,6.90509035 17.7745247,7.13150897 18.0579546,7.49424367 C18.3413845,7.85697837 18.5341912,8.38824397 18.6363804,9.0880564 C18.7093727,9.58792242 18.7402759,10.2275471 18.7290908,11.0069495 C18.7149072,12.1403179 18.5879831,13.0232148 18.3483145,13.6556668 C18.108646,14.2881189 17.7502633,14.7495491 17.2731558,15.0399714 C16.7960483,15.3303937 16.1483697,15.5360169 15.3301007,15.6568471 C14.7106634,15.7483167 14.1901023,15.7544821 13.7684019,15.6753435 Z M16.6571415,14.1116157 C16.9634127,13.8817724 17.1866573,13.5247488 17.3268818,13.0405344 C17.4671063,12.55632 17.5437196,11.8772511 17.556724,11.0033071 C17.5714913,10.3019364 17.545748,9.72439739 17.4794934,9.27067285 C17.4143618,8.82463855 17.2971967,8.49038601 17.1279944,8.26790519 C16.9587922,8.04542438 16.7396438,7.9088821 16.4705428,7.85827428 C16.2014417,7.80766646 15.8565936,7.81341695 15.435988,7.87552593 C14.8930245,7.95570297 14.4684134,8.11071084 14.1621422,8.34055418 C13.8558709,8.57039753 13.6282946,8.93788064 13.4794064,9.44301454 C13.3305182,9.94814844 13.252942,10.6607474 13.2466754,11.5808328 C13.2265067,12.2987133 13.2461804,12.8614367 13.3056972,13.2690197 C13.3685829,13.6996735 13.4796785,14.0191104 13.6389875,14.22734 C13.7982964,14.4355696 14.0141293,14.5627815 14.2864926,14.6089796 C14.5588558,14.6551776 14.9206296,14.6449638 15.3718246,14.5783378 C15.9224356,14.4970315 16.3508702,14.3414591 16.6571415,14.1116157 Z M20.5327389,6.13305141 L23.6528519,5.67231803 C24.2952313,5.57746069 24.8319683,5.65532211 25.2630791,5.90590464 C25.6941898,6.15648716 25.9625202,6.64321271 26.0680783,7.36609588 C26.0972752,7.56604229 26.1085832,7.803979 26.1020025,8.07991315 C26.0908174,8.85931562 25.9397248,9.42957938 25.6487202,9.79072154 C25.3577155,10.1518637 25.0053913,10.4140366 24.5917368,10.577248 L26.2363839,13.9756599 L25.0663415,14.1484349 L23.5501999,10.9078079 L21.618018,11.1577725 L21.5791564,14.6633722 L20.432056,14.8327595 L20.5327389,6.13305141 Z M23.5743552,9.94973336 C24.0179028,9.88423662 24.3536749,9.72270734 24.5816813,9.46514068 C24.8096876,9.20757401 24.9263394,8.77594714 24.9316401,8.17024711 C24.9287542,7.98998368 24.9172048,7.83064213 24.8969915,7.6922177 C24.7880645,6.94626379 24.3474153,6.63031891 23.5750305,6.74437357 L21.6593729,7.02725031 L21.6357555,10.2359978 L23.5743552,9.94973336 Z M27.9963566,5.03093179 L29.1434569,4.86154452 L29.100822,8.66230251 L30.4773425,8.45903779 L32.619171,4.3483011 L33.8121554,4.17213834 L31.4053649,8.87585088 L33.8835376,12.8464383 L32.7249662,13.0175195 L30.5257021,9.51246073 L29.0803556,9.72588869 L29.042774,13.5612526 L27.8956737,13.7306399 L27.9963566,5.03093179 Z M36.4384079,12.4750639 C35.9427997,12.5050398 35.5331772,12.5085713 35.2095283,12.4856585 L35.2157948,11.5655777 C35.9206895,11.5243375 36.7740271,11.4297527 37.7758331,11.2818204 C38.3493861,11.1971264 38.773489,11.0520135 39.0481545,10.8464774 C39.3228199,10.6409413 39.4581743,10.3106441 39.4542217,9.85557574 L39.4654571,9.37077083 C39.4582927,9.21470739 39.4507803,9.10976139 39.4429195,9.05592966 C39.402493,8.77908079 39.2850723,8.59020107 39.0906539,8.48928485 C38.8962355,8.38836863 38.600199,8.36727144 38.2025355,8.42599265 L37.2848553,8.56150247 C36.6960075,8.64845504 36.2229751,8.57886251 35.8657441,8.35272281 C35.508513,8.1265831 35.2928431,7.75974062 35.2187278,7.25218435 C35.1973916,7.10606967 35.1864037,6.95057319 35.1857636,6.78569025 L35.1960391,6.05356218 C35.2049782,5.25877922 35.417757,4.66958658 35.8343819,4.2859666 C36.2510067,3.90234662 36.8684443,3.65012532 37.6867134,3.52929513 C38.0308452,3.4784787 38.4531822,3.44164589 38.9537371,3.4187956 C39.4542919,3.39594531 39.8855058,3.39315348 40.2473916,3.41042001 L40.2411251,4.33050082 C39.3985776,4.39206754 38.5605346,4.48439387 37.7269708,4.60748257 C37.2375389,4.67975483 36.8768066,4.81747405 36.6447632,5.02064437 C36.4127198,5.22381468 36.2948525,5.55349368 36.2911577,6.00969126 L36.2913933,6.49280229 C36.2852955,6.61154375 36.2895458,6.72089944 36.3041443,6.82087265 C36.3434479,7.09003128 36.4499058,7.27070987 36.6235214,7.36291386 C36.7971369,7.45511785 37.0521831,7.47637593 37.3886675,7.42668875 L38.3292898,7.28779119 C38.9716693,7.19293385 39.4799565,7.2632124 39.8541667,7.49862897 C40.2283769,7.73404554 40.4530978,8.10937145 40.528336,8.62461796 C40.5474263,8.75535215 40.5584143,8.91084863 40.5613002,9.09111206 L40.5611314,9.89245201 C40.5519789,10.632274 40.3344276,11.1887836 39.9084709,11.5619974 C39.4825143,11.9352113 38.8183509,12.1884404 37.9159607,12.3216924 C37.4265288,12.3939647 36.9340161,12.445088 36.4384079,12.4750639 Z M42.2009186,2.93340655 L43.348019,2.76401928 L43.309073,6.67028895 L47.1977432,6.09606611 L47.2481603,2.18810256 L48.4067317,2.01702142 L48.3060488,10.7167295 L47.1474774,10.8878106 L47.1887478,7.15795841 L43.2886066,7.73387512 L43.2473361,11.4637274 L42.1002358,11.6331146 L42.2009186,2.93340655 Z M51.7403375,10.0681947 C51.3186371,9.98905606 50.9713045,9.77717077 50.6983294,9.43253244 C50.4253543,9.0878941 50.2388978,8.57336668 50.1389545,7.88893475 C50.0547326,7.31216626 50.023268,6.66869654 50.0445597,5.9585063 C50.0522189,4.83395746 50.1728461,3.94806238 50.406445,3.30079448 C50.640044,2.65352658 50.9975311,2.1725887 51.4789171,1.85796641 C51.9603032,1.54334411 52.6101209,1.32562114 53.42839,1.20479095 C54.0248851,1.11670913 54.5367293,1.11772287 54.9639378,1.20783221 C55.3911463,1.29794155 55.7464602,1.52436017 56.0298901,1.88709487 C56.31332,2.24982957 56.5061267,2.78109516 56.6083159,3.48090759 C56.6813082,3.98077361 56.7122114,4.62039826 56.7010263,5.39980073 C56.6868427,6.53316907 56.5599186,7.41606601 56.3202501,8.04851804 C56.0805815,8.68097008 55.7221989,9.14240032 55.2450913,9.43282262 C54.7679838,9.72324492 54.1203052,9.92886808 53.3020362,10.0496983 C52.6825989,10.1411679 52.1620379,10.1473333 51.7403375,10.0681947 Z M54.629077,8.50446691 C54.9353483,8.27462356 55.1585928,7.91760004 55.2988173,7.43338564 C55.4390419,6.94917124 55.5156552,6.27010225 55.5286595,5.39615832 C55.5434268,4.69478757 55.5176835,4.11724859 55.451429,3.66352405 C55.3862974,3.21748975 55.2691322,2.88323721 55.09993,2.66075639 C54.9307277,2.43827557 54.7115794,2.3017333 54.4424783,2.25112548 C54.1733773,2.20051766 53.8285291,2.20626815 53.4079236,2.26837712 C52.86496,2.34855417 52.440349,2.50356203 52.1340777,2.73340538 C51.8278065,2.96324873 51.6002302,3.33073184 51.451342,3.83586574 C51.3024538,4.34099964 51.2248775,5.05359861 51.218611,5.97368402 C51.1984422,6.69156451 51.2181159,7.25428785 51.2776327,7.66187092 C51.3405184,8.09252472 51.4516141,8.41196162 51.610923,8.6201912 C51.770232,8.82842078 51.9860648,8.95563269 52.2584281,9.00183077 C52.5307914,9.04802884 52.8925651,9.03781503 53.3437602,8.97118904 C53.8943711,8.88988274 54.3228058,8.73431025 54.629077,8.50446691 Z M58.5046744,0.525902602 L61.7624395,0.0448427568 C62.3895241,-0.04775608 62.9055119,0.0351332779 63.3104183,0.293513317 C63.7153247,0.551893357 63.9722376,1.0540528 64.0811646,1.80000671 C64.1114845,2.00764336 64.1218828,2.2928501 64.1123599,2.65563547 C64.1063067,3.63068186 63.8915879,4.35371212 63.4681972,4.82474795 C63.0448065,5.29578378 62.5119294,5.57872612 61.86955,5.67358346 C61.1736389,5.77634559 60.4125233,5.83374453 59.5861802,5.84578201 L59.5510919,9.05622342 L58.4039915,9.22561069 L58.5046744,0.525902602 Z M61.5786148,4.64419654 C61.9992204,4.58208756 62.3313429,4.39556536 62.5749922,4.08462433 C62.8186414,3.7736833 62.9431146,3.31536965 62.9484152,2.70966962 C62.9516271,2.41066473 62.9442494,2.19964347 62.9262821,2.07659953 C62.8678882,1.67670671 62.7362033,1.40351787 62.5312235,1.25702479 C62.3262436,1.11053172 62.0440446,1.06382335 61.6846181,1.1168983 L59.6313084,1.42010151 L59.5941312,4.93723651 L61.5786148,4.64419654 Z" id="path-7"></path>
                                </g>
                            </g>
                        </g>
                    </g>
                </g>
            </g>
        </g>
    </g>
</svg>