<?xml version="1.0" encoding="UTF-8"?>
<svg width="230px" height="230px" viewBox="0 0 230 230" version="1.1" xmlns="http://www.w3.org/2000/svg" xmlns:xlink="http://www.w3.org/1999/xlink">
    <!-- Generator: Sketch 47.1 (45422) - http://www.bohemiancoding.com/sketch -->
    <title>prezentacja</title>
    <desc>Created with Sketch.</desc>
    <defs></defs>
    <g id="Page-1" stroke="none" stroke-width="1" fill="none" fill-rule="evenodd">
        <g id="prezentacja">
            <rect id="Rectangle" fill="#D8D8D8" opacity="0.435971467" x="0" y="0" width="230" height="230" rx="50"></rect>
            <text id="Prezentacja" font-family="LeagueSpartan-Bold, League Spartan" font-size="25.7999992" font-weight="bold" fill="#3D3780">
                <tspan x="38.9273776" y="202">Prezentacja</tspan>
            </text>
            <g id="screen" transform="translate(50.000000, 33.000000)" fill-rule="nonzero">
                <rect id="Rectangle-path" fill="#6DA8D6" x="65.7631579" y="109.914894" width="4.47368421" height="15.9361702"></rect>
                <path d="M68,140 C63.4777018,140 59.7982456,136.325447 59.7982456,131.808511 C59.7982456,127.291574 63.4777018,123.617021 68,123.617021 C72.5222982,123.617021 76.2017544,127.291574 76.2017544,131.808511 C76.2017544,136.325447 72.5222982,140 68,140 Z M68,128.085106 C65.944193,128.085106 64.2719298,129.755277 64.2719298,131.808511 C64.2719298,133.861745 65.944193,135.531915 68,135.531915 C70.055807,135.531915 71.7280702,133.861745 71.7280702,131.808511 C71.7280702,129.755277 70.055807,128.085106 68,128.085106 Z" id="Shape" fill="#3D3780"></path>
                <rect id="Rectangle-path" fill="#F2EBD9" x="6.11403509" y="26.0638298" width="123.77193" height="83.8510638"></rect>
                <ellipse id="Oval" fill="#FFCC75" cx="113.273684" cy="85.3404255" rx="2.23684211" ry="2.23404255"></ellipse>
                <ellipse id="Oval" fill="#FFCC75" cx="104.326316" cy="94.2765957" rx="2.23684211" ry="2.23404255"></ellipse>
                <path d="M133.614035,112.148936 L2.38596491,112.148936 C1.15033333,112.148936 0.149122807,111.148681 0.149122807,109.914894 C0.149122807,108.681106 1.15033333,107.680851 2.38596491,107.680851 L133.614035,107.680851 C134.849667,107.680851 135.850877,108.681106 135.850877,109.914894 C135.850877,111.148681 134.849667,112.148936 133.614035,112.148936 Z" id="Shape" fill="#3D3780"></path>
                <path d="M8.35087719,0 C7.11524561,0 6.11403509,1.00025532 6.11403509,2.23404255 L6.11403509,14.1489362 L10.5877193,14.1489362 L10.5877193,2.23404255 C10.5877193,1.00025532 9.58650877,0 8.35087719,0 Z" id="Shape" fill="#3D3780"></path>
                <path d="M127.649123,0 C126.413491,0 125.412281,1.00025532 125.412281,2.23404255 L125.412281,14.1489362 L129.885965,14.1489362 L129.885965,2.23404255 C129.885965,1.00025532 128.884754,0 127.649123,0 Z" id="Shape" fill="#274B6D"></path>
                <rect id="Rectangle-path" fill="#3D3780" x="0.149122807" y="11.1702128" width="135.701754" height="14.893617"></rect>
            </g>
        </g>
    </g>
</svg>