<?xml version="1.0" encoding="UTF-8"?>
<svg width="190px" height="190px" viewBox="0 0 190 190" version="1.1" xmlns="http://www.w3.org/2000/svg" xmlns:xlink="http://www.w3.org/1999/xlink">
    <!-- Generator: Sketch 47.1 (45422) - http://www.bohemiancoding.com/sketch -->
    <title>prezentacja</title>
    <desc>Created with Sketch.</desc>
    <defs></defs>
    <g id="Page-1" stroke="none" stroke-width="1" fill="none" fill-rule="evenodd">
        <g id="Group-2" transform="translate(-854.000000, 0.000000)">
            <g id="prezentacja" transform="translate(854.000000, 0.000000)">
                <rect id="Rectangle" fill="#D8D8D8" opacity="0.435971467" x="0" y="0" width="190" height="190" rx="50"></rect>
                <path d="M33.4361815,149.286305 L39.8514074,149.286305 C43.2828073,149.286305 45.8616855,151.055287 45.8616855,154.699818 C45.8616855,158.323035 43.2828073,160.347774 39.8514074,160.347774 L37.4430335,160.347774 L37.4430335,166.869565 L33.4361815,166.869565 L33.4361815,149.286305 Z M37.4430335,157.150818 L38.5726248,157.150818 C40.14979,157.150818 41.641703,156.617992 41.641703,154.827696 C41.641703,153.016087 40.14979,152.483261 38.5726248,152.483261 L37.4430335,152.483261 L37.4430335,157.150818 Z M47.0978419,166.869565 L50.8702505,166.869565 L50.8702505,161.115044 C50.8702505,160.837974 51.1473201,158.898487 53.10812,158.898487 C54.3655896,158.898487 55.06892,159.495252 55.06892,159.495252 L56.6460851,156.298296 C56.6460851,156.298296 55.6656852,155.616279 54.2590243,155.616279 C52.106407,155.616279 50.9128766,157.513139 50.9128766,157.513139 L50.8702505,157.513139 L50.8702505,155.935974 L47.0978419,155.935974 L47.0978419,166.869565 Z M68.6453283,161.924939 L60.7168763,161.924939 C60.7168763,163.60867 62.1235372,164.184122 63.0826241,164.184122 C64.2974675,164.184122 64.8302936,163.949678 65.7467544,162.969278 L68.4748239,164.333313 C67.2386674,166.400678 65.2352414,167.189261 62.8055545,167.189261 C59.5020329,167.189261 56.7952764,164.58907 56.7952764,161.413426 C56.7952764,158.21647 59.5020329,155.616279 62.8055545,155.616279 C66.1303892,155.616279 68.6666413,157.577079 68.6666413,161.413426 C68.6666413,161.562618 68.6666413,161.797061 68.6453283,161.924939 Z M60.8234415,159.836261 L64.9794849,159.836261 C64.8089806,158.685357 64.020398,158.067279 62.9121197,158.067279 C61.6120241,158.067279 60.8873807,158.834548 60.8234415,159.836261 Z M81.0068931,155.935974 L70.1585543,155.935974 L70.1585543,158.813235 L74.6769194,158.813235 L69.2634065,166.869565 L80.5806323,166.869565 L80.5806323,163.992304 L75.5933802,163.992304 L81.0068931,155.935974 Z M93.4537101,161.924939 L85.5252582,161.924939 C85.5252582,163.60867 86.931919,164.184122 87.891006,164.184122 C89.1058494,164.184122 89.6386755,163.949678 90.5551363,162.969278 L93.2832058,164.333313 C92.0470493,166.400678 90.0436233,167.189261 87.6139364,167.189261 C84.3104148,167.189261 81.6036583,164.58907 81.6036583,161.413426 C81.6036583,158.21647 84.3104148,155.616279 87.6139364,155.616279 C90.9387711,155.616279 93.4750232,157.577079 93.4750232,161.413426 C93.4750232,161.562618 93.4750232,161.797061 93.4537101,161.924939 Z M85.6318234,159.836261 L89.7878668,159.836261 C89.6173624,158.685357 88.8287798,158.067279 87.7205016,158.067279 C86.420406,158.067279 85.6957625,158.834548 85.6318234,159.836261 Z M95.2013797,166.869565 L98.9737882,166.869565 L98.9737882,160.688783 C98.9737882,159.601818 100.082066,158.557479 101.211658,158.557479 C102.426501,158.557479 103.172458,159.601818 103.172458,160.688783 L103.172458,166.869565 L106.944866,166.869565 L106.944866,159.665757 C106.944866,156.617992 104.152858,155.616279 102.149432,155.616279 C100.955901,155.616279 99.868936,156.234357 99.0164143,157.086879 L98.9737882,157.086879 L98.9737882,155.935974 L95.2013797,155.935974 L95.2013797,166.869565 Z M109.800814,155.935974 L108.223649,155.935974 L108.223649,158.813235 L109.800814,158.813235 L109.800814,163.011904 C109.800814,164.951391 110.525457,167.189261 113.530597,167.189261 C115.086449,167.189261 116.301292,166.507243 116.301292,166.507243 L115.363518,163.459478 C115.363518,163.459478 114.915944,163.800487 114.425744,163.800487 C113.828979,163.800487 113.573223,163.310287 113.573223,162.287261 L113.573223,158.813235 L115.875031,158.813235 L115.875031,155.935974 L113.573223,155.935974 L113.573223,151.865183 L109.800814,151.865183 L109.800814,155.935974 Z M116.748866,161.413426 C116.748866,158.21647 118.986735,155.616279 122.183692,155.616279 C123.654292,155.616279 124.869135,156.106479 125.764283,156.980313 L125.764283,155.935974 L129.536692,155.935974 L129.536692,166.869565 L125.806909,166.869565 L125.806909,165.633409 L125.764283,165.633409 C124.954387,166.528557 123.675605,167.189261 122.183692,167.189261 C118.986735,167.189261 116.748866,164.610383 116.748866,161.413426 Z M120.755718,161.413426 C120.755718,162.905339 121.778744,163.970991 123.313283,163.970991 C124.783883,163.970991 125.849535,162.905339 125.849535,161.413426 C125.849535,159.9002 124.719944,158.834548 123.313283,158.834548 C121.885309,158.834548 120.755718,159.9002 120.755718,161.413426 Z M137.912718,158.70667 C136.484744,158.70667 135.312526,159.9002 135.312526,161.392113 C135.312526,162.905339 136.484744,164.09887 137.912718,164.09887 C139.042309,164.09887 139.745639,163.587357 139.745639,163.587357 L141.024422,166.208861 C141.024422,166.208861 139.788265,167.189261 137.358578,167.189261 C134.204248,167.189261 131.305674,164.631696 131.305674,161.434739 C131.305674,158.21647 134.182935,155.616279 137.358578,155.616279 C139.788265,155.616279 141.024422,156.639305 141.024422,156.639305 L139.745639,159.218183 C139.745639,159.218183 139.042309,158.70667 137.912718,158.70667 Z M144.498448,149.17974 C145.734604,149.17974 146.736317,150.181453 146.736317,151.417609 C146.736317,152.653766 145.734604,153.655479 144.498448,153.655479 C143.262291,153.655479 142.260578,152.653766 142.260578,151.417609 C142.260578,150.181453 143.262291,149.17974 144.498448,149.17974 Z M142.558961,155.935974 L146.331369,155.935974 L146.331369,168.553296 C146.331369,170.492783 145.393596,172.730652 142.388457,172.730652 C140.598161,172.730652 139.916144,172.283078 139.383317,172.048635 L140.555535,169.00087 C140.555535,169.00087 141.045735,169.320565 141.514622,169.320565 C142.154013,169.320565 142.558961,168.851678 142.558961,167.828652 L142.558961,155.935974 Z M148.100352,161.413426 C148.100352,158.21647 150.338222,155.616279 153.535178,155.616279 C155.005778,155.616279 156.220621,156.106479 157.115769,156.980313 L157.115769,155.935974 L160.888178,155.935974 L160.888178,166.869565 L157.158395,166.869565 L157.158395,165.633409 L157.115769,165.633409 C156.305873,166.528557 155.027091,167.189261 153.535178,167.189261 C150.338222,167.189261 148.100352,164.610383 148.100352,161.413426 Z M152.107204,161.413426 C152.107204,162.905339 153.13023,163.970991 154.664769,163.970991 C156.135369,163.970991 157.201021,162.905339 157.201021,161.413426 C157.201021,159.9002 156.07143,158.834548 154.664769,158.834548 C153.236795,158.834548 152.107204,159.9002 152.107204,161.413426 Z" id="Prezentacja" fill="#3D3780"></path>
                <g id="screen" transform="translate(41.304348, 27.260870)" fill-rule="nonzero">
                    <rect id="Rectangle-path" fill="#6DA8D6" x="54.326087" y="90.7992599" width="3.69565217" height="13.1646623"></rect>
                    <path d="M56.173913,115.652174 C52.4381014,115.652174 49.3985507,112.616673 49.3985507,108.885291 C49.3985507,105.153909 52.4381014,102.118409 56.173913,102.118409 C59.9097246,102.118409 62.9492754,105.153909 62.9492754,108.885291 C62.9492754,112.616673 59.9097246,115.652174 56.173913,115.652174 Z M56.173913,105.809436 C54.4756377,105.809436 53.0942029,107.189142 53.0942029,108.885291 C53.0942029,110.581441 54.4756377,111.961147 56.173913,111.961147 C57.8721884,111.961147 59.2536232,110.581441 59.2536232,108.885291 C59.2536232,107.189142 57.8721884,105.809436 56.173913,105.809436 Z" id="Shape" fill="#3D3780"></path>
                    <rect id="Rectangle-path" fill="#F2EBD9" x="5.05072464" y="21.5309898" width="102.246377" height="69.2682701"></rect>
                    <ellipse id="Oval" fill="#FFCC75" cx="93.573913" cy="70.4986124" rx="1.84782609" ry="1.84551341"></ellipse>
                    <ellipse id="Oval" fill="#FFCC75" cx="86.1826087" cy="77.880666" rx="1.84782609" ry="1.84551341"></ellipse>
                    <path d="M110.376812,92.6447734 L1.97101449,92.6447734 C0.950275362,92.6447734 0.123188406,91.8184755 0.123188406,90.7992599 C0.123188406,89.7800444 0.950275362,88.9537465 1.97101449,88.9537465 L110.376812,88.9537465 C111.397551,88.9537465 112.224638,89.7800444 112.224638,90.7992599 C112.224638,91.8184755 111.397551,92.6447734 110.376812,92.6447734 Z" id="Shape" fill="#3D3780"></path>
                    <path d="M6.89855072,0 C5.87781159,0 5.05072464,0.826297872 5.05072464,1.84551341 L5.05072464,11.6882516 L8.74637681,11.6882516 L8.74637681,1.84551341 C8.74637681,0.826297872 7.91928986,0 6.89855072,0 Z" id="Shape" fill="#3D3780"></path>
                    <path d="M105.449275,0 C104.428536,0 103.601449,0.826297872 103.601449,1.84551341 L103.601449,11.6882516 L107.297101,11.6882516 L107.297101,1.84551341 C107.297101,0.826297872 106.470014,0 105.449275,0 Z" id="Shape" fill="#274B6D"></path>
                    <rect id="Rectangle-path" fill="#3D3780" x="0.123188406" y="9.22756707" width="112.101449" height="12.3034228"></rect>
                </g>
            </g>
        </g>
    </g>
</svg>