<?xml version="1.0" encoding="UTF-8"?>
<svg width="230px" height="230px" viewBox="0 0 230 230" version="1.1" xmlns="http://www.w3.org/2000/svg" xmlns:xlink="http://www.w3.org/1999/xlink">
    <!-- Generator: Sketch 47.1 (45422) - http://www.bohemiancoding.com/sketch -->
    <title>prezentacja</title>
    <desc>Created with Sketch.</desc>
    <defs></defs>
    <g id="Page-1" stroke="none" stroke-width="1" fill="none" fill-rule="evenodd">
        <g id="prezentacja">
            <rect id="Rectangle" fill="#D8D8D8" opacity="0.435971467" x="0" y="0" width="230" height="230" rx="50"></rect>
            <path d="M40.4753776,180.715001 L48.2411774,180.715001 C52.3949772,180.715001 55.5167771,182.856401 55.5167771,187.2682 C55.5167771,191.6542 52.3949772,194.1052 48.2411774,194.1052 L45.3257774,194.1052 L45.3257774,202 L40.4753776,202 L40.4753776,180.715001 Z M45.3257774,190.2352 L46.6931774,190.2352 C48.6023773,190.2352 50.4083773,189.5902 50.4083773,187.423 C50.4083773,185.23 48.6023773,184.585001 46.6931774,184.585001 L45.3257774,184.585001 L45.3257774,190.2352 Z M57.0131771,202 L61.579777,202 L61.579777,195.034 C61.579777,194.6986 61.9151769,192.3508 64.2887769,192.3508 C65.8109768,192.3508 66.6623768,193.0732 66.6623768,193.0732 L68.5715767,189.2032 C68.5715767,189.2032 67.3847768,188.3776 65.6819768,188.3776 C63.0761769,188.3776 61.631377,190.6738 61.631377,190.6738 L61.579777,190.6738 L61.579777,188.7646 L57.0131771,188.7646 L57.0131771,202 Z M83.0969763,196.0144 L73.4993766,196.0144 C73.4993766,198.0526 75.2021766,198.7492 76.3631765,198.7492 C77.8337765,198.7492 78.4787765,198.4654 79.5881764,197.2786 L82.8905763,198.9298 C81.3941764,201.4324 78.9689764,202.387 76.0277765,202.387 C72.0287766,202.387 68.7521767,199.2394 68.7521767,195.3952 C68.7521767,191.5252 72.0287766,188.3776 76.0277765,188.3776 C80.0525764,188.3776 83.1227763,190.7512 83.1227763,195.3952 C83.1227763,195.5758 83.1227763,195.8596 83.0969763,196.0144 Z M73.6283766,193.486 L78.6593765,193.486 C78.4529765,192.0928 77.4983765,191.3446 76.1567765,191.3446 C74.5829766,191.3446 73.7057766,192.2734 73.6283766,193.486 Z M98.0609759,188.7646 L84.9287763,188.7646 L84.9287763,192.2476 L90.3983761,192.2476 L83.8451763,202 L97.5449759,202 L97.5449759,198.517 L91.5077761,198.517 L98.0609759,188.7646 Z M113.128175,196.0144 L103.530576,196.0144 C103.530576,198.0526 105.233376,198.7492 106.394376,198.7492 C107.864976,198.7492 108.509976,198.4654 109.619376,197.2786 L112.921775,198.9298 C111.425375,201.4324 109.000176,202.387 106.058976,202.387 C102.059976,202.387 98.7833759,199.2394 98.7833759,195.3952 C98.7833759,191.5252 102.059976,188.3776 106.058976,188.3776 C110.083776,188.3776 113.153975,190.7512 113.153975,195.3952 C113.153975,195.5758 113.153975,195.8596 113.128175,196.0144 Z M103.659576,193.486 L108.690576,193.486 C108.484176,192.0928 107.529576,191.3446 106.187976,191.3446 C104.614176,191.3446 103.736976,192.2734 103.659576,193.486 Z M115.243775,202 L119.810375,202 L119.810375,194.518 C119.810375,193.2022 121.151975,191.938 122.519375,191.938 C123.989975,191.938 124.892975,193.2022 124.892975,194.518 L124.892975,202 L129.459575,202 L129.459575,193.2796 C129.459575,189.5902 126.079775,188.3776 123.654575,188.3776 C122.209775,188.3776 120.893975,189.1258 119.861975,190.1578 L119.810375,190.1578 L119.810375,188.7646 L115.243775,188.7646 L115.243775,202 Z M132.916775,188.7646 L131.007575,188.7646 L131.007575,192.2476 L132.916775,192.2476 L132.916775,197.3302 C132.916775,199.678 133.793975,202.387 137.431775,202.387 C139.315175,202.387 140.785775,201.5614 140.785775,201.5614 L139.650575,197.872 C139.650575,197.872 139.108775,198.2848 138.515375,198.2848 C137.792975,198.2848 137.483375,197.6914 137.483375,196.453 L137.483375,192.2476 L140.269775,192.2476 L140.269775,188.7646 L137.483375,188.7646 L137.483375,183.836801 L132.916775,183.836801 L132.916775,188.7646 Z M141.327575,195.3952 C141.327575,191.5252 144.036575,188.3776 147.906574,188.3776 C149.686774,188.3776 151.157374,188.971 152.240974,190.0288 L152.240974,188.7646 L156.807574,188.7646 L156.807574,202 L152.292574,202 L152.292574,200.5036 L152.240974,200.5036 C151.260574,201.5872 149.712574,202.387 147.906574,202.387 C144.036575,202.387 141.327575,199.2652 141.327575,195.3952 Z M146.177974,195.3952 C146.177974,197.2012 147.416374,198.4912 149.273974,198.4912 C151.054174,198.4912 152.344174,197.2012 152.344174,195.3952 C152.344174,193.5634 150.976774,192.2734 149.273974,192.2734 C147.545374,192.2734 146.177974,193.5634 146.177974,195.3952 Z M166.946974,192.1186 C165.218374,192.1186 163.799374,193.5634 163.799374,195.3694 C163.799374,197.2012 165.218374,198.646 166.946974,198.646 C168.314374,198.646 169.165774,198.0268 169.165774,198.0268 L170.713774,201.2002 C170.713774,201.2002 169.217374,202.387 166.276174,202.387 C162.457774,202.387 158.948974,199.291 158.948974,195.421 C158.948974,191.5252 162.431974,188.3776 166.276174,188.3776 C169.217374,188.3776 170.713774,189.616 170.713774,189.616 L169.165774,192.7378 C169.165774,192.7378 168.314374,192.1186 166.946974,192.1186 Z M174.919174,180.586001 C176.415574,180.586001 177.628174,181.798601 177.628174,183.295001 C177.628174,184.791401 176.415574,186.004 174.919174,186.004 C173.422774,186.004 172.210174,184.791401 172.210174,183.295001 C172.210174,181.798601 173.422774,180.586001 174.919174,180.586001 Z M172.571374,188.7646 L177.137974,188.7646 L177.137974,204.0382 C177.137974,206.386 176.002774,209.095 172.364974,209.095 C170.197774,209.095 169.372174,208.5532 168.727174,208.2694 L170.146174,204.58 C170.146174,204.58 170.739574,204.967 171.307174,204.967 C172.081174,204.967 172.571374,204.3994 172.571374,203.161 L172.571374,188.7646 Z M179.279373,195.3952 C179.279373,191.5252 181.988373,188.3776 185.858373,188.3776 C187.638573,188.3776 189.109173,188.971 190.192773,190.0288 L190.192773,188.7646 L194.759373,188.7646 L194.759373,202 L190.244373,202 L190.244373,200.5036 L190.192773,200.5036 C189.212373,201.5872 187.664373,202.387 185.858373,202.387 C181.988373,202.387 179.279373,199.2652 179.279373,195.3952 Z M184.129773,195.3952 C184.129773,197.2012 185.368173,198.4912 187.225773,198.4912 C189.005973,198.4912 190.295973,197.2012 190.295973,195.3952 C190.295973,193.5634 188.928573,192.2734 187.225773,192.2734 C185.497173,192.2734 184.129773,193.5634 184.129773,195.3952 Z" id="Prezentacja" fill="#3D3780"></path>
            <g id="screen" transform="translate(50.000000, 33.000000)" fill-rule="nonzero">
                <rect id="Rectangle-path" fill="#6DA8D6" x="65.7631579" y="109.914894" width="4.47368421" height="15.9361702"></rect>
                <path d="M68,140 C63.4777018,140 59.7982456,136.325447 59.7982456,131.808511 C59.7982456,127.291574 63.4777018,123.617021 68,123.617021 C72.5222982,123.617021 76.2017544,127.291574 76.2017544,131.808511 C76.2017544,136.325447 72.5222982,140 68,140 Z M68,128.085106 C65.944193,128.085106 64.2719298,129.755277 64.2719298,131.808511 C64.2719298,133.861745 65.944193,135.531915 68,135.531915 C70.055807,135.531915 71.7280702,133.861745 71.7280702,131.808511 C71.7280702,129.755277 70.055807,128.085106 68,128.085106 Z" id="Shape" fill="#3D3780"></path>
                <rect id="Rectangle-path" fill="#F2EBD9" x="6.11403509" y="26.0638298" width="123.77193" height="83.8510638"></rect>
                <ellipse id="Oval" fill="#FFCC75" cx="113.273684" cy="85.3404255" rx="2.23684211" ry="2.23404255"></ellipse>
                <ellipse id="Oval" fill="#FFCC75" cx="104.326316" cy="94.2765957" rx="2.23684211" ry="2.23404255"></ellipse>
                <path d="M133.614035,112.148936 L2.38596491,112.148936 C1.15033333,112.148936 0.149122807,111.148681 0.149122807,109.914894 C0.149122807,108.681106 1.15033333,107.680851 2.38596491,107.680851 L133.614035,107.680851 C134.849667,107.680851 135.850877,108.681106 135.850877,109.914894 C135.850877,111.148681 134.849667,112.148936 133.614035,112.148936 Z" id="Shape" fill="#3D3780"></path>
                <path d="M8.35087719,0 C7.11524561,0 6.11403509,1.00025532 6.11403509,2.23404255 L6.11403509,14.1489362 L10.5877193,14.1489362 L10.5877193,2.23404255 C10.5877193,1.00025532 9.58650877,0 8.35087719,0 Z" id="Shape" fill="#3D3780"></path>
                <path d="M127.649123,0 C126.413491,0 125.412281,1.00025532 125.412281,2.23404255 L125.412281,14.1489362 L129.885965,14.1489362 L129.885965,2.23404255 C129.885965,1.00025532 128.884754,0 127.649123,0 Z" id="Shape" fill="#274B6D"></path>
                <rect id="Rectangle-path" fill="#3D3780" x="0.149122807" y="11.1702128" width="135.701754" height="14.893617"></rect>
            </g>
        </g>
    </g>
</svg>