<?xml version="1.0" encoding="UTF-8"?>
<svg width="230px" height="230px" viewBox="0 0 230 230" version="1.1" xmlns="http://www.w3.org/2000/svg" xmlns:xlink="http://www.w3.org/1999/xlink">
    <!-- Generator: Sketch 47.1 (45422) - http://www.bohemiancoding.com/sketch -->
    <title>survey</title>
    <desc>Created with Sketch.</desc>
    <defs></defs>
    <g id="Page-1" stroke="none" stroke-width="1" fill="none" fill-rule="evenodd">
        <g id="survey">
            <rect id="Rectangle" fill="#D8D8D8" opacity="0.435971467" x="0" y="0" width="230" height="230" rx="50"></rect>
            <g transform="translate(64.000000, 25.000000)" fill-rule="nonzero" fill="#3D3780">
                <path d="M93.8602647,129 L9.13948284,129 C4.15130392,129 0.0929019608,125.02292 0.0929019608,120.134021 L0.0929019608,23.2268027 C0.0929019608,18.2744121 4.12984559,14.2454297 9.09202206,14.2454297 L93.8607696,14.2454297 C98.8494534,14.2454297 102.90735,18.2225098 102.90735,23.1114082 L102.90735,70.9948477 C102.90735,72.997623 101.280304,74.621209 99.2738235,74.621209 C97.2673431,74.621209 95.6402966,72.997623 95.6402966,70.9948477 L95.6402966,23.1114082 C95.6402966,22.2217617 94.8420466,21.4984043 93.8610221,21.4984043 L9.09176961,21.4984043 C8.13674755,21.4984043 7.35995588,22.2736641 7.35995588,23.2268027 L7.35995588,120.134021 C7.35995588,121.023668 8.15820588,121.747025 9.13923039,121.747025 L93.8605172,121.747025 C94.8415417,121.747025 95.6397917,121.023164 95.6397917,120.134021 L95.6397917,93.7693945 C95.6397917,91.7666191 97.2668382,90.1430332 99.2733186,90.1430332 C101.279799,90.1430332 102.906846,91.7666191 102.906846,93.7693945 L102.906846,120.134021 C102.90735,125.022416 98.8489485,129 93.8602647,129 Z" id="Shape"></path>
                <path d="M65.4703848,18.1323105 C65.4827549,17.8921992 65.4895711,17.6503242 65.4895711,17.4069375 C65.4895711,9.79618945 59.3078039,3.62636133 51.6817647,3.62636133 C44.0557255,3.62636133 37.8739583,9.7959375 37.8739583,17.4069375 C37.8739583,17.6503242 37.8807745,17.8921992 37.8931446,18.1323105 L21.3404387,18.1323105 L21.3404387,31.5495703 L81.6590564,31.5495703 L81.6590564,18.1323105 L65.4703848,18.1323105 Z" id="Shape"></path>
                <path d="M81.6588039,35.1759316 L21.3406912,35.1759316 C19.3339583,35.1759316 17.7071642,33.5523457 17.7071642,31.5495703 L17.7071642,18.1323105 C17.7071642,16.1295352 19.3339583,14.5059492 21.3406912,14.5059492 L34.4825319,14.5059492 C35.8705074,6.28345898 43.0545049,0 51.6815123,0 C60.3085196,0 67.4927696,6.28345898 68.8804926,14.5059492 L81.6588039,14.5059492 C83.6652843,14.5059492 85.2923309,16.1295352 85.2923309,18.1323105 L85.2923309,31.5495703 C85.2925833,33.5523457 83.6657892,35.1759316 81.6588039,35.1759316 Z M24.9744706,27.922957 L78.025277,27.922957 L78.025277,21.7586719 L65.4701324,21.7586719 C64.4742132,21.7586719 63.5214632,21.3507598 62.8353015,20.6296699 C62.1493922,19.908832 61.789902,18.9383086 61.841402,17.9453613 C61.8504902,17.7669785 61.8555392,17.5873359 61.8555392,17.4069375 C61.8555392,11.8080352 57.2912255,7.25297461 51.6815123,7.25297461 C46.071799,7.25297461 41.5074853,11.8082871 41.5074853,17.4069375 C41.5074853,17.5875879 41.5125343,17.7669785 41.5221275,17.9453613 C41.573375,18.9383086 41.2138848,19.908832 40.5279755,20.6296699 C39.8420662,21.3505078 38.8895686,21.7586719 37.8931446,21.7586719 L24.9744706,21.7586719 L24.9744706,27.922957 L24.9744706,27.922957 Z" id="Shape"></path>
                <g id="Group" transform="translate(17.671569, 42.076172)">
                    <path d="M34.5542279,19.3401738 L3.66912255,19.3401738 C1.66238971,19.3401738 0.0355955882,17.7165879 0.0355955882,15.7138125 L0.0355955882,3.74654297 C0.0355955882,1.74376758 1.66238971,0.120181641 3.66912255,0.120181641 L34.5544804,0.120181641 C36.5609608,0.120181641 38.1880074,1.74376758 38.1880074,3.74654297 L38.1880074,15.7138125 C38.1877549,17.7165879 36.5612132,19.3401738 34.5542279,19.3401738 Z M7.30290196,12.0871992 L30.9212059,12.0871992 L30.9212059,7.3729043 L7.30290196,7.3729043 L7.30290196,12.0871992 Z" id="Shape"></path>
                    <path d="M63.9872353,19.3401738 L49.4523701,19.3401738 C47.4458897,19.3401738 45.8188431,17.7165879 45.8188431,15.7138125 L45.8188431,3.74654297 C45.8188431,1.74376758 47.4458897,0.120181641 49.4523701,0.120181641 L63.9872353,0.120181641 C65.9937157,0.120181641 67.6207623,1.74376758 67.6207623,3.74654297 C67.6207623,5.74931836 65.9937157,7.3729043 63.9872353,7.3729043 L53.0858971,7.3729043 L53.0858971,12.0871992 L63.9872353,12.0871992 C65.9937157,12.0871992 67.6207623,13.7107852 67.6207623,15.7135605 C67.6207623,17.7163359 65.9942206,19.3401738 63.9872353,19.3401738 Z" id="Shape"></path>
                </g>
                <g id="Group" transform="translate(17.671569, 93.978516)">
                    <path d="M34.5542279,19.296082 L3.66912255,19.296082 C1.66238971,19.296082 0.0355955882,17.6724961 0.0355955882,15.6697207 L0.0355955882,3.70245117 C0.0355955882,1.69967578 1.66238971,0.0760898438 3.66912255,0.0760898438 L34.5544804,0.0760898438 C36.5609608,0.0760898438 38.1880074,1.69967578 38.1880074,3.70245117 L38.1880074,15.6697207 C38.1877549,17.6724961 36.5612132,19.296082 34.5542279,19.296082 Z M7.30290196,12.0431074 L30.9212059,12.0431074 L30.9212059,7.3288125 L7.30290196,7.3288125 L7.30290196,12.0431074 Z" id="Shape"></path>
                    <path d="M63.9872353,19.296082 L49.4523701,19.296082 C47.4458897,19.296082 45.8188431,17.6724961 45.8188431,15.6697207 L45.8188431,3.70245117 C45.8188431,1.69967578 47.4458897,0.0760898438 49.4523701,0.0760898438 L63.9872353,0.0760898438 C65.9937157,0.0760898438 67.6207623,1.69967578 67.6207623,3.70245117 C67.6207623,5.70522656 65.9937157,7.3288125 63.9872353,7.3288125 L53.0858971,7.3288125 L53.0858971,12.0431074 L63.9872353,12.0431074 C65.9937157,12.0431074 67.6207623,13.6666934 67.6207623,15.6694688 C67.6210147,17.6724961 65.9942206,19.296082 63.9872353,19.296082 Z" id="Shape"></path>
                </g>
                <g id="Group" transform="translate(17.671569, 68.027344)">
                    <path d="M63.9872353,19.318002 L33.1021299,19.318002 C31.0953971,19.318002 29.4686029,17.694416 29.4686029,15.6916406 L29.4686029,3.72437109 C29.4686029,1.7215957 31.0953971,0.0980097656 33.1021299,0.0980097656 L63.9872353,0.0980097656 C65.9937157,0.0980097656 67.6207623,1.7215957 67.6207623,3.72437109 L67.6207623,15.6916406 C67.6210147,17.694416 65.9942206,19.318002 63.9872353,19.318002 Z M36.7359093,12.0652793 L60.3537083,12.0652793 L60.3537083,7.35098437 L36.7359093,7.35098437 L36.7359093,12.0652793 L36.7359093,12.0652793 Z" id="Shape"></path>
                    <path d="M18.2039877,19.318002 L3.66912255,19.318002 C1.66238971,19.318002 0.0355955882,17.694416 0.0355955882,15.6916406 L0.0355955882,3.72437109 C0.0355955882,1.7215957 1.66238971,0.0980097656 3.66912255,0.0980097656 L18.2039877,0.0980097656 C20.2107206,0.0980097656 21.8375147,1.7215957 21.8375147,3.72437109 C21.8375147,5.72714648 20.2107206,7.35073242 18.2039877,7.35073242 L7.30264951,7.35073242 L7.30264951,12.0650273 L18.2039877,12.0650273 C20.2107206,12.0650273 21.8375147,13.6886133 21.8375147,15.6913887 C21.8377672,17.694416 20.210973,19.318002 18.2039877,19.318002 Z" id="Shape"></path>
                </g>
            </g>
            <path d="M74.722346,180.715001 L83.3137458,202 L78.1021459,202 L76.528346,197.743 L68.4271462,197.743 L66.8533463,202 L61.6417464,202 L70.2331462,180.715001 L74.722346,180.715001 Z M74.877146,193.486 L72.5035461,187.294 L72.4519461,187.294 L70.0783462,193.486 L74.877146,193.486 Z M84.1393457,202 L88.7059456,202 L88.7059456,194.518 C88.7059456,193.2022 90.0475456,191.938 91.4149455,191.938 C92.8855455,191.938 93.7885455,193.2022 93.7885455,194.518 L93.7885455,202 L98.3551453,202 L98.3551453,193.2796 C98.3551453,189.5902 94.9753454,188.3776 92.5501455,188.3776 C91.1053455,188.3776 89.7895456,189.1258 88.7575456,190.1578 L88.7059456,190.1578 L88.7059456,188.7646 L84.1393457,188.7646 L84.1393457,202 Z M116.311945,188.7646 L110.377945,188.7646 L105.759745,193.3828 L105.759745,179.812001 L101.193145,179.812001 L101.193145,202 L105.759745,202 L105.759745,196.711 L111.048745,202 L116.931145,202 L110.016745,195.0856 L116.311945,188.7646 Z M120.207745,180.586001 C121.704145,180.586001 122.916745,181.798601 122.916745,183.295001 C122.916745,184.791401 121.704145,186.004 120.207745,186.004 C118.711345,186.004 117.498745,184.791401 117.498745,183.295001 C117.498745,181.798601 118.711345,180.586001 120.207745,180.586001 Z M117.859945,188.7646 L122.426545,188.7646 L122.426545,202 L117.859945,202 L117.859945,188.7646 Z M139.041744,196.0144 L129.444144,196.0144 C129.444144,198.0526 131.146944,198.7492 132.307944,198.7492 C133.778544,198.7492 134.423544,198.4654 135.532944,197.2786 L138.835344,198.9298 C137.338944,201.4324 134.913744,202.387 131.972544,202.387 C127.973544,202.387 124.696945,199.2394 124.696945,195.3952 C124.696945,191.5252 127.973544,188.3776 131.972544,188.3776 C135.997344,188.3776 139.067544,190.7512 139.067544,195.3952 C139.067544,195.5758 139.067544,195.8596 139.041744,196.0144 Z M129.573144,193.486 L134.604144,193.486 C134.397744,192.0928 133.443144,191.3446 132.101544,191.3446 C130.527744,191.3446 129.650544,192.2734 129.573144,193.486 Z M148.587744,197.872 C148.587744,197.872 148.587743,197.872 148.587743,197.872001 L148.587744,197.872 Z M148.587744,197.872 L149.722944,201.5614 C149.722944,201.5614 148.252344,202.387 146.368944,202.387 C142.731144,202.387 141.853944,199.678 141.853944,197.3302 L141.853944,192.2476 L139.944744,192.2476 L139.944744,188.7646 L141.853944,188.7646 L141.853944,183.836801 L146.420544,183.836801 L146.420544,188.7646 L149.206944,188.7646 L149.206944,192.2476 L146.420544,192.2476 L146.420544,196.453 C146.420544,197.6914 146.730144,198.2848 147.452544,198.2848 C148.045427,198.2848 148.5868,197.872719 148.587743,197.872001 L148.587744,197.872 Z M150.264744,195.3952 C150.264744,191.5252 152.973744,188.3776 156.843744,188.3776 C158.623944,188.3776 160.094544,188.971 161.178143,190.0288 L161.178143,188.7646 L165.744743,188.7646 L165.744743,202 L161.229743,202 L161.229743,200.5036 L161.178143,200.5036 C160.197743,201.5872 158.649744,202.387 156.843744,202.387 C152.973744,202.387 150.264744,199.2652 150.264744,195.3952 Z M155.115144,195.3952 C155.115144,197.2012 156.353544,198.4912 158.211144,198.4912 C159.991344,198.4912 161.281343,197.2012 161.281343,195.3952 C161.281343,193.5634 159.913944,192.2734 158.211144,192.2734 C156.482544,192.2734 155.115144,193.5634 155.115144,195.3952 Z" id="Ankieta" fill="#3D3780"></path>
        </g>
    </g>
</svg>