<?xml version="1.0" encoding="UTF-8"?>
<svg width="190px" height="190px" viewBox="0 0 190 190" version="1.1" xmlns="http://www.w3.org/2000/svg" xmlns:xlink="http://www.w3.org/1999/xlink">
    <!-- Generator: Sketch 47.1 (45422) - http://www.bohemiancoding.com/sketch -->
    <title>survey</title>
    <desc>Created with Sketch.</desc>
    <defs></defs>
    <g id="Page-1" stroke="none" stroke-width="1" fill="none" fill-rule="evenodd">
        <g id="Group-2" transform="translate(0.000000, -271.000000)">
            <g id="survey" transform="translate(0.000000, 271.000000)">
                <rect id="Rectangle" fill="#D8D8D8" opacity="0.435971467" x="0" y="0" width="190" height="190" rx="50"></rect>
                <g transform="translate(52.869565, 20.652174)" fill-rule="nonzero" fill="#3D3780">
                    <path d="M77.5367404,106.565217 L7.55000757,106.565217 C3.42933802,106.565217 0.076745098,103.279803 0.076745098,99.2411482 L0.076745098,19.1873588 C0.076745098,15.0962535 3.41161157,11.7679637 7.51080083,11.7679637 L77.5371575,11.7679637 C81.6582441,11.7679637 85.01042,15.0533776 85.01042,19.0920329 L85.01042,58.6479176 C85.01042,60.3023843 83.666338,61.6436074 82.0088107,61.6436074 C80.3512835,61.6436074 79.0072015,60.3023843 79.0072015,58.6479176 L79.0072015,19.0920329 C79.0072015,18.3571075 78.3477776,17.7595514 77.537366,17.7595514 L7.51059228,17.7595514 C6.72166102,17.7595514 6.07996355,18.3999834 6.07996355,19.1873588 L6.07996355,99.2411482 C6.07996355,99.9760735 6.73938747,100.57363 7.54979902,100.57363 L77.536949,100.57363 C78.3473605,100.57363 79.0067844,99.9756573 79.0067844,99.2411482 L79.0067844,77.4616737 C79.0067844,75.8072071 80.3508664,74.465984 82.0083936,74.465984 C83.6659209,74.465984 85.0100029,75.8072071 85.0100029,77.4616737 L85.0100029,99.2411482 C85.01042,103.279387 81.657827,106.565217 77.5367404,106.565217 Z" id="Shape"></path>
                    <path d="M54.0842309,14.9788652 C54.0944497,14.7805124 54.1000805,14.5807026 54.1000805,14.379644 C54.1000805,8.09250433 48.9934032,2.99568979 42.6936317,2.99568979 C36.3938602,2.99568979 31.287183,8.0922962 31.287183,14.379644 C31.287183,14.5807026 31.2928137,14.7805124 31.3030325,14.9788652 L17.6290581,14.9788652 L17.6290581,26.0626885 L67.4574814,26.0626885 L67.4574814,14.9788652 L54.0842309,14.9788652 Z" id="Shape"></path>
                    <path d="M67.4572728,29.0583783 L17.6292666,29.0583783 C15.9715308,29.0583783 14.6276574,27.7171551 14.6276574,26.0626885 L14.6276574,14.9788652 C14.6276574,13.3243986 15.9715308,11.9831754 17.6292666,11.9831754 L28.4855698,11.9831754 C29.6321582,5.19068351 35.5667649,0 42.6934232,0 C49.8200814,0 55.7548966,5.19068351 56.9012765,11.9831754 L67.4572728,11.9831754 C69.1148001,11.9831754 70.458882,13.3243986 70.458882,14.9788652 L70.458882,26.0626885 C70.4590906,27.7171551 69.1152172,29.0583783 67.4572728,29.0583783 Z M20.6310844,23.0667906 L64.4556636,23.0667906 L64.4556636,17.974555 L54.0840224,17.974555 C53.2613066,17.974555 52.4742522,17.6375842 51.907423,17.0419012 C51.3408022,16.4464265 51.0438321,15.6446897 51.0863755,14.8244289 C51.0938832,14.6770692 51.0980541,14.5286688 51.0980541,14.379644 C51.0980541,9.75446382 47.3275341,5.99158772 42.6934232,5.99158772 C38.0593122,5.99158772 34.2887922,9.75467196 34.2887922,14.379644 C34.2887922,14.528877 34.2929631,14.6770692 34.3008879,14.8244289 C34.3432228,15.6446897 34.0462527,16.4464265 33.4796319,17.0419012 C32.9130112,17.637376 32.1261654,17.974555 31.3030325,17.974555 L20.6310844,17.974555 L20.6310844,23.0667906 L20.6310844,23.0667906 Z" id="Shape"></path>
                    <g id="Group" transform="translate(14.598252, 34.758577)">
                        <path d="M28.544797,15.9766653 L3.03101428,15.9766653 C1.37327845,15.9766653 0.0294050512,14.6354422 0.0294050512,12.9809755 L0.0294050512,3.09497028 C0.0294050512,1.44050365 1.37327845,0.0992804857 3.03101428,0.0992804857 L28.5450055,0.0992804857 C30.2025328,0.0992804857 31.5466148,1.44050365 31.5466148,3.09497028 L31.5466148,12.9809755 C31.5464062,14.6354422 30.2027414,15.9766653 28.544797,15.9766653 Z M6.03283205,9.98507762 L25.5436049,9.98507762 L25.5436049,6.09066007 L6.03283205,6.09066007 L6.03283205,9.98507762 Z" id="Shape"></path>
                        <path d="M52.8590205,15.9766653 L40.8519579,15.9766653 C39.1944306,15.9766653 37.8503487,14.6354422 37.8503487,12.9809755 L37.8503487,3.09497028 C37.8503487,1.44050365 39.1944306,0.0992804857 40.8519579,0.0992804857 L52.8590205,0.0992804857 C54.5165477,0.0992804857 55.8606297,1.44050365 55.8606297,3.09497028 C55.8606297,4.74943691 54.5165477,6.09066007 52.8590205,6.09066007 L43.8535671,6.09066007 L43.8535671,9.98507762 L52.8590205,9.98507762 C54.5165477,9.98507762 55.8606297,11.3263008 55.8606297,12.9807674 C55.8606297,14.635234 54.5169648,15.9766653 52.8590205,15.9766653 Z" id="Shape"></path>
                    </g>
                    <g id="Group" transform="translate(14.598252, 77.634426)">
                        <path d="M28.544797,15.9402417 L3.03101428,15.9402417 C1.37327845,15.9402417 0.0294050512,14.5990185 0.0294050512,12.9445519 L0.0294050512,3.05854662 C0.0294050512,1.40407999 1.37327845,0.0628568274 3.03101428,0.0628568274 L28.5450055,0.0628568274 C30.2025328,0.0628568274 31.5466148,1.40407999 31.5466148,3.05854662 L31.5466148,12.9445519 C31.5464062,14.5990185 30.2027414,15.9402417 28.544797,15.9402417 Z M6.03283205,9.94865396 L25.5436049,9.94865396 L25.5436049,6.05423641 L6.03283205,6.05423641 L6.03283205,9.94865396 Z" id="Shape"></path>
                        <path d="M52.8590205,15.9402417 L40.8519579,15.9402417 C39.1944306,15.9402417 37.8503487,14.5990185 37.8503487,12.9445519 L37.8503487,3.05854662 C37.8503487,1.40407999 39.1944306,0.0628568274 40.8519579,0.0628568274 L52.8590205,0.0628568274 C54.5165477,0.0628568274 55.8606297,1.40407999 55.8606297,3.05854662 C55.8606297,4.71301325 54.5165477,6.05423641 52.8590205,6.05423641 L43.8535671,6.05423641 L43.8535671,9.94865396 L52.8590205,9.94865396 C54.5165477,9.94865396 55.8606297,11.2898771 55.8606297,12.9443437 C55.8608382,14.5990185 54.5169648,15.9402417 52.8590205,15.9402417 Z" id="Shape"></path>
                    </g>
                    <g id="Group" transform="translate(14.598252, 56.196501)">
                        <path d="M52.8590205,15.9583494 L27.3452377,15.9583494 C25.6875019,15.9583494 24.3436285,14.6171263 24.3436285,12.9626596 L24.3436285,3.07665438 C24.3436285,1.42218775 25.6875019,0.080964589 27.3452377,0.080964589 L52.8590205,0.080964589 C54.5165477,0.080964589 55.8606297,1.42218775 55.8606297,3.07665438 L55.8606297,12.9626596 C55.8608382,14.6171263 54.5169648,15.9583494 52.8590205,15.9583494 Z M30.3470555,9.96696985 L49.8574112,9.96696985 L49.8574112,6.07255231 L30.3470555,6.07255231 L30.3470555,9.96696985 L30.3470555,9.96696985 Z" id="Shape"></path>
                        <path d="M15.0380768,15.9583494 L3.03101428,15.9583494 C1.37327845,15.9583494 0.0294050512,14.6171263 0.0294050512,12.9626596 L0.0294050512,3.07665438 C0.0294050512,1.42218775 1.37327845,0.080964589 3.03101428,0.080964589 L15.0380768,0.080964589 C16.6958127,0.080964589 18.0396861,1.42218775 18.0396861,3.07665438 C18.0396861,4.73112101 16.6958127,6.07234417 15.0380768,6.07234417 L6.03262351,6.07234417 L6.03262351,9.96676172 L15.0380768,9.96676172 C16.6958127,9.96676172 18.0396861,11.3079849 18.0396861,12.9624515 C18.0398946,14.6171263 16.6960212,15.9583494 15.0380768,15.9583494 Z" id="Shape"></path>
                    </g>
                </g>
                <path d="M61.7271554,149.286305 L68.8243987,166.869565 L64.519164,166.869565 L63.2190684,163.352913 L56.526773,163.352913 L55.2266773,166.869565 L50.9214427,166.869565 L58.018686,149.286305 L61.7271554,149.286305 Z M61.8550337,159.836261 L59.8942337,154.721131 L59.8516076,154.721131 L57.8908077,159.836261 L61.8550337,159.836261 Z M69.5064161,166.869565 L73.2788246,166.869565 L73.2788246,160.688783 C73.2788246,159.601818 74.3871029,158.557479 75.5166941,158.557479 C76.7315376,158.557479 77.4774941,159.601818 77.4774941,160.688783 L77.4774941,166.869565 L81.2499027,166.869565 L81.2499027,159.665757 C81.2499027,156.617992 78.457894,155.616279 76.454468,155.616279 C75.2609376,155.616279 74.1739724,156.234357 73.3214507,157.086879 L73.2788246,157.086879 L73.2788246,155.935974 L69.5064161,155.935974 L69.5064161,166.869565 Z M96.0837805,155.935974 L91.1817806,155.935974 L87.366746,159.751009 L87.366746,148.540348 L83.5943374,148.540348 L83.5943374,166.869565 L87.366746,166.869565 L87.366746,162.500391 L91.7359197,166.869565 L96.5952935,166.869565 L90.883398,161.15767 L96.0837805,155.935974 Z M99.30205,149.17974 C100.538206,149.17974 101.539919,150.181453 101.539919,151.417609 C101.539919,152.653766 100.538206,153.655479 99.30205,153.655479 C98.0658935,153.655479 97.0641805,152.653766 97.0641805,151.417609 C97.0641805,150.181453 98.0658935,149.17974 99.30205,149.17974 Z M97.3625631,155.935974 L101.134972,155.935974 L101.134972,166.869565 L97.3625631,166.869565 L97.3625631,155.935974 Z M114.860571,161.924939 L106.932119,161.924939 C106.932119,163.60867 108.33878,164.184122 109.297867,164.184122 C110.51271,164.184122 111.045537,163.949678 111.961997,162.969278 L114.690067,164.333313 C113.45391,166.400678 111.450484,167.189261 109.020797,167.189261 C105.717276,167.189261 103.010519,164.58907 103.010519,161.413426 C103.010519,158.21647 105.717276,155.616279 109.020797,155.616279 C112.345632,155.616279 114.881884,157.577079 114.881884,161.413426 C114.881884,161.562618 114.881884,161.797061 114.860571,161.924939 Z M107.038685,159.836261 L111.194728,159.836261 C111.024224,158.685357 110.235641,158.067279 109.127363,158.067279 C107.827267,158.067279 107.102624,158.834548 107.038685,159.836261 Z M122.746397,163.459478 C122.746397,163.459478 122.746397,163.459479 122.746396,163.459479 L122.746397,163.459478 Z M122.746397,163.459478 L123.684171,166.507243 C123.684171,166.507243 122.469328,167.189261 120.913475,167.189261 C117.908336,167.189261 117.183693,164.951391 117.183693,163.011904 L117.183693,158.813235 L115.606528,158.813235 L115.606528,155.935974 L117.183693,155.935974 L117.183693,151.865183 L120.956101,151.865183 L120.956101,155.935974 L123.25791,155.935974 L123.25791,158.813235 L120.956101,158.813235 L120.956101,162.287261 C120.956101,163.310287 121.211858,163.800487 121.808623,163.800487 C122.298396,163.800487 122.745617,163.460072 122.746396,163.459479 L122.746397,163.459478 Z M124.131745,161.413426 C124.131745,158.21647 126.369614,155.616279 129.566571,155.616279 C131.037171,155.616279 132.252014,156.106479 133.147162,156.980313 L133.147162,155.935974 L136.919571,155.935974 L136.919571,166.869565 L133.189788,166.869565 L133.189788,165.633409 L133.147162,165.633409 C132.337266,166.528557 131.058484,167.189261 129.566571,167.189261 C126.369614,167.189261 124.131745,164.610383 124.131745,161.413426 Z M128.138597,161.413426 C128.138597,162.905339 129.161623,163.970991 130.696162,163.970991 C132.166762,163.970991 133.232414,162.905339 133.232414,161.413426 C133.232414,159.9002 132.102823,158.834548 130.696162,158.834548 C129.268188,158.834548 128.138597,159.9002 128.138597,161.413426 Z" id="Ankieta" fill="#3D3780"></path>
            </g>
        </g>
    </g>
</svg>