<?xml version="1.0" encoding="UTF-8"?>
<svg width="230px" height="230px" viewBox="0 0 230 230" version="1.1" xmlns="http://www.w3.org/2000/svg" xmlns:xlink="http://www.w3.org/1999/xlink">
    <!-- Generator: Sketch 47.1 (45422) - http://www.bohemiancoding.com/sketch -->
    <title>tutorial</title>
    <desc>Created with Sketch.</desc>
    <defs></defs>
    <g id="Page-1" stroke="none" stroke-width="1" fill="none" fill-rule="evenodd">
        <g id="tutorial">
            <rect id="Rectangle" fill="#D8D8D8" opacity="0.435971467" x="0" y="0" width="230" height="230" rx="50"></rect>
            <path d="M66.0818768,184.972001 L66.0818768,180.715001 L81.0458764,180.715001 L81.0458764,184.972001 L75.9890765,184.972001 L75.9890765,202 L71.1386767,202 L71.1386767,184.972001 L66.0818768,184.972001 Z M85.3028763,188.7646 L85.3028763,195.0598 C85.3028763,197.6656 85.9994762,198.6718 87.9086762,198.6718 C89.8178761,198.6718 90.5144761,197.6656 90.5144761,195.0598 L90.5144761,188.7646 L95.081076,188.7646 L95.081076,196.1692 C95.081076,200.6068 92.862276,202.387 87.9086762,202.387 C82.9550763,202.387 80.7362764,200.6068 80.7362764,196.1692 L80.7362764,188.7646 L85.3028763,188.7646 Z M98.5640759,188.7646 L96.6548759,188.7646 L96.6548759,192.2476 L98.5640759,192.2476 L98.5640759,197.3302 C98.5640759,199.678 99.4412758,202.387 103.079076,202.387 C104.962476,202.387 106.433076,201.5614 106.433076,201.5614 L105.297876,197.872 C105.297876,197.872 104.756076,198.2848 104.162676,198.2848 C103.440276,198.2848 103.130676,197.6914 103.130676,196.453 L103.130676,192.2476 L105.917076,192.2476 L105.917076,188.7646 L103.130676,188.7646 L103.130676,183.836801 L98.5640759,183.836801 L98.5640759,188.7646 Z M107.026476,195.3952 C107.026476,191.2672 110.535276,188.3776 114.998675,188.3776 C119.384675,188.3776 122.893475,191.2672 122.893475,195.3952 C122.893475,199.4716 119.565275,202.387 114.998675,202.387 C110.225676,202.387 107.026476,199.4716 107.026476,195.3952 Z M111.876875,195.3952 C111.876875,197.2012 113.115275,198.4912 114.972875,198.4912 C116.753075,198.4912 118.043075,197.2012 118.043075,195.3952 C118.043075,193.5634 116.675675,192.2734 114.972875,192.2734 C113.244275,192.2734 111.876875,193.5634 111.876875,195.3952 Z M124.983275,202 L129.549875,202 L129.549875,195.034 C129.549875,194.6986 129.885275,192.3508 132.258875,192.3508 C133.781075,192.3508 134.632475,193.0732 134.632475,193.0732 L136.541675,189.2032 C136.541675,189.2032 135.354875,188.3776 133.652075,188.3776 C131.046275,188.3776 129.601475,190.6738 129.601475,190.6738 L129.549875,190.6738 L129.549875,188.7646 L124.983275,188.7646 L124.983275,202 Z M140.179475,180.586001 C141.675875,180.586001 142.888475,181.798601 142.888475,183.295001 C142.888475,184.791401 141.675875,186.004 140.179475,186.004 C138.683075,186.004 137.470475,184.791401 137.470475,183.295001 C137.470475,181.798601 138.683075,180.586001 140.179475,180.586001 Z M137.831675,188.7646 L142.398275,188.7646 L142.398275,202 L137.831675,202 L137.831675,188.7646 Z M144.668674,195.3952 C144.668674,191.5252 147.377674,188.3776 151.247674,188.3776 C153.027874,188.3776 154.498474,188.971 155.582074,190.0288 L155.582074,188.7646 L160.148674,188.7646 L160.148674,202 L155.633674,202 L155.633674,200.5036 L155.582074,200.5036 C154.601674,201.5872 153.053674,202.387 151.247674,202.387 C147.377674,202.387 144.668674,199.2652 144.668674,195.3952 Z M149.519074,195.3952 C149.519074,197.2012 150.757474,198.4912 152.615074,198.4912 C154.395274,198.4912 155.685274,197.2012 155.685274,195.3952 C155.685274,193.5634 154.317874,192.2734 152.615074,192.2734 C150.886474,192.2734 149.519074,193.5634 149.519074,195.3952 Z M163.244674,202 L167.811274,202 L167.811274,179.812001 L163.244674,179.812001 L163.244674,202 Z" id="Tutorial" fill="#3D3780"></path>
            <g id="think" transform="translate(48.000000, 16.000000)" fill-rule="nonzero">
                <path d="M25.78345,101.605827 L25.78345,135.592355 L97.39555,135.592355 L97.39555,119.787853 L110.8128,119.787853 C117.51005,119.787853 122.9179,114.579929 122.9179,107.877822 L122.9179,101.379213 L25.78345,101.605827 Z" id="Shape" fill="#FDBF5E"></path>
                <g id="Group" fill="#3D3780">
                    <path d="M81.37605,12.6199949 C79.6565,12.1898832 78.14065,11.7594213 76.39835,11.5331574 L77.0546,7.2085736 C79.0006,7.43483756 80.74255,7.86529949 82.68855,8.29541117 L81.37605,12.6199949 Z" id="Shape"></path>
                    <path d="M69.9272,11.1030457 L69.9272,6.77846193 C67.9812,6.77846193 66.23925,7.00472589 64.29325,7.2085736 L67.52865,2.65737563 L64.0668,0.0535888325 L55.8537,11.1030457 L66.89515,19.1186041 L69.49705,15.6542437 L64.0892,11.5331574 C66.0128,11.3068934 67.98155,11.1030457 69.9272,11.1030457 Z" id="Shape"></path>
                    <path d="M63.86345,88.6089594 C61.91745,88.3826954 60.1755,87.9522335 58.2295,87.5221218 L59.31555,83.4010355 C61.0351,83.8311472 62.55095,84.2616091 64.29325,84.4878731 L63.86345,88.6089594 Z" id="Shape"></path>
                    <path d="M74.02255,76.6989289 L71.42065,80.1632893 L76.8285,84.2843756 C74.8825,84.5106396 72.93685,84.7144873 70.99085,84.7144873 L70.99085,89.0390711 C72.93685,89.0390711 74.6788,88.8128071 76.6248,88.6089594 L73.16295,93.1601574 L76.6248,95.7639442 L84.83825,84.7144873 L74.02255,76.6989289 Z" id="Shape"></path>
                    <path d="M30.96485,61.7546497 C30.3086,60.0338528 29.6751,58.0640254 29.22255,56.3428782 L33.34065,55.2560406 C33.77045,56.9768376 34.2006,58.4937868 34.8565,60.2373503 L30.96485,61.7546497 Z" id="Shape"></path>
                    <path d="M42.0063,64.1549391 L41.14635,70.8570457 C39.8566,69.3400964 38.77055,67.822797 37.6845,66.102 L33.99655,68.2756751 C34.8565,69.9964721 35.94255,71.5134213 37.23195,73.0307208 L31.598,72.3739949 L31.1682,76.6985787 L44.78915,78.4193756 L46.5087,64.7885482 L42.0063,64.1549391 Z" id="Shape"></path>
                    <path d="M105.4053,38.8175787 C104.9755,37.0740152 104.54535,35.5798325 103.88945,33.836269 L108.00755,32.3193198 C108.6638,34.0628832 109.2973,36.0099442 109.7271,37.7310914 L105.4053,38.8175787 Z" id="Shape"></path>
                    <path d="M107.55465,17.8051523 L93.9337,16.0615888 L92.21415,29.6924162 L96.5356,30.1225279 L97.39555,23.4204213 C98.6853,24.9373706 99.77135,26.4546701 100.8574,28.175467 L104.54535,26.0017919 C103.6854,24.2809949 102.59935,22.7640457 101.30995,21.2467462 L106.9439,21.9034721 L107.55465,17.8051523 Z" id="Shape"></path>
                    <path d="M97.39555,78.6463401 L94.3635,75.4085939 C95.65325,74.1179086 96.7393,73.0310711 97.82535,71.5141218 L101.2872,74.1179086 C99.99745,75.8383553 98.6853,77.3556548 97.39555,78.6463401 Z" id="Shape"></path>
                    <path d="M113.84485,66.9625736 L108.437,54.3958173 L95.87935,59.8075888 L97.5989,63.7020609 L103.86635,61.0982741 C103.2101,62.8190711 102.3505,64.7888985 101.49055,66.5100457 L105.1785,68.6837208 C106.03845,66.9629239 106.89805,65.2193604 107.5543,63.475797 L109.7264,68.6837208 L113.84485,66.9625736 Z" id="Shape"></path>
                    <path d="M40.7169,25.164335 L37.25505,22.3567005 C38.3411,20.8397513 39.63085,19.549066 41.1467,18.0321168 L44.17875,21.0663655 C42.86625,22.5829645 41.7802,23.8736497 40.7169,25.164335 Z" id="Shape"></path>
                    <path d="M40.92025,33.1795431 L34.6528,35.7833299 C35.30905,34.062533 36.16865,32.0927056 37.0286,30.3715584 L33.34065,28.1978832 C32.4807,29.9414467 31.59835,31.6622437 30.96485,33.3830406 L28.79275,28.1978832 L24.67465,29.9186802 L30.0825,42.4857868 L42.64015,37.0740152 L40.92025,33.1795431 Z" id="Shape"></path>
                    <rect id="Rectangle-path" x="42.0063" y="120.87469" width="4.32145" height="4.32458376"></rect>
                    <rect id="Rectangle-path" x="59.08945" y="120.87469" width="4.32145" height="4.32458376"></rect>
                    <rect id="Rectangle-path" x="76.19465" y="120.87469" width="4.32145" height="4.32458376"></rect>
                    <path d="M99.56765,137.76603 L23.61135,137.76603 L23.61135,100.088878 C8.0444,87.748736 -0.62125,69.3400964 0.03465,49.6411218 L4.3561,49.8673858 C3.69985,68.4795228 12.1394,86.0275888 27.07285,97.5075076 L27.9328,98.1642335 L27.9328,133.441447 L95.22345,133.441447 L95.22345,117.636944 L110.8128,117.636944 C116.22065,117.636944 120.7682,113.31236 120.7682,107.900589 L120.7682,79.7331777 L133.52955,79.7331777 L123.80025,52.0186447 L127.91835,50.5016954 L139.81975,84.0581117 L125.31645,84.0581117 L125.31645,107.878173 C125.31645,115.667117 119.049,121.961878 111.03925,121.961878 L99.9978,121.961878 L99.9978,137.766381 L99.56765,137.766381 L99.56765,137.76603 Z" id="Shape"></path>
                </g>
                <g id="Group" transform="translate(50.400000, 29.071066)" fill="#F16051">
                    <path d="M34.89045,15.5883959 L37.26625,13.867599 L35.32025,9.31640102 L32.2882,9.74651269 C30.99845,7.79910152 29.4826,6.28215228 27.5366,4.99146701 L27.9664,1.95721827 L23.4185,0.0098071066 L21.69895,2.38732995 C19.52685,1.95721827 17.15105,1.95721827 15.0017,2.38732995 L13.28215,0.0098071066 L8.73425,1.95721827 L9.16405,4.99146701 C7.21805,6.28215228 5.7022,7.79910152 4.41245,9.74651269 L1.3804,9.31640102 L0.29435,13.867599 L2.67015,15.5883959 C2.24035,17.7620711 2.24035,20.1395939 2.67015,22.2905025 L0.29435,24.0112995 L2.24035,28.5624975 L5.2724,28.1323858 C6.56215,30.079797 8.078,31.5967462 10.024,32.8874315 L9.36775,35.4912183 L13.91565,37.4386294 L15.6352,35.0611066 C17.8073,35.4912183 20.1831,35.4912183 22.33245,35.0611066 L24.052,37.4386294 L28.5999,35.4912183 L27.94365,32.4569695 C29.88965,31.1662843 31.4055,29.649335 32.69525,27.7019239 L35.7273,28.1320355 L37.6733,23.5808376 L35.2975,21.8600406 C35.32025,19.9133299 35.32025,17.7620711 34.89045,15.5883959 Z M18.87095,30.9627868 C12.1737,30.9627868 6.7431,25.5510152 6.7431,18.8489086 C6.7431,12.146802 12.15095,6.71226396 18.87095,6.71226396 C25.5682,6.71226396 30.97605,12.1240355 30.97605,18.8489086 C30.97605,25.5513655 25.56855,30.9627868 18.87095,30.9627868 Z" id="Shape"></path>
                    <ellipse id="Oval" cx="18.87095" cy="18.8264924" rx="5.63395" ry="5.63803553"></ellipse>
                </g>
            </g>
        </g>
    </g>
</svg>