<?xml version="1.0" encoding="UTF-8"?>
<svg width="190px" height="190px" viewBox="0 0 190 190" version="1.1" xmlns="http://www.w3.org/2000/svg" xmlns:xlink="http://www.w3.org/1999/xlink">
    <!-- Generator: Sketch 47.1 (45422) - http://www.bohemiancoding.com/sketch -->
    <title>tutorial</title>
    <desc>Created with Sketch.</desc>
    <defs></defs>
    <g id="Page-1" stroke="none" stroke-width="1" fill="none" fill-rule="evenodd">
        <g id="Group-2" transform="translate(-569.000000, 0.000000)">
            <g id="tutorial" transform="translate(569.000000, 0.000000)">
                <rect id="Rectangle" fill="#D8D8D8" opacity="0.435971467" x="0" y="0" width="190" height="190" rx="50"></rect>
                <path d="M54.5893765,152.802957 L54.5893765,149.286305 L66.9509414,149.286305 L66.9509414,152.802957 L62.773585,152.802957 L62.773585,166.869565 L58.7667329,166.869565 L58.7667329,152.802957 L54.5893765,152.802957 Z M70.4675934,155.935974 L70.4675934,161.136357 C70.4675934,163.288974 71.0430456,164.120183 72.6202108,164.120183 C74.1973759,164.120183 74.7728281,163.288974 74.7728281,161.136357 L74.7728281,155.935974 L78.5452367,155.935974 L78.5452367,162.052818 C78.5452367,165.718661 76.712315,167.189261 72.6202108,167.189261 C68.5281065,167.189261 66.6951848,165.718661 66.6951848,162.052818 L66.6951848,155.935974 L70.4675934,155.935974 Z M81.4224975,155.935974 L79.8453323,155.935974 L79.8453323,158.813235 L81.4224975,158.813235 L81.4224975,163.011904 C81.4224975,164.951391 82.1471409,167.189261 85.15228,167.189261 C86.7081321,167.189261 87.9229755,166.507243 87.9229755,166.507243 L86.9852016,163.459478 C86.9852016,163.459478 86.5376277,163.800487 86.0474278,163.800487 C85.4506626,163.800487 85.194906,163.310287 85.194906,162.287261 L85.194906,158.813235 L87.4967147,158.813235 L87.4967147,155.935974 L85.194906,155.935974 L85.194906,151.865183 L81.4224975,151.865183 L81.4224975,155.935974 Z M88.4131755,161.413426 C88.4131755,158.003339 91.3117493,155.616279 94.9989057,155.616279 C98.622123,155.616279 101.520697,158.003339 101.520697,161.413426 C101.520697,164.780887 98.7713143,167.189261 94.9989057,167.189261 C91.0559928,167.189261 88.4131755,164.780887 88.4131755,161.413426 Z M92.4200276,161.413426 C92.4200276,162.905339 93.4430536,163.970991 94.9775927,163.970991 C96.4481927,163.970991 97.5138448,162.905339 97.5138448,161.413426 C97.5138448,159.9002 96.3842535,158.834548 94.9775927,158.834548 C93.5496188,158.834548 92.4200276,159.9002 92.4200276,161.413426 Z M103.247053,166.869565 L107.019462,166.869565 L107.019462,161.115044 C107.019462,160.837974 107.296531,158.898487 109.257331,158.898487 C110.514801,158.898487 111.218131,159.495252 111.218131,159.495252 L112.795297,156.298296 C112.795297,156.298296 111.814897,155.616279 110.408236,155.616279 C108.255618,155.616279 107.062088,157.513139 107.062088,157.513139 L107.019462,157.513139 L107.019462,155.935974 L103.247053,155.935974 L103.247053,166.869565 Z M115.800436,149.17974 C117.036592,149.17974 118.038305,150.181453 118.038305,151.417609 C118.038305,152.653766 117.036592,153.655479 115.800436,153.655479 C114.564279,153.655479 113.562566,152.653766 113.562566,151.417609 C113.562566,150.181453 114.564279,149.17974 115.800436,149.17974 Z M113.860949,155.935974 L117.633357,155.935974 L117.633357,166.869565 L113.860949,166.869565 L113.860949,155.935974 Z M119.508905,161.413426 C119.508905,158.21647 121.746775,155.616279 124.943731,155.616279 C126.414331,155.616279 127.629174,156.106479 128.524322,156.980313 L128.524322,155.935974 L132.296731,155.935974 L132.296731,166.869565 L128.566948,166.869565 L128.566948,165.633409 L128.524322,165.633409 C127.714427,166.528557 126.435644,167.189261 124.943731,167.189261 C121.746775,167.189261 119.508905,164.610383 119.508905,161.413426 Z M123.515757,161.413426 C123.515757,162.905339 124.538783,163.970991 126.073322,163.970991 C127.543922,163.970991 128.609574,162.905339 128.609574,161.413426 C128.609574,159.9002 127.479983,158.834548 126.073322,158.834548 C124.645348,158.834548 123.515757,159.9002 123.515757,161.413426 Z M134.854296,166.869565 L138.626704,166.869565 L138.626704,148.540348 L134.854296,148.540348 L134.854296,166.869565 Z" id="Tutorial" fill="#3D3780"></path>
                <g id="think" transform="translate(39.652174, 13.217391)" fill-rule="nonzero">
                    <path d="M21.2993717,83.9352487 L21.2993717,112.011076 L80.4571935,112.011076 L80.4571935,98.9551827 L91.5410087,98.9551827 C97.0735196,98.9551827 101.540874,94.6529848 101.540874,89.1164619 L101.540874,83.7480457 L21.2993717,83.9352487 Z" id="Shape" fill="#FDBF5E"></path>
                    <g id="Group" fill="#3D3780">
                        <path d="M67.2236935,10.4252132 C65.8031957,10.0699036 64.5509717,9.71430457 63.1116804,9.52739086 L63.6538,5.95490863 C65.2613652,6.14182234 66.7003674,6.49742132 68.3079326,6.85273096 L67.2236935,10.4252132 Z" id="Shape"></path>
                        <path d="M57.7659478,9.17208122 L57.7659478,5.59959898 C56.1583826,5.59959898 54.7193804,5.78651269 53.1118152,5.95490863 L55.784537,2.19522335 L52.9247478,0.0442690355 L46.140013,9.17208122 L55.2612109,15.7936294 L57.4106065,12.9317665 L52.9432522,9.52739086 C54.532313,9.34047716 56.1586717,9.17208122 57.7659478,9.17208122 Z" id="Shape"></path>
                        <path d="M52.756763,73.1987056 C51.1491978,73.0117919 49.7101957,72.6561929 48.1026304,72.3008832 L48.9998022,68.8965076 C50.4203,69.2518173 51.6725239,69.6074162 53.1118152,69.7943299 L52.756763,73.1987056 Z" id="Shape"></path>
                        <path d="M61.149063,63.3599848 L58.9996674,66.2218477 L63.4670217,69.6262234 C61.8594565,69.8131371 60.2521804,69.981533 58.6446152,69.981533 L58.6446152,73.5540152 C60.2521804,73.5540152 61.6911826,73.3671015 63.2987478,73.1987056 L60.4389587,76.9583909 L63.2987478,79.1093452 L70.0837717,69.981533 L61.149063,63.3599848 Z" id="Shape"></path>
                        <path d="M25.5796587,51.0147107 C25.0375391,49.5931827 24.514213,47.965934 24.1403674,46.5441168 L27.5422761,45.6462944 C27.8973283,47.0678223 28.2526696,48.3209543 28.7945,49.7612893 L25.5796587,51.0147107 Z" id="Shape"></path>
                        <path d="M34.7008565,52.9975584 L33.990463,58.5340812 C32.9250174,57.2809492 32.0278457,56.0275279 31.1306739,54.606 L28.0841065,56.4016447 C28.7945,57.8231726 29.6916717,59.0763046 30.7568283,60.3297259 L26.1026957,59.7872132 L25.7476435,63.3596954 L36.9997326,64.7812234 L38.4202304,53.5209746 L34.7008565,52.9975584 Z" id="Shape"></path>
                        <path d="M87.0739435,32.0666954 C86.7188913,30.6263604 86.36355,29.3920355 85.8217196,27.9517005 L89.2236283,26.6985685 C89.7657478,28.1389036 90.2890739,29.7473452 90.6441261,31.1691624 L87.0739435,32.0666954 Z" id="Shape"></path>
                        <path d="M88.8494935,14.7086041 L77.5974043,13.268269 L76.1769065,24.5285178 L79.7468,24.8838274 L80.4571935,19.3473046 C81.5226391,20.6004365 82.4198109,21.8538579 83.3169826,23.2753858 L86.36355,21.4797411 C85.6531565,20.0582132 84.7559848,18.8050812 83.6908283,17.5516599 L88.3449609,18.0941726 L88.8494935,14.7086041 Z" id="Shape"></path>
                        <path d="M80.4571935,64.9687157 L77.9524565,62.2940558 C79.0179022,61.2278376 79.9150739,60.3300152 80.8122457,59.0768832 L83.6720348,61.2278376 C82.6065891,62.6490761 81.5226391,63.9024975 80.4571935,64.9687157 Z" id="Shape"></path>
                        <path d="M94.0457457,55.3169086 L89.5783913,44.9356751 L79.2046804,49.406269 L80.6251783,52.6234416 L85.802637,50.4724873 C85.2605174,51.8940152 84.550413,53.521264 83.8400196,54.9430812 L86.886587,56.7387259 C87.5969804,55.317198 88.3070848,53.8768629 88.8492043,52.4365279 L90.6435478,56.7387259 L94.0457457,55.3169086 Z" id="Shape"></path>
                        <path d="M33.6357,20.7879289 L30.7759109,18.4685787 C31.6730826,17.2154467 32.7385283,16.1492284 33.9907522,14.8960964 L36.4954891,17.4026497 C35.41125,18.6554924 34.5140783,19.7217107 33.6357,20.7879289 Z" id="Shape"></path>
                        <path d="M33.8036848,27.4091878 L28.6262261,29.5601421 C29.1683457,28.1386142 29.87845,26.5113655 30.5888435,25.0895482 L27.5422761,23.2939036 C26.8318826,24.7342386 26.1029848,26.1557665 25.5796587,27.5772944 L23.7853152,23.2939036 L20.3834065,24.7154315 L24.8507609,35.0969543 L35.2244717,30.6263604 L33.8036848,27.4091878 Z" id="Shape"></path>
                        <rect id="Rectangle-path" x="34.7008565" y="99.8530051" width="3.56989348" height="3.57248223"></rect>
                        <rect id="Rectangle-path" x="48.8130239" y="99.8530051" width="3.56989348" height="3.57248223"></rect>
                        <rect id="Rectangle-path" x="62.9434065" y="99.8530051" width="3.56989348" height="3.57248223"></rect>
                        <path d="M82.251537,113.806721 L19.5050283,113.806721 L19.5050283,82.6821168 C6.64537391,72.4880863 -0.513206522,57.2809492 0.028623913,41.0078832 L3.59851739,41.194797 C3.05639783,56.5700406 10.0282,71.066269 22.3645283,80.5496802 L23.0749217,81.0921929 L23.0749217,110.234239 L78.66285,110.234239 L78.66285,97.1783452 L91.5410087,97.1783452 C96.008363,97.1783452 99.7650348,93.6058629 99.7650348,89.135269 L99.7650348,65.8665381 L110.30702,65.8665381 L102.269772,42.9719239 L105.67168,41.7187919 L115.503272,69.4393096 L103.522285,69.4393096 L103.522285,89.1167513 C103.522285,95.5510964 98.3448261,100.751117 91.7280761,100.751117 L82.6068783,100.751117 L82.6068783,113.80701 L82.251537,113.80701 L82.251537,113.806721 Z" id="Shape"></path>
                    </g>
                    <g id="Group" transform="translate(41.634783, 24.015228)" fill="#F16051">
                        <path d="M28.8225457,12.8773706 L30.785163,11.4558426 L29.1775978,7.69615736 L26.6728609,8.05146701 C25.6074152,6.44273604 24.3551913,5.18960406 22.7476261,4.12338579 L23.1026783,1.61683249 L19.3457174,0.00810152284 L17.9252196,1.97214213 C16.1308761,1.61683249 14.1682587,1.61683249 12.3927087,1.97214213 L10.9722109,0.00810152284 L7.21525,1.61683249 L7.57030217,4.12338579 C5.96273696,5.18960406 4.71051304,6.44273604 3.64506739,8.05146701 L1.14033043,7.69615736 L0.243158696,11.4558426 L2.20577609,12.8773706 C1.85072391,14.6730152 1.85072391,16.6370558 2.20577609,18.4138934 L0.243158696,19.8354213 L1.85072391,23.5951066 L4.35546087,23.239797 C5.42090652,24.8485279 6.67313043,26.1016599 8.28069565,27.1678782 L7.73857609,29.3188325 L11.495537,30.9275635 L12.9160348,28.9635228 C14.7103783,29.3188325 16.6729957,29.3188325 18.4485457,28.9635228 L19.8690435,30.9275635 L23.6260043,29.3188325 L23.0838848,26.8122792 C24.69145,25.7460609 25.9436739,24.4929289 27.0091196,22.884198 L29.5138565,23.2395076 L31.1214217,19.4798223 L29.1588043,18.0582944 C29.1775978,16.4501421 29.1775978,14.6730152 28.8225457,12.8773706 Z M15.5890457,25.5779543 C10.0565348,25.5779543 5.57038696,21.1073604 5.57038696,15.5708376 C5.57038696,10.0343147 10.0377413,5.54491371 15.5890457,5.54491371 C21.1215565,5.54491371 25.5889109,10.0155076 25.5889109,15.5708376 C25.5889109,21.1076497 21.1218457,25.5779543 15.5890457,25.5779543 Z" id="Shape"></path>
                        <ellipse id="Oval" cx="15.5890457" cy="15.5523198" rx="4.65413261" ry="4.65750761"></ellipse>
                    </g>
                </g>
            </g>
        </g>
    </g>
</svg>